<?xml version="1.0" standalone="no"?>
<!DOCTYPE svg PUBLIC "-//W3C//DTD SVG 20010904//EN"
 "http://www.w3.org/TR/2001/REC-SVG-20010904/DTD/svg10.dtd">
<svg version="1.0" xmlns="http://www.w3.org/2000/svg"
 width="409.000000pt" height="409.000000pt" viewBox="0 0 409.000000 409.000000"
 preserveAspectRatio="xMidYMid meet">
<metadata>
Created by potrace 1.16, written by Peter Selinger 2001-2019
</metadata>
<g transform="translate(0.000000,409.000000) scale(0.100000,-0.100000)"
fill="#000000" stroke="none">
<path d="M3080 3375 c-443 -89 -733 -526 -642 -966 23 -112 78 -236 145 -326
45 -60 45 -61 23 -67 -41 -10 -123 -94 -153 -154 -37 -75 -40 -191 -6 -264 26
-57 90 -128 138 -154 25 -13 33 -23 29 -34 -4 -8 -19 -44 -33 -80 l-26 -65 -3
-603 -3 -602 578 2 578 3 5 290 5 290 47 95 c56 114 67 158 68 270 0 186 -43
272 -237 471 l-143 146 0 81 0 82 32 0 c70 0 171 77 204 157 8 19 18 63 21 99
l6 64 36 0 c94 0 172 112 141 204 -6 19 -35 70 -63 113 l-52 78 -5 120 c-3 66
-9 125 -13 132 -4 7 1 14 13 18 11 4 40 21 63 39 23 18 49 30 56 28 8 -3 11 0
7 7 -11 17 -22 14 -53 -15 -15 -14 -37 -30 -48 -36 -11 -5 0 8 25 31 33 30 51
39 68 36 12 -3 22 -1 22 5 0 13 -167 13 -206 0 -16 -5 -157 -10 -314 -12 -156
-2 -271 0 -255 3 17 4 145 7 286 8 275 1 298 5 351 54 31 29 53 69 61 115 10
49 0 38 -17 -21 -9 -29 -27 -64 -43 -79 -57 -54 -80 -58 -361 -58 -302 0 -328
-5 -403 -80 -56 -56 -78 -115 -80 -218 -1 -40 -7 -75 -12 -79 -6 -3 -7 -1 -3
5 18 29 -16 8 -48 -30 -35 -40 -66 -118 -66 -163 0 -56 33 -129 81 -180 47
-50 49 -54 49 -108 0 -32 -3 -57 -6 -57 -21 0 -110 66 -169 125 -128 130 -184
258 -192 442 -10 214 49 367 196 513 121 121 237 178 404 200 38 4 72 11 75
15 3 3 -15 26 -41 50 -37 36 -55 45 -84 46 l-38 2 45 8 c25 4 166 8 314 8 147
0 271 2 274 5 12 13 -563 4 -628 -9z m69 -31 c2 -2 -22 -4 -54 -4 l-59 0 34
-35 c28 -29 41 -35 79 -36 l46 -1 -55 -9 c-124 -18 -260 -82 -365 -172 -33
-29 -54 -44 -47 -36 11 14 7 21 -24 48 l-36 32 -27 -23 c-14 -12 -6 -1 19 26
120 129 324 232 435 219 28 -3 52 -7 54 -9z m-491 -359 c11 -9 6 -24 -27 -80
-22 -39 -41 -66 -41 -62 0 5 4 16 9 25 8 15 3 17 -45 17 -30 0 -54 -4 -54 -9
0 -5 -3 -7 -6 -4 -6 7 36 94 73 150 l25 37 26 -32 c15 -18 33 -37 40 -42z
m462 -250 c-14 -16 0 -21 16 -5 5 5 110 10 249 10 l240 1 3 -73 c5 -171 10
-192 63 -275 95 -152 95 -153 -31 -153 l-90 0 0 -112 c0 -187 -25 -208 -245
-208 l-135 0 0 -65 0 -64 63 -3 62 -3 3 -52 c2 -32 -1 -53 -7 -53 -12 0 -184
28 -218 35 -23 5 -23 6 -23 212 l0 207 -61 62 c-48 49 -62 69 -66 101 -8 57
17 97 77 128 l50 25 0 106 c0 91 3 110 21 135 11 16 17 29 13 29 -3 0 -1 7 6
15 7 8 15 15 17 15 3 0 0 -7 -7 -15z m-345 -834 c3 -6 39 -28 80 -51 l75 -41
0 -52 -1 -52 -48 -23 c-26 -12 -79 -48 -118 -81 l-70 -58 -36 18 c-20 11 -49
35 -64 56 -25 32 -28 45 -28 109 0 65 3 76 30 110 17 20 46 45 65 55 37 20
105 25 115 10z m413 -340 l163 -28 128 -127 c150 -149 186 -203 208 -311 22
-111 8 -184 -62 -330 l-55 -113 0 -226 0 -226 -250 0 -250 0 0 241 0 241 40
67 c64 108 80 164 80 286 0 119 -20 196 -71 276 -29 46 -130 149 -146 149 -8
0 -73 -94 -73 -105 0 -3 18 -22 41 -42 52 -47 89 -110 105 -182 28 -118 9
-216 -66 -334 -48 -75 -50 -82 -50 -148 l0 -69 -126 0 -126 0 4 318 c4 292 6
322 26 382 25 78 67 143 128 204 45 44 146 106 174 105 8 0 88 -12 178 -28z
m-258 -1241 l0 -120 -125 0 -125 0 0 120 0 120 125 0 125 0 0 -120z"/>
<path d="M1005 3346 c76 -24 216 -94 212 -105 -3 -12 225 -251 234 -245 6 4
49 -64 49 -78 0 -2 -25 -1 -55 0 -38 3 -55 0 -55 -8 0 -8 19 -11 60 -8 44 2
61 -1 65 -11 3 -8 3 -16 0 -19 -3 -3 -5 -1 -5 4 0 5 -27 8 -60 7 l-59 -1 -31
55 c-41 73 -150 181 -230 227 -86 51 -225 96 -286 95 l-49 -2 55 -7 c160 -21
283 -82 400 -200 98 -97 146 -179 181 -305 18 -67 21 -97 17 -199 -8 -193 -62
-319 -193 -451 -59 -59 -148 -125 -169 -125 -3 0 -6 25 -6 57 0 54 2 58 49
108 48 51 81 124 81 180 0 45 -31 123 -66 163 -32 38 -66 59 -48 30 4 -6 3 -8
-3 -5 -5 4 -11 39 -12 79 -2 103 -24 162 -80 218 -75 75 -101 80 -403 80 -207
0 -266 3 -295 15 -43 18 -46 18 -37 3 4 -7 3 -8 -5 -4 -6 4 -9 11 -6 15 4 8
-33 48 -41 44 -2 -2 -34 29 -71 67 -57 59 -69 67 -76 52 -4 -9 -5 6 -3 35 6
63 36 125 85 176 20 21 28 35 19 32 -28 -11 -84 -95 -103 -153 -14 -41 -16
-71 -12 -128 7 -78 28 -144 47 -144 6 0 9 -4 5 -9 -7 -12 35 -42 47 -35 5 3 7
0 6 -7 -2 -7 21 -27 49 -44 29 -18 49 -35 45 -39 -4 -4 -9 -62 -12 -129 l-5
-122 -52 -78 c-28 -43 -57 -94 -63 -113 -31 -92 47 -204 141 -204 l36 0 6 -64
c3 -36 13 -80 21 -99 33 -80 134 -157 204 -157 l32 0 0 -126 0 -127 -63 -67
c-157 -165 -270 -396 -307 -623 -5 -34 -10 -225 -10 -424 l0 -363 640 0 640 0
0 518 c0 304 -4 544 -10 582 -32 203 -158 425 -309 547 -88 71 -85 86 30 154
50 29 120 80 155 112 283 260 346 693 147 1018 -22 35 -45 63 -51 62 -6 -2 -9
3 -6 10 7 20 -113 137 -198 193 -71 48 -224 113 -263 113 -11 0 12 -10 50 -23z
m-108 -608 c4 -7 8 -17 8 -23 0 -5 5 -10 12 -10 6 0 15 -4 20 -9 5 -5 3 -6 -4
-2 -15 8 -18 -10 -3 -19 6 -4 10 -53 10 -115 l0 -110 50 -25 c60 -31 85 -71
77 -128 -4 -32 -18 -52 -66 -101 l-61 -62 0 -180 0 -181 -42 -19 c-24 -10 -77
-38 -119 -61 -42 -24 -80 -43 -84 -43 -4 0 -5 30 -3 68 l3 67 63 3 62 3 0 64
0 65 -135 0 c-219 0 -245 22 -245 207 l0 112 -92 3 c-114 4 -118 11 -55 106
76 116 80 126 85 254 3 74 9 122 17 128 7 5 111 11 246 13 129 1 237 3 241 5
4 1 10 -4 15 -10z m196 -1171 c127 -128 201 -279 226 -460 6 -46 11 -253 11
-493 l0 -414 -125 0 -125 0 0 398 0 398 55 54 55 54 -47 48 -47 48 -78 -77
-78 -78 0 -422 0 -423 -315 0 -315 0 0 248 c0 136 5 288 11 337 21 167 78 324
171 465 54 82 194 224 275 279 59 39 217 121 235 121 5 0 45 -37 91 -83z"/>
</g>
</svg>
