<?xml version="1.0" encoding="utf-8"?>
<!-- Generator: Adobe Illustrator 17.0.0, SVG Export Plug-In . SVG Version: 6.00 Build 0)  -->
<!DOCTYPE svg PUBLIC "-//W3C//DTD SVG 1.1//EN" "http://www.w3.org/Graphics/SVG/1.1/DTD/svg11.dtd">
<svg version="1.1" id="Capa_1" xmlns="http://www.w3.org/2000/svg" xmlns:xlink="http://www.w3.org/1999/xlink" x="0px" y="0px"
	 width="409px" height="409px" viewBox="0 0 409 409" enable-background="new 0 0 409 409" xml:space="preserve">
<g>
	<path fill="#FEFEFE" d="M392.834,206.379c0,60.934-0.03,121.868,0.087,182.801c0.006,3.106-0.59,3.745-3.727,3.742
		c-122.171-0.103-244.343-0.11-366.514,0.023c-3.587,0.004-3.833-1.099-3.832-4.092c0.074-122.02,0.079-244.039-0.024-366.059
		c-0.003-3.268,0.646-3.975,3.955-3.972c122.019,0.107,244.039,0.111,366.059-0.011c3.657-0.004,4.076,1.089,4.071,4.311
		C392.808,84.207,392.834,145.293,392.834,206.379z"/>
	<path fill="#989898" d="M26.145,116.588c-4.214-22.736,0.49-43.512,14.395-61.924C53.67,37.28,71.445,27.453,93.07,25.365
		c16.482-1.591,33.083-1.58,49.576,0.068c13.446,1.344,24.614,7.736,33.098,18.145c2.986,3.663,6.011,4.722,10.438,4.714
		c60.617-0.118,121.235-0.112,181.852-0.08c10.725,0.006,17.63,6.088,18.977,16.411c0.157,1.2,0.165,2.425,0.165,3.639
		c0.029,68.518,0.052,137.035,0.063,205.553c0,1.651,0.237,3.368-0.835,4.844c-2.157-0.781-2.845-2.476-2.963-4.601
		c-0.185-3.316-0.176-6.631-0.118-9.948c-0.04-10.297-0.148-20.595,0.201-30.887c-0.903-5.476,0.794-11.009-0.363-16.486
		c0.311-20.42-0.001-40.839,0.168-61.257c0.02-2.421,0.158-4.836,0.178-7.256c-0.388-15.396-0.347-30.791,0.032-46.171
		c-1.049-1.848-0.115-3.802-0.27-5.704c-0.103-1.268,0.506-2.985-1.136-3.516c-1.291-0.418-2.061,0.952-2.853,1.812
		c-1.077,1.171-1.778,2.919-3.913,2.345c-0.481-0.217-0.866-0.533-1.185-0.95c-1.16-2.445-0.868-5.065-0.906-7.627
		c-0.083-5.623,0.076-11.249-0.07-16.87c-0.182-6.995-2.391-9.107-9.478-9.313c-0.911-0.027-1.824-0.018-2.736-0.018
		c-53.804-0.004-107.609-0.004-161.413,0.004c-1.972,0-3.962-0.14-5.904,0.327c-1.566,0.376-2.917,1.101-2.976,2.946
		c-0.057,1.777,1.138,2.728,2.625,3.341c1.875,0.773,3.871,0.701,5.845,0.712c8.055,0.043,16.112-0.1,24.166,0.068
		c8.035,0.167,13.39,5.328,13.875,13.316c0.221,3.64,0.203,7.296-0.031,10.937c-0.115,1.794-0.107,3.733-2.169,4.654
		c-2.662,0.118-2.707-1.932-2.933-3.695c-0.328-2.553-0.104-5.139-0.262-7.706c-0.245-3.957-2.027-6.981-5.674-8.615
		c-2.614-1.172-5.259-2.653-8.072-2.939c-8.873-0.902-17.759-1.051-26.659,0.173c-6.035,0.83-11.319,1.945-12.584,9.37
		c-0.399,2.344-2.542,4.411-4.505,6.137c-1.409,1.239-2.834,2.374-4.84,1.2c-1.872-2.098-0.244-3.614,0.91-5.163
		c3.141-4.218,4.445-8.794,3.578-14.112c-3.266-20.028-15-32.154-36.239-34.101c-16.239-1.488-32.776-2.017-49.015,1.082
		C62.452,45.16,42.789,66.54,39.308,93.096c-0.63,4.808-0.299,9.706-1.546,14.435c-2.819,1.759-4.392,4.806-6.988,6.79
		C29.392,115.376,28.28,117.046,26.145,116.588z"/>
	<path fill="#848484" d="M164.694,369.062c-0.014,5.507-0.028,11.014-0.041,16.521c-0.881,1.82-2.571,1.305-4.009,1.306
		c-43.73,0.02-87.46-0.016-131.189,0.077c-3.661,0.008-4.802-1.336-4.651-4.828c0.98-22.603,0.359-45.222,0.451-67.833
		c0.021-5.272,3.369-7.85,7.242-10.033c2.255-1.271,4.133-0.136,4.027,2.405c-0.247,5.935,1.767,12.095-1.762,17.766
		c-0.874,1.404-0.915,3.484,0.11,4.811c2.182,2.827,1.845,5.989,1.81,9.138c-0.074,6.7,2.173,13.188,1.775,19.904
		c0.048,2.556,0.016,5.121,0.056,7.685c0.019,1.208-0.094,2.497,0.454,3.568c3.09,6.044,8.699,3.217,13.311,3.518
		c3.419,0.223,5.173-2.064,5.327-5.441c0.212-4.673-0.017-9.353,0.132-14.027c0.071-2.221-0.312-4.565,1.217-6.533
		c0.678-0.693,1.56-1.003,2.475-0.923c2.979,0.26,3.506-1.709,3.794-3.982c0.209-1.655-0.161-3.349,0.299-4.978
		c0.465-1.649,1.616-2.595,3.316-2.567c1.647,0.027,2.37,1.154,2.494,2.693c0.132,1.652,0.877,3.214,0.61,4.929
		c-1.127,7.235-0.3,14.526-0.619,21.783c-0.137,3.104,0.69,5.645,3.11,7.616c1.361,1.109,2.962,1.511,4.658,1.541
		c6.501,0.115,13.003,0.118,19.505-0.001c1.707-0.031,3.292-0.469,4.506-1.778c2.185-4.78,2.548-9.902,2.894-15.02
		c0.112-1.661-0.075-3.337,0.186-5.003c0.688-3.535,3.021-6.595,2.694-10.46c-0.133-1.566,1.19-2.723,2.883-2.959
		c1.667-0.232,2.928,0.462,3.718,1.957c0.21,0.398,0.386,0.821,0.398,1.282c0.235,8.74,5.312,16.591,4.678,25.481
		c0.668,5.412,1.601,6.417,6.687,6.527c5.912,0.127,11.827,0.06,17.74,0.018c1.686-0.012,3.338-0.189,4.729-1.272
		c2.464-2.806,1.834-6.816,3.819-9.81c0.985-1.74,1.492-3.603,1.836-5.568c0.386-2.203,1.4-4.139,4.057-4.057
		c2.801,0.087,3.536,2.144,3.692,4.483C163.384,361.059,164.219,365.036,164.694,369.062z"/>
	<path fill="#898989" d="M385.537,264.242c0.19,4.812-0.549,9.68,0.867,14.417c-1.39,2.839-1.628,6.198-3.756,8.691
		c-3.7,4.334-8.471,6.044-14.141,6.033c-34.488-0.068-68.976-0.036-103.464-0.03c-6.396,0.001-6.259,0.02-6.444,6.584
		c-0.231,8.174,0.865,16.387-0.687,24.523c-2.927-0.467-2.927-0.467-4.681-5.383c-1.968,0.673-2.02,2.447-2.276,3.977
		c-0.941,5.62-3.175,10.739-6.071,15.571c-2.167,3.616-4.146,3.968-6.976,1.554c-0.256-1.814,0.751-3.213,1.593-4.617
		c3.696-6.156,5.062-12.909,5.136-19.972c0.095-9.076-0.023-18.153,0.061-27.232c0.148-7.605,1.039-15.091,3.338-22.381
		c0.997-3.162,2.841-5.002,6.326-4.418c3.514,0.589,4.026,3.229,3.938,6.169c-0.124,4.165-0.335,8.75,3.917,10.854
		c3.144,1.556,6.667,3.162,10.298,3.204c15.02,0.173,30.039,0.762,45.061-0.409c9.992-0.779,20.033-0.175,30.052-0.25
		c5.617-0.042,11.237-0.112,16.854,0.064c5.189,0.163,8.194-2.353,8.881-7.597c0.373-2.848,0.312-5.749,1.709-8.41
		C377.447,260.667,382.297,260.199,385.537,264.242z"/>
	<path fill="#8D8D8D" d="M26.969,276.126c4.826-22.642,18.136-38.842,38.038-50.005c3.971-2.227,8.171-3.997,12.538-5.279
		c3.953-1.16,5.694-3.646,5.444-7.729c-0.277-4.523,0.49-9.084-0.473-13.586c3.434-1.7,6.911-3.305,9.658-6.127
		c0.766-0.787,1.936-0.711,2.989-0.268c0.634,0.349,1.056,0.874,1.295,1.551c0.21,5.873,0.47,11.747,0.486,17.63
		c0.005,1.884,0.64,3.627,2.168,4.814c3.475,2.699,7.27,4.902,11.246,6.772c1.773,0.834,3.532,0.38,5.257-0.386
		c1.538-0.683,3.127-1.315,4.652,0.094c1.611,4.338-2.13,5.516-4.584,6.317c-4.476,1.461-7.493,4.28-10.085,7.886
		c-3.252,1.141-5.645-1.367-8.762-2.047c0.701,3.09,4.321,1.411,5.413,3.486c0.687,1.416,0.443,2.971-0.806,3.589
		c-5.902,2.92-9.629,7.651-12.011,13.624c-2.558,0.619-3.515-1.074-4.242-3.011c-1.27-3.388-2.464-6.802-3.155-9.594
		c-0.759,4.244-1.509,9.239,1.74,13.716c-1.929,3.931-5.804,6.362-7.88,10.194c-5.03,0.912-8.469-2.258-12.048-4.881
		c-1.143-0.838-0.83-2.446-0.749-3.838c0.221-3.794,1.31-7.434,1.804-11.172c0.168-1.269,0.997-2.99-0.338-3.793
		c-1.396-0.84-2.394,0.775-3.405,1.586c-6.706,5.381-11.735,12.09-15.701,19.678c-1.071,2.05-1.588,4.723-4.513,5.245
		c-3.358-0.605-3.488-2.755-2.624-5.43c0.317-0.981,0.862-2.21-0.479-2.769c-1.133-0.473-1.958,0.481-2.697,1.241
		c-1.556,1.601-1.574,3.909-2.538,5.71C31.229,271.921,31.877,276.437,26.969,276.126z"/>
	<path fill="#868686" d="M238.76,340.863c5.272-2.234,6.362-7.473,8.203-11.974c1.362-3.329,1.825-7.04,2.552-10.609
		c0.483-2.374,1.398-4.159,4.183-3.571c2.548,0.538,3.352,2.45,3.003,4.84c-0.269,1.843-0.715,3.645,1.211,4.911
		c-0.912,3.168-1.929,6.31-2.719,9.508c-6.29,25.444-42.131,40.638-68.218,20.121c-6.077-4.779-11.813-9.989-17.751-14.947
		c-1.09-0.91-2.04-2.9-3.643-2.053c-1.454,0.768-0.694,2.768-0.71,4.213c-0.104,9.253-0.127,18.508-0.176,27.762
		c-1.186-4.042-2.401-8.076-3.541-12.131c-0.331-1.177-0.42-2.606-1.995-2.563c-1.431,0.039-2.057,1.2-2.04,2.536
		c0.034,2.544-1.063,4.663-2.318,6.745c-1.789-1.487-1.336-3.562-1.345-5.46c-0.04-8.866-0.045-17.732-0.004-26.584
		c0.121-3.362,3.122-4.988,4.632-7.523c0.685-1.149,1.876-1.987,2.505-3.213c0.846-1.648,1.686-3.537,0.489-5.146
		c-1.175-1.579-2.37,0.31-3.561,0.626c-1.455,0.386-2.698,0.195-3.604-1.143c0.01-6.019,6.544-11.154,11.639-9.169
		c1.662,1.513,1.566,3.6,1.439,5.501c-0.342,5.138,1.61,8.772,5.696,12.037c7.195,5.751,14.038,11.953,21.061,17.928
		c12.14,10.329,27.342,10.639,39.92,0.821C235.138,341.177,236.46,339.242,238.76,340.863z"/>
	<path fill="#919191" d="M78.174,196.805c-11.361-6.422-20.758-15.042-28.535-25.478c1.451-3.814,4.547-6.319,7.26-9.134
		c2.166-0.637,3.258,0.8,4.55,2.166c4.576,4.84,9.045,9.804,14.388,13.846c1.046,0.792,2.02,2.287,3.495,1.628
		c1.719-0.768,1.056-2.631,1.16-4.071c0.088-1.206-0.025-2.424,0.009-3.635c0.091-3.187-1.375-5.11-4.475-5.931
		c-4.191-1.11-7.782-3.306-10.834-6.374c-1.438-1.446-2.635-2.998-1.68-5.236c3.78-2.209,6.21-6.153,10.256-8.046
		c5.339,3.62,11.295,4.633,17.62,4.352c3.506-0.155,5.221,1.725,5.349,5.255c0.159,4.383,0.158,8.765,0.101,13.146
		c-0.052,3.954,0.213,7.841,1.482,11.607c-0.043,1.142-0.546,2.312-1.616,2.447c-5.857,0.742-8.539,5.725-12.445,9.066
		C82.353,194.046,80.965,196.398,78.174,196.805z"/>
	<path fill="#898989" d="M26.969,276.126c1.727-2.673,3.212-5.481,3.757-8.635c0.548-3.17,2.165-5.539,4.658-7.463
		c1.565-1.207,3.143-2.9,5.157-1.431c1.84,1.343,1.122,3.546,0.857,5.471c-0.259,1.878-3.059,3.452-0.676,5.646
		c1.048,1.124,1.077,2.473,0.778,3.852c-5.235,24.215-2.206,48.768-2.997,73.164c-0.098,3.035,0.093,6.079-0.262,9.108
		c-0.167,1.423-0.583,2.68-2.075,3.255c-1.794-6.425-0.492-12.984-0.807-19.474c-0.197-4.052,0.651-8.272-3.967-10.802
		c-1.848-1.012-0.315-2.506,0.542-3.384c5.22-5.352,3.003-12.02,3.294-18.22c0.091-1.938-1.052-1.82-2.358-0.853
		c-4.013,2.972-6.969,6.06-6.81,11.896c0.431,15.793,0.087,31.606,0.185,47.411c0.028,4.577-0.574,9.08-0.869,13.618
		c-0.415,6.388,0.399,7.142,6.722,7.145c29.178,0.015,58.357,0.007,87.535,0.008c12.766,0,25.531,0.002,38.297-0.004
		c2.275-0.001,4.574,0.151,6.723-0.852c-0.735,2.296-2.709,1.596-4.23,1.597c-43.582,0.041-87.163-0.008-130.744,0.103
		c-4.011,0.01-5.234-1.337-5.215-5.278c0.139-29.914,0.035-59.83,0.167-89.744C24.654,286.825,25.179,281.357,26.969,276.126z"/>
	<path fill="#939393" d="M46.268,166.674c-10.055-13.303-16.527-28.134-19.041-44.653c4.094,0.09,6.725-1.877,8.167-5.664
		c0.333-0.874,1.208-1.322,2.22-1.32c1.818,0.317,2.387,1.713,2.688,3.242c2.472,12.567,7.252,24.251,13.481,35.385
		c0.459,0.82,0.583,1.704,0.316,2.621C51.166,159.496,48.959,163.267,46.268,166.674z"/>
	<path fill="#888888" d="M78.174,196.805c3.457-6.295,9.312-10.386,14.222-15.333c1.599-1.611,3.318,0.531,5.024,0.664
		c1.87-1.231,3.157-0.164,4.39,1.114c0.661,0.72,1.215,1.501,1.42,2.483c-0.999,4.711-4.08,7.259-8.622,8.284
		c-1.853,1.701-3.899,3.238-5.511,5.142c-2.202,2.602-4.239,2.829-6.579,0.369C80.702,199.204,79.432,198.014,78.174,196.805z"/>
	<path fill="#8E8E8E" d="M37.21,115.361c0.087,3.043-1.438,5.381-3.332,7.542c-3.454,3.942-4.11,3.849-6.65-0.883
		c-1.018-1.68-0.827-3.6-1.081-5.432c2.47-4.084,6-7,10.161-9.221C39.174,109.742,38.741,112.49,37.21,115.361z"/>
	<path fill="#8B8B8B" d="M46.268,166.674c-0.885-4.867,0.646-7.255,6.459-10.07c4.3,0.124,5.677,2.075,4.498,6.377
		c-0.786,4.364-3.821,6.686-7.585,8.346C48.213,169.995,47.062,168.463,46.268,166.674z"/>
	<path fill="#FEFEFE" d="M234.168,98.321c1.544-6.128,1.309-12.371,0.228-18.444c-0.896-5.035-5.625-8.107-11.214-8.157
		c-10.176-0.092-20.354-0.011-30.531-0.06c-3.539-0.017-7.968-7.526-6.389-10.676c0.407-0.811,1.142-0.961,1.888-1
		c1.515-0.081,3.035-0.099,4.553-0.099c57.57-0.002,115.14-0.001,172.709,0.003c8.446,0.001,10.039,1.612,10.076,10.123
		c0.039,8.809,0.086,17.617,0.129,26.426c3.397,4.224,2.22,9.205,2.177,13.939c-0.112,12.392-0.083,24.786-0.042,37.175
		c0.017,5.097,0.941,10.204,0.525,15.345c-1.045,9.991-0.295,20.014-0.508,30.019c-0.204,9.553,0.374,19.115-0.351,28.663
		c-0.185,2.432,1.307,4.684,0.885,7.161c-0.422,9.388-0.342,18.791-0.675,28.175c-0.228,6.425-1.939,12.726-1.901,19.276
		c0.026,4.393-2.823,6.2-7.378,6.285c-3.033,0.056-6.029-0.463-9.071-0.487c-28.525-0.223-57.042,0.794-85.567,0.525
		c-4.247-0.04-8.462-0.83-12.711-0.472c-1.963,0.166-2.737-0.806-2.926-2.576c-0.048-0.45-0.17-0.896-0.175-1.351
		c-0.161-16.624-2.852-33.201-0.702-49.879c0.539-4.179,0.526-8.505-1.119-12.575c-1.335-5.362-4.307-9.533-9.088-12.368
		c-2.181-1.293-2.134-3.482-2.233-5.574c-0.264-5.564,0.086-11.138-0.258-16.704c-0.154-2.492-0.642-4.769-3.038-6.133
		c-4.137-6.276-9.711-8.259-17.361-7.991c-17.586,0.618-35.209,0.27-52.817,0.158c-7.776-0.049-11.526-6.543-7.926-13.527
		c1.148-2.228,3.233-2.564,5.412-2.661c5.917-0.265,11.838-0.117,17.757-0.132c11.081-0.028,22.162,0.061,33.243-0.034
		c9.402-0.08,12.825-3.568,13.016-13.007c0.286-14.187-2.571-17.092-16.843-17.107c-14.117-0.015-28.234,0.044-42.35-0.027
		c-8.761-0.044-8.95-0.232-11.133-8.557c1.303-7.514,1.455-7.703,9.323-7.753c14.69-0.094,29.382-0.114,44.071,0.009
		c6.217,0.052,12.164-0.201,16.614-5.4C232.848,98.407,233.558,98.368,234.168,98.321z"/>
	<path fill="#FEFEFE" d="M57.225,162.98c-1.499-2.126-2.999-4.251-4.498-6.377c-7.576-12.842-12.82-26.562-15.517-41.241
		c-1.582-2.522-0.77-5.312-0.903-7.996c-0.39-13.589,1.723-26.659,8.706-38.532c10.958-18.633,27.273-29.528,48.76-31.761
		c15.846-1.646,31.864-1.882,47.686,0.076c19.843,2.456,34.286,18.874,35.261,38.736c0.325,6.62-2.87,11.592-7.367,15.975
		c-1.955,4.41-5.76,5.381-8.624,1.714c-5.323-6.816-12.377-8.67-20.517-8.609c-13.047,0.098-26.095,0.075-39.143-0.003
		c-3.726-0.022-6.454-1.293-7.721-5.029c-1.424-4.199,0.22-7.982,4.304-9.704c0.985-0.415,2.06-0.518,3.059-0.879
		c1.904-0.687,3.204-1.903,2.768-4.078c-0.438-2.186-2.193-2.856-4.146-2.72c-4.657,0.324-8.42,2.365-11.031,6.308
		c-3.878,5.855-3.687,12.357,1.181,18.562c2.454,3.129,2.632,5.721,0.733,9.051c-3.215,5.637-4.206,11.993-5.157,18.295
		c-0.464,3.075-1.738,4.879-4.975,5.491c-12.205,2.308-16.372,7.555-17.431,21.014c-0.212,2.697,0.234,5.044,1.166,7.435
		c0.262,2.024,1.344,3.983,0.525,6.103c3.279,5.952,8.763,8.674,15.084,9.773c2.727,0.474,3.559,1.64,3.505,4.171
		c-0.094,4.398-0.079,8.801-0.006,13.199c0.054,3.197-0.935,3.854-3.645,1.928c-7.347-5.219-13.699-11.485-19.596-18.252
		C58.891,164.724,58.045,163.863,57.225,162.98z"/>
	<path fill="#959595" d="M61.747,150.312c-5.677-13.203,1.87-28.047,16.279-31.366c3.571-0.823,4.972-2.054,5.175-5.808
		c0.355-6.552,2.072-12.901,5.451-18.61c1.353-2.285,0.86-3.675-0.797-5.529c-5.161-5.775-6.191-12.346-2.785-19.384
		c3.248-6.714,9.633-10.031,17.628-9.605c2.364,0.126,3.534,0.781,3.717,3.386c0.481,6.86,0.354,7.169-6.521,8.411
		c-3.158,0.571-4.954,2.545-4.837,5.64c0.135,3.566,2.297,5.451,5.961,5.453c12.898,0.005,25.801,0.219,38.694-0.035
		c9.102-0.179,17.167,1.255,22.75,9.48c2.168,3.194,4.588-0.102,6.889-0.485c5.277-3.005,9.138-6.875,8.414-13.603
		c-0.272-2.526,1.049-3.551,3.457-3.691c9.49-0.549,18.858-2.258,28.463-2.035c6.247,0.145,12,1.355,17.595,3.71
		c4.404,1.854,6.956,5.196,6.872,10.238c-0.065,3.946,0.005,7.893,0.016,11.84c-2.019,5.748-5.215,8.05-11.566,8.065
		c-17.38,0.042-34.762,0.146-52.139-0.069c-4.259-0.053-6.283,1.142-5.81,5.528c-2.796,1.209-5.103,2.809-6.362,5.844
		c-0.783,1.888-2.488,3.007-4.799,2.107c-2.747-2.531-2.683-5.909-2.745-9.23c-0.241-13.077-0.869-13.7-14.12-13.703
		c-8.632-0.002-17.269,0.164-25.895-0.055c-5.705-0.145-9.102,2.424-11.032,7.553c-1.452,3.859-2.167,7.873-2.792,11.915
		c-0.23,1.485-0.145,3.04-1.017,4.368c-1.372,1.52-2.748,0.985-3.897-0.198c-1.668-1.719-3.352-1.326-4.792,0.006
		c-3.48,3.219-7.799,4.557-12.209,5.558c-8.732,1.982-14.069,13.597-11.163,20.628C63.65,148.16,63.489,149.685,61.747,150.312z"/>
	<path fill="#8C8C8C" d="M257.797,214.104c1.108,1.969,0.849,4.134,0.852,6.246c0.028,18.694,0.123,37.39-0.03,56.083
		c-0.032,3.889,1.009,5.3,5.113,5.282c34.501-0.148,69.002-0.08,103.503-0.107c6.094-0.005,8.143-2.031,8.191-8.253
		c0.115-14.892,0.13-29.785,0.185-44.678c0.358-0.298,0.762-0.368,1.205-0.244c0.537,0.289,1.134,0.651,1.22,1.243
		c0.465,3.179,1.743,4.1,4.593,2.014c0.896-0.656,2.019-0.007,2.903,0.632c0.002,10.64,0.003,21.28,0.005,31.92
		c-7.182-1.995-9.08-0.563-9.121,6.866c-0.008,1.518,0.044,3.046-0.11,4.551c-0.582,5.673-3.448,8.246-9.131,7.622
		c-14.997-1.647-30.061-1.175-45.025-0.541c-13.053,0.554-26.085,0.265-39.118,0.679c-7.148,0.227-14.234-0.517-21.347-0.911
		c-3.112-0.172-4.388-1.844-4.559-4.567c-0.209-3.329-0.145-6.675-0.212-10.013c-0.039-1.943-0.478-3.699-2.687-4.202
		c-2.363-0.538-3.708,0.881-4.677,2.751c-1.359,2.623-1.647,5.455-1.763,8.381c-0.184,4.671,0.808,9.412-0.727,14.011
		c-2.559-1.06-2.2-3.427-2.301-5.463c-0.248-5.006,0.041-10.026-0.162-15.034c-0.215-5.304-1.947-7.054-7.252-7.276
		c-4.855-0.203-9.72-0.101-14.58-0.051c-7.545,0.078-9.762,2.111-9,9.594c1.221,11.987,0.485,23.977,0.745,35.962
		c0.02,0.911,0,1.823-0.01,2.734c-0.109,9.272-1.461,10.526-10.703,9.932c-4.941-0.318-6.319-1.422-6.398-6.34
		c-0.157-9.861-0.849-19.758,0.517-29.571c0.423-3.039-1.534-6.43,1.237-9.139c2.956-0.468,3.924,1.261,4.005,3.775
		c0.051,1.604-0.11,3.212,0.695,4.685c-0.482,7.538-0.223,15.097-0.271,22.652c-0.005,0.756-0.025,1.521,0.106,2.264
		c0.26,1.474,0.345,3.373,2.384,3.222c1.63-0.121,1.882-1.827,1.965-3.182c0.306-4.985,0.101-9.98,0.135-14.97
		c0.035-5.129-0.111-10.263,0.433-15.371c-0.995-2.17-0.221-4.457-0.417-6.683c-0.09-1.019,0.284-2.322-0.804-2.873
		c-1.174-0.595-1.891,0.593-2.637,1.267c-1.889,1.708-3.534,3.746-6.205,4.342c-2.548-0.012-3.099-2.157-3.915-3.849
		c-4.37-9.059-9.663-17.391-17.761-23.66c-1.293-1.001-2.445-2.315-2.131-4.242c2.475-2.966,5.702-5.467,6.113-9.749
		c2.854-1.988,4.835,0.13,6.746,1.652c2.697,2.148,4.919,4.835,7.433,7.198c1,0.94,1.695,2.704,3.619,1.763
		c2.628-3.62,0.981-7.682,1.235-11.492c0.343-5.152,1.422-6.392,6.579-6.22c4.338,0.145,5.13,1.044,5.359,5.466
		c0.228,4.405-1.3,9.254,2.971,12.716c1.997,1.758,4.447,1.63,6.865,1.736c3.9,0.17,7.855-0.508,11.68,0.734
		c2.533,2.908,0.748,3.949-1.998,4.457c-2.236,0.414-4.585-0.07-6.776,0.701c-1.429,0.502-3.367,1.176-3.025,2.867
		c0.402,1.986,2.608,1.459,3.858,0.994c4.271-1.588,8.072-3.886,9.745-8.525c0.108-0.106,0.217-0.294,0.329-0.295
		c6.615-0.087,9.777-3.734,10.378-10.037c5.44-3.922,9.72-8.446,9.062-15.909c-0.139-1.581,0.555-3.227,1.082-4.793
		C256.446,214.253,256.987,213.854,257.797,214.104z"/>
	<path fill="#8F8F8F" d="M376.415,228.671c-0.268,0.002-0.536,0.004-0.803,0.006c-0.001-21.908-0.001-43.817-0.002-65.725
		c0.739-3.28,0.184-6.606,0.348-9.907c0.102-2.053-0.535-4.477,2.14-5.385c2.534-0.86,5.227-2.064,7.433,0.766
		c0.006,23.098,0.011,46.197,0.017,69.295C382.943,221.737,380.254,225.683,376.415,228.671z"/>
	<path fill="#959595" d="M385.53,148.425c-0.448,0.023-0.901,0.013-1.344,0.073c-7.712,1.043-7.707,1.045-7.769,8.742
		c-0.016,1.937,0.172,3.908-0.808,5.711c0.003-22.172,0.006-44.344,0.009-66.516c0.265-0.002,0.53-0.004,0.796-0.005
		c3.105,0.995,1.536,4.081,2.534,6.041c2.363-0.628,3.448-4.364,6.581-2.398C385.529,116.191,385.53,132.308,385.53,148.425z"/>
	<path fill="#898989" d="M376.415,228.671c-0.04-6.222,5.028-8.184,9.133-10.95c-0.005,4.867-0.01,9.734-0.015,14.602
		c-2.629,1.075-4.274,3.339-6.263,5.185c-1.719,1.595-2.708,1.192-2.798-1.101C376.369,233.831,376.427,231.249,376.415,228.671z"/>
	<path fill="#8E8E8E" d="M385.529,100.073c-1.888,1.741-3.764,3.495-5.669,5.217c-0.759,0.686-1.421,1.997-2.522,1.613
		c-1.461-0.51-0.846-2.085-0.889-3.209c-0.094-2.418-0.032-4.842-0.035-7.264c0.373-4.13,3.829-6.022,6.389-8.453
		c1.911-1.814,2.62-0.102,2.667,1.648C385.563,93.106,385.517,96.591,385.529,100.073z"/>
	<path fill="#FEFEFE" d="M175.552,241.538c10.517,8.175,17.936,18.661,23.048,30.872c0.735,0.424,0.906,1.059,0.685,1.84
		c1.809,8.895-0.054,17.853,0.444,26.776c0.228,4.085,0.09,8.192,0.049,12.288c-0.026,2.633,1.063,3.971,3.818,3.786
		c1.359-0.091,2.739-0.111,4.094,0.011c3.169,0.287,4.337-1.172,4.307-4.247c-0.126-12.592-0.137-25.185-0.212-37.777
		c-0.024-4.095-0.017-8.195-0.204-12.284c-0.146-3.194,1.256-4.218,4.338-4.171c8.95,0.136,17.906,0.147,26.856,0.013
		c3.186-0.048,4.225,1.172,4.189,4.283c-0.099,8.645,0.047,17.294,0.097,25.941c-0.049,8.6-0.256,17.203-0.107,25.8
		c0.168,9.688-2.092,18.516-8.193,26.193c-8.91,8.831-19.34,12.927-31.903,10.02c-5.576-1.29-10.444-4.093-14.785-7.779
		c-7.294-6.194-14.366-12.667-21.89-18.567c-3.978-3.12-6.093-6.452-5.385-11.546c0.268-1.929-0.05-3.94-0.101-5.913
		c-1.388-2.046-1.999-4.336-2.394-6.761c-0.308-1.892-1.312-3.537-3.569-3.405c-2.233,0.131-3.279,1.902-3.211,3.762
		c0.219,6.027-1.187,11.892-1.361,17.912c-0.446,15.427,0.298,30.869-0.72,46.28c-0.234,3.541,0.79,7.163-0.676,10.625
		c-9.345-0.02-18.691-0.04-28.036-0.06c-6.282-0.013-6.28-0.013-6.436-6.392c-0.015-0.602-0.079-1.202-0.121-1.804
		c-1.084-18.265-2.84-36.499-2.108-54.842c0.141-3.518,1.255-5.816,4.371-7.748c5.81-3.601,11.767-6.943,17.601-10.494
		c8.196-4.989,8.657-8.555,1.941-15.594c-0.839-0.879-1.798-1.626-2.322-2.756c-1.248-3.311,0.037-5.481,3.048-6.998
		c2.969-1.496,5.837-3.254,8.925-4.445c5.409-2.086,8.08-5.459,6.733-11.469c-0.256-1.143-0.178-2.381-0.719-3.494
		c-0.994-4.417-1.853-8.858-2.2-13.373c-0.34-4.427,1.296-5.774,5.639-4.726c4.437,1.071,8.27,3.635,12.539,5.13
		C173.499,237.694,175.492,238.874,175.552,241.538z"/>
	<path fill="#FEFEFE" d="M36.167,359.094c0.045-21.053,0.021-42.107,0.168-63.16c0.062-8.946,1.388-17.737,4.387-26.219
		c5.233-11.721,12.525-21.801,23.256-29.128c1.22-0.833,2.517-1.552,4.235-2.603c0.321,5.82-1.29,10.878-2.05,16.012
		c-1.16,7.839-1.302,7.828,5.556,11.225c1.219,0.604,2.496,1.089,3.746,1.63c3.59-1.92,5.994,0.925,8.793,2.18
		c3.648,3.049,3.813,3.96,1.452,7.961c-1.31,2.219-2.826,4.304-4.207,6.478c-2.992,4.709-2.749,5.796,1.888,8.672
		c6.433,3.99,13.088,7.619,19.365,11.885c3.722,1.228,5.873,3.558,5.499,7.705c-1.152,13.437,0.36,26.94-1.163,40.387
		c-0.714,6.308-0.077,12.727-0.205,19.093c-0.029,1.432,0.65,3.036-0.659,4.293c-9.77-0.03-19.54-0.038-29.31-0.112
		c-1.757-0.013-3.634,0.444-5.21-0.825c-0.996-1.663-0.821-3.512-0.804-5.322c0.085-9.249,0.813-18.603-0.088-27.724
		c-1.285-13.009-1.009-25.982-1.331-38.973c-0.023-0.91-0.138-1.817-0.431-2.687c-0.515-1.528-1.349-2.792-3.137-2.827
		c-1.807-0.035-2.675,1.215-3.185,2.747c-0.585,1.758-0.508,3.594-0.513,5.412c-0.034,11.83,0.066,23.661-0.068,35.49
		c-0.027,2.345,0.441,4.97-2.061,6.596c-0.055,7.859-0.228,15.721-0.107,23.577c0.05,3.231-0.852,4.742-4.334,4.602
		c-4.981-0.2-9.981-0.182-14.963,0c-3.415,0.125-4.529-1.32-4.405-4.58C36.431,366.957,36.221,363.022,36.167,359.094z"/>
	<path fill="#888888" d="M139.315,274.205c2.95,4.213,5.87,8.448,8.862,12.632c1.886,2.638,0.099,3.725-1.853,4.893
		c-8.199,4.905-16.317,9.95-24.599,14.711c-2.596,1.493-3.482,3.258-3.471,6.185c0.068,18.203-0.035,36.407-0.082,54.61
		c-0.785-7.452-1.482-14.917-3.475-22.181c-0.319-1.163-0.512-2.361-0.839-3.521c-0.246-0.873-0.583-1.844-1.693-1.834
		c-1.334,0.013-1.806,1.101-1.875,2.17c-0.229,3.537-1.447,6.758-2.904,9.922c-1.03-5.562-0.334-11.173-0.433-16.759
		c-0.133-7.442-0.033-14.888-0.033-22.319c-0.158-2.867,1.685-4.754,3.434-6.61c3.113-3.305,6.372-6.472,9.603-9.661
		c1.767-1.744,3.11-3.694,3.698-6.126c2.114-3.102,5.763-4.368,8.31-6.951C136.217,281.759,136.972,277.344,139.315,274.205z"/>
	<path fill="#888888" d="M60.09,347.278c-0.04-16.695-0.027-33.39-0.166-50.084c-0.026-3.075,1.25-4.076,4.082-3.813
		c1.053,0.098,2.138,0.125,3.184-0.007c3.644-0.46,4.681,1.189,4.652,4.693c-0.133,16.089-0.035,32.179-0.045,48.269
		c-0.006,9.41-0.057,18.82-0.088,28.23c-1.911-1.558-1.727-3.744-1.714-5.853c0.055-8.921,0.143-17.841,0.199-26.762
		c0.007-1.055-0.035-2.122-0.189-3.163c-0.141-0.956,0.106-2.51-1.412-2.313c-1.322,0.171-1.251,1.614-1.013,2.623
		c0.614,2.606-0.369,5.104-0.357,7.666c0.007,1.469,0.32,3.292-1.287,4.083c-1.764,0.868-2.625-0.944-3.752-1.833
		C61.472,348.452,60.787,347.858,60.09,347.278z"/>
	<path fill="#898989" d="M152.765,375.491c0.099-17.929,0.209-35.858,0.29-53.787c0.036-7.903,0.111-15.808-0.038-23.709
		c-0.061-3.211,0.826-4.629,4.341-4.627c7.477,0.003,7.487-0.171,7.475,7.333c-0.004,2.126-0.09,4.252-0.138,6.378
		c-5.325,0.313-7.727,4.133-9.886,8.244c3.139,3.387,2.499,7.226,1.304,11.115c-0.363,1.181-1.223,2.18-1.313,3.47
		c0,11.248,0,22.496-0.001,33.744C152.915,367.389,155.342,371.87,152.765,375.491z"/>
	<path fill="#797979" d="M107.377,310.754c0.003,13.679,0.007,27.358,0.01,41.037c-0.003,6.178-0.003,12.357-0.011,18.535
		c-0.002,1.807,0.102,3.643-1.147,5.177c0.079-18.109,0.154-36.218,0.243-54.327c0.017-3.47,0.094-6.94,0.144-10.41
		C106.865,310.47,107.119,310.48,107.377,310.754z"/>
	<path fill="#8F8F8F" d="M94.607,194.017c2.433-2.736,4.865-5.471,7.298-8.207c3-5.678,7.311-10.264,12.076-14.466
		c1.097-0.967,2.35-1.353,3.772-0.703c2.02,1.396,1.588,3.364,1.235,5.327c-0.651,3.616-2.18,6.895-3.731,10.189
		c-2.067,4.388-1.441,6.03,2.889,8.387c12.186,6.635,24.195,2.654,32.083-10.647c0.948-1.441,2.518-2.146,3.8-3.179
		c1.525-1.228,3.465-1.063,4.439,0.426c1.914,2.924,4.84,3.684,7.824,4.541c10.373,1.309,20.782,0.379,31.168,0.545
		c3.836,0.061,7.894,0.937,11.394-1.609c0.719-0.778,1.58-1.467,2.158-2.318c1.226-1.806,2-3.901,0.914-5.974
		c-0.981-1.872-2.925-1.235-4.657-1.337c-2.732-0.161-5.455-0.035-8.18-0.133c-1.966-0.07-3.804-0.432-3.795-2.837
		c0.008-2.096,1.71-2.675,3.472-2.829c4.981-0.434,9.976-0.192,14.965-0.219c6.042-0.032,12.084,0.279,17.945-1.858
		c1.599-0.583,3.581-0.771,5.248,0.392c1.508,2.213-0.222,3.537-1.442,4.911c-1.261,1.421-2.517,2.865-4.027,4.039
		c-5.085-0.199-5.743,3.272-5.903,7.156c-0.469,3.674,0.616,7.504-1.139,11.032c-0.311,0.362-0.699,0.625-1.147,0.79
		c-2.302,0.205-2.753-1.439-3.039-3.153c-0.526-3.164-1.952-2.447-3.597-0.88c-2.47,2.352-4.943,4.444-2.11,8.443
		c1.366,1.928-0.007,4.679-0.328,7.054c-0.79,1.07-1.78,1.573-3.112,1.127c-2.396-4.355-6.081-5.584-10.968-5.47
		c-12.285,0.288-24.585,0.289-36.871,0.023c-7.216-0.156-11.588,4.712-16.589,8.432c-1.95,1.451-1.113,3.632,1.027,4.788
		c1.612,0.87,3.456,1.113,5.241,1.468c6.876,1.369,13.526,3.447,19.814,6.56c2.12,1.05,4.739,2.048,3.11,5.38
		c-3.635,2.047-7.419,1.147-11.003,0.156c-7.782-2.151-15.635-3.165-23.713-3.117c-6.621,0.039-7.41-1.366-5.493-7.908
		c0.379-1.291,0.174-2.729,0.934-3.921c0.946-2.103,0.197-2.745-1.9-2.147c-1.659,0.473-2.734,2.279-4.698,2.097
		c-7.169-0.966-14.255-2.087-20.658-5.884c-4.176-2.477-7.882-5.499-11.496-8.676c-1.391-1.223-2.468-2.646-2.335-4.654
		C95.191,194.777,94.899,194.397,94.607,194.017z"/>
	<path fill="#FEFEFE" d="M95.483,195.157c8.054,6.703,15.947,13.624,26.707,15.843c2.71,0.559,5.928-0.565,8.082,2.135
		c2.914,2.56,2.248,5.121-0.515,7.001c-2.861,1.947-5.56,4.729-9.622,3.807c-5.788,4.728-10.636,2.407-16.586-0.72
		c-7.283-3.827-10.136-8.589-8.894-16.432C95.262,202.956,93.853,198.945,95.483,195.157z"/>
	<path fill="#858585" d="M120.135,223.943c2.107-1.382,4.089-3.036,6.352-4.08c3.043-1.404,4.131-3.58,3.785-6.728
		c1.897-4.905,7.019-2.749,10.527-5.702c-0.262,2.892-0.432,4.767-0.602,6.642c-5.961,7.652-11.871,15.259-19.494,21.512
		c-4.418,3.624-7.419,8.915-12.403,12.118c-1.312,0.843-0.916,2.445-1.398,3.664c-1.525,1.981-3.713,3.088-5.775,4.368
		c-2.921,2.084-4.712,5.293-7.51,7.501c-1.526,1.204-2.928,2.693-5.099,1.294c-0.74-0.701-1.051-1.565-0.971-2.573
		c1.207-1.71-0.517-4.189,1.481-5.697c-1.833-7.22,3.811-9.915,8.168-13.302c1.505-1.17,3.55-1.614,4.719-3.304
		c-0.697-2.462,1.761-1.754,2.642-2.63c1.421-4.492,4.055-7.603,8.945-8.623C116.202,227.84,118.489,226.273,120.135,223.943z"/>
	<path fill="#FDFDFD" d="M89.027,256.262c0.119,1.797,1.926,3.562,0.106,5.397c-3.79,1.542-5.393-0.648-6.445-3.778
		c-4.049-1.688-4.92-4.522-3.758-8.682c1.068-3.821,1.427-7.841,2.316-13.046C84.163,243.69,86.595,249.976,89.027,256.262z"/>
	<path fill="#858585" d="M82.689,257.881c2.642,0.417,4.217,2.654,6.445,3.778c0.001,0.861,0.003,1.723,0.004,2.584
		c1.343,4.893-2.376,5.527-5.562,6.609c-2.703-1.334-5.406-2.668-8.11-4.002C75.14,261.66,79.241,260.034,82.689,257.881z"/>
	<path fill="#FDFDFD" d="M104.556,237.026c-0.276,1.485-1.797,1.718-2.642,2.63c-6.125,1.93-6.129,1.932-8.265-4.283
		c-0.492-1.431-0.942-2.877-1.613-4.932C97.003,231.828,100.376,235.248,104.556,237.026z"/>
	<path fill="#818181" d="M154.801,329.906c-1.142-4.862,0.655-9.723,0.009-14.585c2.386-0.54,3.706-2.505,5.375-4.007
		c0.765-0.688,1.462-1.792,2.645-1.387c1.24,0.425,0.883,1.744,1.085,2.746C165.584,320.917,160.451,325.545,154.801,329.906z"/>
	<path fill="#FEFEFE" d="M100.852,183.886c-1.144-0.583-2.288-1.167-3.432-1.75c-2.15-1.967-2.87-4.382-2.775-7.295
		c0.167-5.127,0.051-10.264,0.039-15.396c-0.015-6.363-0.022-6.363-6.591-6.378c-1.208-0.003-2.433-0.135-3.62,0.02
		c-5.148,0.671-8.518-2.287-11.738-5.603c-0.241-0.102-0.482-0.203-0.724-0.305c-2.732-4.529-2.38-10.689,0.809-14.185
		c4.657-5.105,10.851-6.621,16.338-3.775c4.055,2.104,7.617,4.738,9.962,8.938c3.682,6.596,8.124,12.83,9.046,20.606
		c0.367,3.097,0.052,6.27,1.013,9.304c-0.052,0.757-0.246,1.49-0.407,2.225c-1.86,4.765-3.036,9.906-7.242,13.41
		C101.303,183.763,101.077,183.824,100.852,183.886z"/>
	<path fill="#8B8B8B" d="M61.747,150.312c0.011-1.543,0.023-3.085,0.034-4.628c0.487-2.827,2.01-5.026,4.315-6.624
		c2.434-1.686,4.383-0.854,4.741,2.072c0.276,2.26,0.389,4.507,1.911,6.368c0,0-0.014-0.016-0.014-0.016
		c-1.431,5.066-4.292,7.564-8.392,7.328C63.057,153.553,61.969,152.182,61.747,150.312z"/>
	<path fill="#8A8A8A" d="M106.368,170.006c0.069-0.527,0.137-1.054,0.206-1.58c0.532-4.459,2.849-7.83,6.248-10.645
		c1.988-1.647,3.911-2.215,6.164-0.656c2.388,3.673,1.522,7.67,1.084,11.594c-0.163,1.461-1.218,2.309-2.719,2.494
		c-5.149,4.866-10.297,9.732-15.446,14.597c-0.351-0.641-0.702-1.282-1.053-1.924c0,0,0.026,0.073,0.026,0.073
		C103.716,179.705,106,175.232,106.368,170.006z"/>
	<path fill="#929292" d="M117.287,157.549c-4.713,2.501-8.067,6.341-10.714,10.877c1.015-12.265-4.445-22.387-11.235-31.77
		c-3.434-4.746-8.571-7.731-14.997-6.288c-7.026,1.578-9.931,8.248-7.594,17.131c-1.645-1.126-2.218-2.883-2.517-4.683
		c-0.585-3.517-2.005-3.154-4.068-1.088c-1.388,1.39-2.916,2.641-4.382,3.955c-2.536-8.99,2.821-19.308,11.624-21.658
		c5.047-1.347,9.705-2.983,13.827-6.429c4.516-3.774,4.862-3.452,7.529,3.416c2.342-1.399,4.083,0.176,5.782,1.32
		c12.662,8.527,26.638,13.561,41.645,15.995c4.984,0.809,9.974,0.631,14.953,0.421c3.416-0.144,4.138-1.768,2.42-4.884
		c-1.752-3.176-4.112-6-5.497-9.397c-0.761-1.867-1.621-3.742,0.716-5.178c1.253-1.839,2.158-3.824,2.982-5.907
		c1.422-3.598,4.372-4.146,6.892-1.538c0.517,5.167,3.156,6.808,8.474,6.681c16.24-0.388,32.495-0.163,48.744-0.131
		c8.719,0.017,13.067,4.436,13.122,13.216c0.018,2.885,0.027,5.771,0.001,8.656c-0.079,8.465-4.427,12.807-13,12.829
		c-16.857,0.042-33.713,0.006-50.57,0.019c-6.023,0.005-8.824,4.491-6.381,10.156c0.996,2.31,3.087,1.566,4.759,1.572
		c19.59,0.061,39.181-0.024,58.77,0.081c6.807,0.036,12.393,2.59,15.616,9.027c-0.302,0.345-0.672,0.58-1.119,0.69
		c-3.391-0.716-5.217-3.008-6.188-6.159c-0.723-0.16-1.645-0.69-2.138-0.424c-9.58,5.162-19.958,2.514-29.99,3.164
		c-2.49,0.161-5.062-0.434-8.512,0.89c4.09,1.473,7.366,0.808,10.538,0.912c6.887,0.227,8.339,1.95,6.644,8.509
		c-0.607,2.348,0.844,5.384-2.199,6.963c-1.009-0.953-1.611-2.079-1.97-3.459c-1.4-5.374-2.185-6.013-7.75-6.064
		c-9.644-0.088-19.288,0.016-28.932-0.054c-2.387-0.017-4.837,0.272-7.096-0.845c-2.021-2.071-1.086-3.184,1.293-3.609
		c1.546-0.276,3.143,0.061,4.717-0.047c-4.164,0.003-8.319-0.539-13.446-0.471c5.888,2.338,2.589,9.036,7.169,11.329
		c0.319,1.372-0.338,2.364-1.253,3.257c-1.221-1.12-2.4-2.29-3.67-3.352c-4.702-3.93-4.713-3.917-8.397,0.583
		c-1.856-0.969-1.741-2.614-1.546-4.337c0.77-6.801,0.246-13.628,0.358-20.442c0.061-3.68-1.687-5.461-5.423-5.84
		c-7.241-0.735-14.404-2.039-21.387-4.143c-3.179-0.958-5.107-0.562-4.668,3.39C119.383,155.852,118.926,157.107,117.287,157.549z"
		/>
	<path fill="#959595" d="M351.676,130.195c0,1.367,0.009,2.734-0.001,4.101c-0.057,7.624-4.42,11.976-12.188,12.163
		c-9.376,0.226-9.376,0.226-9.568,9.363c-0.169,8.003-4.453,12.348-12.393,12.507c-2.732,0.055-5.471,0.086-8.2-0.021
		c-7.451-0.294-11.754-4.624-12.089-12.057c-0.425-9.426-0.425-9.426-9.693-9.801c-7.446-0.301-11.84-4.592-12.152-12.001
		c-0.121-2.88-0.12-5.774-0.002-8.655c0.309-7.521,4.569-11.729,11.99-11.976c9.536-0.317,9.536-0.317,9.861-9.606
		c0.278-7.946,4.627-12.142,12.674-12.198c3.189-0.022,6.382-0.09,9.567,0.032c5.922,0.226,9.732,4.081,10.38,10.016
		c0.405,3.706-1.645,8.34,1.213,10.901c2.579,2.311,7.021,0.496,10.625,0.89c5.971,0.652,9.708,4.453,9.944,10.419
		c0.078,1.971,0.012,3.948,0.012,5.922C351.664,130.195,351.67,130.195,351.676,130.195z"/>
	<path fill="#8E8E8E" d="M243.263,173.955c0.308-0.002,0.617-0.003,0.925-0.005c1.955,2.509,2.596,5.437,2.646,8.527
		c0.047,2.885,0.164,5.781-0.006,8.656c-0.329,5.564-0.301,10.581,5.769,13.791c3.149,1.665,4.952,5.268,5.2,9.179
		c-0.284,0.295-0.568,0.59-0.852,0.885c-5.412,8.778-13.586,14.944-20.809,22.015c-1.628,0.376-3.328,0.675-4.645,1.749
		c-3.169,2.584-5.957,2.29-8.766-0.639c-4.281-4.465-6.855-5.884-3.56-10.995c0.329-0.51,0.565-1.078,0.686-1.676
		c0.327-1.617,0.2-3.179-1.6-3.752c-1.866-0.594-2.783,0.703-3.325,2.254c-0.457,1.307-0.402,2.69-0.413,4.055
		c-0.033,4.397,0.003,8.795-0.035,13.192c-0.019,2.187-0.265,4.251-2.171,5.704c-1.82-0.906-1.856-2.594-1.862-4.283
		c-0.013-3.475-0.116-6.953,0.012-10.423c0.126-3.397-0.713-5.45-4.737-5.393c-3.834,0.054-4.5,2.1-4.425,5.242
		c0.097,4.077,0.034,8.158,0.011,12.237c-0.01,1.798,0.203,3.67-1.292,5.1c-2.241-3.296-2.738-7.013-2.784-10.894
		c-0.152-12.877-0.18-12.877-13.263-13.039c-1.666-0.021-3.33-0.066-4.992-0.235c-2.673-0.271-4.108-1.693-4.296-4.38
		c-0.042-0.604-0.107-1.207-0.139-1.812c-0.462-8.742,0.5-9.894,9.109-9.877c7.835,0.016,15.663-0.305,23.497-0.234
		c1.813,2.76-0.877,3.734-2.102,5.286c-3.919,1.428-8.074,1.028-12.098,1.561c-1.597,1.197-5.191-0.409-4.839,3.469
		c2.875,1.523,5.827,0.74,8.756,0.385c5.486-0.539,7.934-4.932,10.91-8.631c0.575-0.714-0.113-1.425-0.322-2.124
		c0.622-1.952,1.752-2.527,3.543-1.315c0.726-0.556,1.452-1.113,2.178-1.669c1.358-2.666,2.442-5.489,4.906-7.455
		c1.453-1.159,2.811-2.346,4.851-1.586c8.128,4.409,8.93,3.98,10.827-5.492c0.539-2.69,0.886-5.385,0.992-8.121
		C237.15,179.724,239.248,175.958,243.263,173.955z"/>
	<path fill="#8D8D8D" d="M316.655,246.875c-10.18,0-20.366-0.218-30.537,0.089c-5.28,0.16-4.375-3.157-4.502-6.275
		c-0.136-3.32-0.028-5.743,4.625-5.693c20.357,0.22,40.72,0.232,61.077,0.002c5.285-0.06,4.36,3.167,4.49,6.273
		c0.139,3.312,0.053,5.837-4.615,5.698C337.021,246.665,326.835,246.875,316.655,246.875z"/>
	<path fill="#8E8E8E" d="M316.673,223.232c-10.164,0-20.334-0.216-30.488,0.089c-5.2,0.156-4.455-3.045-4.579-6.232
		c-0.132-3.389,0.095-5.748,4.672-5.704c20.325,0.197,40.655,0.214,60.979-0.002c5.189-0.055,4.452,3.072,4.561,6.254
		c0.115,3.35-0.044,5.817-4.658,5.685C337.006,223.032,326.836,223.233,316.673,223.232z"/>
	<path fill="#8F8F8F" d="M317.021,264.59c0.003-5.904,0.126-6.023,6.185-6c5.542,0.021,5.668,0.157,5.65,6.055
		c-0.017,5.614-0.185,5.776-5.991,5.78C317.092,270.429,317.018,270.355,317.021,264.59z"/>
	<path fill="#888888" d="M351.788,265.259c0.906,4.002-1.133,5.483-5.755,5.196c-5.918-0.368-6.003-0.186-5.987-6.262
		c0.015-5.53,0.092-5.6,6.059-5.581C351.808,258.63,351.814,258.636,351.788,265.259z"/>
	<path fill="#FEFEFE" d="M154.78,119.291c0.795,5.338,4.434,9.199,7.016,13.617c1.236,2.115,4.034,4.017,2.434,6.815
		c-1.561,2.731-4.672,1.507-7.118,1.571c-23.168,0.612-43.797-6.667-62.351-20.281c-0.328-7.902,0.993-15.401,5.065-22.335
		c1.627-2.77,3.667-4.084,6.983-4.048c12.31,0.134,24.623-0.012,36.933,0.083c7.013,0.055,9.196,2.427,9.33,9.354
		C153.171,109.188,152.346,114.427,154.78,119.291z"/>
	<path fill="#FEFEFE" d="M183.396,92.805c1.111-2.477,2.222-4.953,3.332-7.43c2.184-4.399,6.908-3.543,10.007-3.353
		c8.008,0.49,16.005,0.688,24.015,0.751c2.261,0.018,3.362,1.049,3.342,3.318c-0.005,0.604-0.04-0.151,0.004,0.455
		c0.624,8.696,0.369,8.946-8.307,8.981c-10.016,0.04-20.031,0.035-30.038-0.476C184.387,94.982,182.208,95.614,183.396,92.805z"/>
	<path fill="#989898" d="M183.396,92.805c0.282,2.287,2.102,1.837,3.506,1.842c10.763,0.041,21.528-0.1,32.289,0.074
		c4.205,0.068,4.17-2.446,4.069-5.34c-0.098-2.796,0.716-5.998-3.961-5.937c-9.397,0.124-18.797,0.05-28.196-0.001
		c-1.804-0.01-3.238,0.56-4.375,1.932c1.324-3.263,7.979-6.501,12.676-5.078c6.6,2,13.221,1.524,19.849,1.47
		c4.377-0.036,5.896,1.712,5.834,5.971c-0.104,7.136-0.745,8.577-5.684,8.64c-11.219,0.143-22.449,0.381-33.63-0.902
		C184.324,95.31,181.885,95.732,183.396,92.805z"/>
	<path fill="#FEFEFE" d="M210.994,207.535c-1.353,0.242-2.544,0.77-3.386,1.916l0.062-0.02c-2.475,1.685-5.191,2.172-8.179,2.092
		c-5.916-0.157-11.851,0.168-17.755-0.138c-4.13-0.214-5.221,1.409-5.096,5.289c0.211,6.531,0.01,6.547,6.452,6.578
		c4.098,0.02,8.21,0.209,12.292-0.05c3.721-0.236,4.616,1.253,4.508,4.78c-0.217,7.123,0.053,14.262,0.122,21.394
		c-4.169-4.324-8.291-8.695-12.529-12.95c-1.803-1.811-3.857-3.365-6.215-4.447c-0.397,0.161-0.81,0.242-1.239,0.246
		c-1.677-0.848-3.567-1.457-4.081-3.618c-8.274-5.828-17.846-8.015-27.552-9.838c-1.18-0.222-2.426-0.363-3.491-0.861
		c-2.133-0.998-2.92-2.87-3.021-5.189c-0.094-2.156,0.901-3.342,2.787-4.142c3.666-1.556,6.929-3.794,9.741-6.583
		c1.739-1.725,3.765-1.697,5.889-1.698c14.858-0.002,29.715-0.004,44.573-0.011C211.865,200.281,212.109,200.567,210.994,207.535z"
		/>
	<path fill="#FEFEFE" d="M212.307,246.895c-0.074-7.588-0.123-15.177-0.233-22.764c-0.043-2.916,1.113-5.034,3.89-6.012
		c2.229-0.784,4.296-0.131,5.769,1.628c1.855,2.213,1.684,4.688,0.536,7.267c-0.706,1.586-3.377,2.77-2.148,4.597
		c1.661,2.468,4.084,4.442,6.282,6.519c0.964,0.911,2.122,0.431,2.787-0.478c1.743-2.38,4.204-2.744,6.852-2.747
		c2.652-0.87,5.143-2.334,8.09-2.103c1.98,0.155,3.657,0.524,2.932,3.158c-0.54,10.651-0.54,10.65-11.084,11.008
		c-0.3,0.01-0.598,0.063-0.897,0.096c-0.333,0.274-0.665,0.273-0.996-0.003C226.828,247.005,219.568,246.95,212.307,246.895z"/>
	<path fill="#8C8C8C" d="M210.423,276.083c0.001,11.383-0.049,22.766,0.037,34.149c0.025,3.262-0.819,5.131-4.578,5.132
		c-3.746,0.001-4.63-1.838-4.596-5.115c0.095-8.954,0.031-17.909,0.03-26.864c1.342-2.332,2.067-5.022,4.32-6.82
		C207.199,275.317,208.647,274.493,210.423,276.083z"/>
	<path fill="#868686" d="M247.065,235.959c-1.283-2.797-3.449-0.53-5.168-0.834c-1.905-0.338-3.899-0.169-5.854-0.221
		c5.489-5.61,10.935-11.263,16.499-16.798c1.257-1.251,2.925-2.089,4.404-3.117c-0.001,2.713,0.013,5.425-0.005,8.138
		C256.899,229.156,253.077,234.112,247.065,235.959z"/>
	<path fill="#838383" d="M210.423,276.083c-3.979,1.257-5.714,5.314-9.107,7.302c-0.209-3.149,0.762-6.559-2.03-9.135
		c-0.229-0.614-0.458-1.227-0.686-1.84c2.61-2.747,5.191-5.522,7.847-8.223c0.815-0.828,1.728-2.046,3.071-1.41
		c1.344,0.636,0.867,2.137,0.888,3.289C210.466,269.404,210.425,272.744,210.423,276.083z"/>
	<path fill="#848484" d="M234.088,247.06c0.332,0.001,0.664,0.002,0.996,0.003c0.045,3.813-4.834,9.218-8.866,9.783
		c-0.743,0.104-1.524,0.184-2.257,0.074c-2.687-0.405-5.898,1.321-7.957-1.323c-0.914-1.173,6.063-7.312,8.691-7.673
		C227.813,247.496,231.056,248.423,234.088,247.06z"/>
	<path fill="#868686" d="M180.396,231.387c0.292,0.198,0.584,0.397,0.875,0.593c2.705,4.669,0.856,7.76-5.718,9.559
		c-1.447-0.935-2.893-1.87-4.34-2.805c-2.071-1.331-3.531-2.764-1.728-5.43c1.798-2.658,3.973-4.551,7.337-3.725
		C178.043,229.879,179.254,230.677,180.396,231.387z"/>
	<path fill="#8B8B8B" d="M180.396,231.387c-4.189-1.891-7.195-0.812-9.418,3.3c-0.884,1.634-0.615,2.743,0.235,4.047
		c-3.589-1.575-7.122-3.299-10.78-4.69c-5.335-2.028-5.539-1.781-4.604,3.986c0.627,3.865,1.672,7.674,1.58,11.637
		c-0.548,1.817-1.943,2.962-3.214,4.258c-8.334,8.493-17.334,16.343-24.815,25.663c-1.772,1.886-0.603,5.688-4.159,6.417
		c-2.06-0.545-3.523,0.101-5.039,1.717c-4.406,4.699-9.091,9.135-13.607,13.732c-1.603,1.631-3.347,2.983-5.557,3.66
		c-7.668-4.515-15.3-9.094-23.025-13.51c-2.664-1.523-2.74-3.087-1.08-5.419c2.537-3.563,4.778-7.339,7.348-10.876
		c1.389-1.912,1.252-3.233-0.685-4.458c1.854-2.203,3.708-4.406,5.562-6.609c3.68-3.35,7.359-6.699,11.039-10.049
		c4.212,1.126,8.237,3.239,12.828,2.342c2.053-0.401,5.508,0.882,5.605-2.064c0.1-3.039-3.465-3.052-5.901-3.637
		c-2.373-0.57-4.931,2.215-7.167-0.423c-0.502-1.366,0.202-2.319,1.1-3.205c11.186-11.044,22.372-22.087,33.557-33.131
		c-0.52,2.12-1.922,3.731-3.129,5.46c-1.973,2.824-0.769,4.123,2.226,4.506c0.447,0.057,0.91,0.098,1.356,0.052
		c10.447-1.078,20.303,2.227,30.36,4.058c1.621,0.295,3.292,0.31,4.941,0.455C177.676,229.144,179.226,229.961,180.396,231.387z"/>
	<path fill="#848484" d="M127.49,278.091c7.806-9.208,16.838-17.22,25.229-25.857c1.29-1.328,2.871-2.177,4.689-2.566
		c0.175,0.418,0.41,0.821,0.515,1.255c2.541,10.547,2.536,10.544-7.131,15.318c-3.113,1.537-6.208,3.111-9.321,4.649
		c-1.388,0.686-2.846,1.294-2.156,3.316c1.511,5.402-0.941,9.226-6.492,10.125c-2.526,1.104-3.416-0.732-4.384-2.436
		C127.768,280.713,128.432,279.202,127.49,278.091z"/>
	<path fill="#828282" d="M101.016,305.115c1.689-4.116,5.459-6.428,8.337-9.497c3.842-4.097,7.906-7.987,11.903-11.937
		c2.275-2.249,3.36-1.529,3.439,1.466c1.489,1.921,0.275,3.844,0.002,5.765c0.978,0.86,1.814,1.95,0.646,3.048
		c-5.972,5.616-10.748,12.516-17.967,16.795c-0.253,0.004-0.507,0.008-0.76,0.012C106.478,307.17,102.932,306.949,101.016,305.115z"
		/>
	<path fill="#FDFDFD" d="M124.697,290.911c-2.231-1.921-0.541-3.843-0.002-5.765c1.603-2.086,1.95-4.669,2.794-7.056
		c2.644,1.339,3.092,4.555,5.333,6.239C131.714,288.498,127.467,288.793,124.697,290.911z"/>
	<path fill="#FEFEFE" d="M117.287,157.549c0.289-3.858-1.787-7.269-2.271-10.982c1.587-0.859,2.8,0.024,4.026,0.438
		c9.667,3.265,19.532,5.511,29.764,5.942c2.212,0.093,4.377,0.239,4.261,3.354c-0.366,9.822,1.065,19.715-1.18,29.462
		c-9.304,15.19-24.594,18.553-38.592,8.652c-2.739-1.937-3.475-3.511-1.558-6.608c3.12-5.04,5.405-10.503,5.614-16.595
		C118.626,166.652,118.669,162.097,117.287,157.549z"/>
	<path fill="#FEFEFE" d="M163.954,188.532c-0.044-1.213-0.088-2.427-0.132-3.64c-2.461-4.8-2.273-6.283,1.059-8.347
		c14.23,0.049,28.46,0.176,42.689,0.092c3.51-0.021,5.068,0.707,4.051,4.626c-0.594,2.291-0.295,4.814-0.398,7.232
		C195.467,188.508,179.711,188.52,163.954,188.532z"/>
	<path fill="#FDFDFD" d="M223.099,194.926c0.008-4.266,0.017-8.532,0.025-12.798c0.385-5.592,4.614-5.952,8.762-6.435
		c3.082,0.478,4.525,2.286,4.39,5.381c-1.506,5.042-0.645,10.21-0.685,15.313c-0.023,2.931-0.956,4.198-3.892,4.023
		c-1.656-0.098-3.325,0.038-4.985-0.027C222.628,200.224,222.174,199.519,223.099,194.926z"/>
	<path fill="#888888" d="M222.282,197.658c-3.037,2.736-6.073,5.472-9.11,8.208c0.048-3.084,0.124-6.092-3.626-7.43
		c-1.736-0.619-1.064-1.921-0.138-2.859c3.18-3.223,6.32-6.495,9.652-9.556c2.139-1.965,3.189-0.901,3.211,1.664
		c0.021,2.415,0.016,4.831,0.023,7.246C222.948,195.843,222.909,196.751,222.282,197.658z"/>
	<path fill="#8A8A8A" d="M234.88,180.357c-1.167-1.168-2.335-2.336-3.502-3.504c-0.243-0.399-0.821-0.529-0.873-1.082
		c1.088-3.337,3.848-5.212,6.376-7.289c2.952,0.863,4.624,3.218,6.382,5.474c-0.625,4.477-4.393,6.442-7.282,9.11
		C235.067,182.385,236.001,180.953,234.88,180.357z"/>
	<path fill="#929292" d="M234.88,180.357c0.367,0.903,0.734,1.805,1.101,2.708c-0.004,3.898,0.011,7.796-0.017,11.693
		c-0.043,6.08-0.538,6.618-6.78,6.523c-2.823-0.043-6.385,0.962-6.903-3.623c0.004-0.909,0.008-1.818,0.012-2.727
		c0.268-0.002,0.537-0.003,0.805-0.005c0.594,5.049,0.849,4.995,7.849,4.899c4.116-0.056,4.219-2.391,4.139-5.358
		C234.961,189.765,234.943,185.06,234.88,180.357z"/>
	<path fill="#929292" d="M230.505,175.77c0.291,0.36,0.582,0.721,0.873,1.082c-4.324-0.701-6.717,1.616-8.253,5.275
		C223.286,175.974,224.511,174.919,230.505,175.77z"/>
	<path fill="#FCFCFC" d="M105.541,250.411c5.26-3.637,10.205-2.103,15.14,0.815c1.363,0.806,2.755,1.354,2.229,3.335
		c-0.475,1.79-0.943,3.771-3.208,3.822c-5.276,0.119-10.559,0.103-15.834-0.031c-2.508-0.064-2.467-2.754-3.691-4.158
		C100.994,251.558,103.894,251.873,105.541,250.411z"/>
	<path fill="#8F8F8F" d="M106.368,170.006c0.422,5.537-1.66,10.088-5.49,13.953C103.09,179.458,105.057,174.861,106.368,170.006z"/>
	<path fill="#FEFEFE" d="M199.096,130.082c6.379,0,12.775,0.278,19.133-0.092c4.692-0.273,5.068,2.083,5.134,5.787
		c0.07,3.951-0.92,5.748-5.316,5.658c-12.146-0.248-24.301-0.144-36.451-0.049c-3.218,0.025-4.857-0.648-5.148-4.448
		c-0.526-6.862-0.85-6.838,6.246-6.839c5.468-0.001,10.936,0,16.404,0C199.096,130.093,199.096,130.088,199.096,130.082z"/>
	<path fill="#8F8F8F" d="M164.881,176.545c-1.874,2.59-0.446,5.598-1.059,8.347c-3.229-0.566-3.127-3.241-3.573-5.594
		c-0.242-1.276-0.149-3.051-2.346-2.266c-1.171,0.419-2.698,2.728-3.007-0.54c-0.193-2.04-0.563-4.496,2.415-5.086
		c1.019-0.202,2.149-0.211,3.164,0.001c5.063,1.057,10.132,1.922,15.34,1.689c0.976-0.044,2.506-0.178,2.442,1.277
		c-0.057,1.284-1.525,1.229-2.559,1.342C172.1,176.106,168.397,175.106,164.881,176.545z"/>
	<path fill="#FEFEFE" d="M318.944,113.652c-0.005,11.07-0.005,11.069,10.979,11.064c1.67-0.001,3.34-0.006,5.009,0.004
		c5.988,0.036,5.812,0.042,5.948,6.119c0.079,3.51-1.033,4.982-4.663,4.789c-4.239-0.226-8.504,0.072-12.747-0.103
		c-3.254-0.134-4.725,0.95-4.572,4.408c0.202,4.545-0.119,9.112,0.06,13.658c0.159,4.052-2.493,3.829-5.14,3.779
		c-2.695-0.051-5.756,0.508-5.674-3.829c0.087-4.552-0.111-9.11,0.004-13.661c0.078-3.083-1.106-4.436-4.269-4.324
		c-4.093,0.145-8.214-0.218-12.29,0.087c-4.456,0.333-5.318-1.83-5.366-5.703c-0.048-3.837,0.982-5.582,5.14-5.28
		c4.379,0.318,8.801-0.007,13.201,0.079c2.533,0.05,3.564-1.077,3.538-3.536c-0.047-4.402,0.264-8.825-0.071-13.201
		c-0.342-4.463,1.713-5.203,5.619-5.285c4.226-0.089,5.822,1.333,5.331,5.473C318.766,109.987,318.944,111.83,318.944,113.652z"/>
	<path fill="#FCFCFC" d="M237.475,211.597c0.603,0,1.209-0.036,1.809,0.006c2.964,0.206,5.692,0.768,6.996,3.982
		c0.92,2.268,0.32,4.179-1.216,5.82c-2.251,2.404-5.23,1.903-8.082,1.746c-1.271-0.07-1.733-0.934-2.012-2.066
		c-0.359-1.461-0.767-2.924-1.32-4.32C231.539,211.435,231.514,211.445,237.475,211.597z"/>
	<path fill="#868686" d="M191.29,213.184c4.557-0.005,9.115-0.01,13.672-0.015c1.479,1.817-0.238,2.526-1.197,3.531
		c-1.909,2.001-3.355,4.502-6.105,5.582c-4.558,0.002-9.115,0.005-13.673,0.007C184.54,217.746,188.54,215.967,191.29,213.184z"/>
	<path fill="#8C8C8C" d="M197.659,222.282c2.006-3.381,6.069-5.113,7.302-9.113c0.903-1.246,1.806-2.491,2.709-3.737
		c0,0-0.062,0.021-0.062,0.02c0.382,0.414,1.115,0.849,1.092,1.24C208.5,214.09,201.321,221.542,197.659,222.282z"/>
	<path fill="#8C8C8C" d="M191.29,213.184c-1.796,3.547-5.583,5.498-7.304,9.105c-0.809-0.373-1.267-1.121-0.726-1.791
		C185.553,217.655,187.335,214.211,191.29,213.184z"/>
	<path fill="#949494" d="M112.183,106.584c4.632-0.933,6.463,0.764,6.232,5.506c-0.167,3.433,2.151,5.902,5.58,5.996
		c3.474,0.096,5.309-2.391,5.985-5.748c0.37-1.84-0.755-4.465,1.443-5.357c2.665-1.082,5.691-0.582,8.547-0.271
		c1.794,0.196,1.843,1.787,1.866,3.161c0.12,7.295-2.201,13.446-8.663,17.422c-6.309,3.883-12.685,3.679-18.828-0.387
		c-6.195-4.1-8.201-10.169-7.814-17.325C106.767,105.217,110.089,106.998,112.183,106.584z"/>
	<path fill="#FDFDFD" d="M143.374,235.029c1.028,6.172,2.082,12.34,3.06,18.52c0.187,1.18-0.599,1.977-1.613,2.495
		c-2.826,1.445-5.638,2.922-8.495,4.305c-1.556,0.753-2.895,0.693-2.161-1.572c2.583-7.97,5.27-15.906,7.918-23.855
		C142.514,234.958,142.944,234.994,143.374,235.029z"/>
	<path fill="#FDFDFD" d="M111.838,285.953c-1.704-4.768-3.094-8.724-4.535-12.66c-0.721-1.97-0.022-2.848,1.997-2.857
		c0.603-0.003,1.206-0.024,1.809-0.036c6.534-0.127,6.592-0.065,4.613,5.999c-0.841,2.576-1.741,5.133-2.649,7.687
		C112.932,284.48,112.605,284.809,111.838,285.953z"/>
	<path fill="#FCFCFC" d="M100.469,291.187c-2.675-1.595-4.713-2.822-6.764-4.028c-1.393-0.819-1.952-1.891-0.921-3.322
		c1.039-1.441,1.625-3.966,3.303-4.005c2.083-0.048,1.889,2.641,2.486,4.197C99.356,286.072,100.49,288.053,100.469,291.187z"/>
	<path fill="#FDFDFD" d="M130.134,231.297c0.245,3.373-1.261,5.581-2.011,7.964c-0.36,1.143-1.343,1.706-2.53,1.188
		c-1.63-0.711-3.809-0.926-4.554-2.643c-0.594-1.369,1.275-1.792,2.198-2.395C125.341,234.036,127.55,232.822,130.134,231.297z"/>
</g>
</svg>
