<?xml version="1.0" encoding="utf-8"?>
<!-- Generator: Adobe Illustrator 17.0.0, SVG Export Plug-In . SVG Version: 6.00 Build 0)  -->
<!DOCTYPE svg PUBLIC "-//W3C//DTD SVG 1.1//EN" "http://www.w3.org/Graphics/SVG/1.1/DTD/svg11.dtd">
<svg version="1.1" id="Capa_1" xmlns="http://www.w3.org/2000/svg" xmlns:xlink="http://www.w3.org/1999/xlink" x="0px" y="0px"
	 width="512px" height="512px" viewBox="0 0 512 512" enable-background="new 0 0 512 512" xml:space="preserve">
<g>
	<path display="none" fill="#FEFEFE" d="M513.5,513.46c-170.932,0-341.863,0-512.897,0c0-170.85,0-341.74,0-512.795
		c170.897,0,341.897,0,512.897,0C513.5,171.503,513.5,342.462,513.5,513.46z M133.524,370.507c-8.667,8.667-17.333,17.334-26,26.001
		c-6.972,7.238-13.945,14.476-20.281,21.053c3.206,3.655,6.538,7.453,10.542,12.02c2.644-3.006,4.838-5.71,7.25-8.202
		c7.107-7.343,14.3-14.602,21.46-21.894c8.667-8.667,17.334-17.334,26.001-26.002c5.275-5.606,10.55-11.212,15.818-16.81
		c-3.266-3.324-6.738-6.858-9.792-9.967C150.093,354.731,141.808,362.619,133.524,370.507z M398.515,223.527
		c6.338-11.278,10.33-23.409,13.094-35.988c2.215-10.679,4.43-21.359,6.644-32.038c0.261-8.672,0.522-17.345,0.783-26.017
		c-2.621-19.713-18.424-34.454-38.066-33.775c-15.222,0.526-30.601,1.845-45.506,4.828c-16.426,3.287-32.32,9.15-47.18,17.162
		c-7.545,4.068-14.675,8.905-21.993,13.394c-3.288,2.228-6.756,4.233-9.829,6.725c-10.028,8.133-20.481,15.846-27.992,26.633
		c-2.651,2.958-5.594,5.707-7.894,8.917c-5.198,7.255-10.078,14.738-15.088,22.128c-3.049,5.485-5.982,11.04-9.222,16.41
		c-0.892,1.479-2.617,3.299-4.099,3.435c-7.215,0.661-14.537,0.333-21.707,1.25c-8.729,1.116-17.343,3.126-26.007,4.749
		c-15.899,4.216-29.596,12.448-42.003,23.032c-6.096,6.667-12.193,13.335-18.289,20.002c-2.834,5.042-5.669,10.083-8.503,15.125
		c0,6.201,0,12.401,0,18.846c17.94-5.749,35.39-11.341,52.839-16.932c4.098-0.491,8.191-1.327,12.297-1.397
		c7.212-0.123,14.431,0.223,21.648,0.372c-4.001,7.998-8.002,15.996-12.003,23.995c-1.117,2.01-2.585,3.916-3.225,6.068
		c-0.416,1.398-0.203,3.716,0.716,4.661c7.155,7.351,14.55,14.468,21.871,21.658c9.441,9.569,19.029,19,28.24,28.785
		c2.995,3.182,5.278,3.236,8.927,1.281c9.166-4.909,18.577-9.361,28.634-14.367c0,6.534,0,12.284,0,18.033
		c-0.524,3.933-0.699,7.952-1.642,11.781c-2.248,9.121-4.859,18.153-7.324,27.22c-3.387,9.837-6.775,19.673-10.332,30.003
		c6.713,0,12.693,0.059,18.67-0.043c1.436-0.024,3.038-0.266,4.265-0.946c10.334-5.733,19.436-13.046,27.368-21.81
		c8.853-8.236,14.911-18.429,20.341-29.061c6.271-11.977,10.149-24.67,11.417-38.145c0.38-7.958,0.966-15.913,1.046-23.874
		c0.035-3.497,0.395-6.145,4.23-7.259c1.37-0.398,2.57-1.386,3.847-2.104c13.478-6.348,25.717-14.634,37.141-24.12
		c3.034-2.519,5.552-5.658,8.307-8.512c0.679-0.664,1.304-1.396,2.044-1.982c11.058-8.748,20.266-19.141,27.736-31.088
		C387.982,241.549,393.248,232.538,398.515,223.527z M170.498,403.49c7.282-7.619,14.563-15.238,21.683-22.688
		c-3.265-3.42-6.676-6.993-9.613-10.07c-10.478,10.048-20.763,19.911-31.047,29.774c-5.649,5.929-11.298,11.858-16.751,17.58
		c3.338,3.539,6.723,7.128,9.738,10.326C153.326,419.956,161.912,411.723,170.498,403.49z M102.524,353.507
		c-5.315,5.596-10.631,11.192-15.678,16.506c3.333,3.563,6.707,7.172,9.536,10.196c9.081-8.651,17.926-17.076,26.77-25.502
		c7.073-7.344,14.146-14.687,20.86-21.658c-3.19-3.534-6.503-7.205-9.354-10.363C123.792,333.108,113.158,343.308,102.524,353.507z
		 M78.783,378.968c-5.392,5.363-10.599,10.542-15.624,15.541c2.946,3.11,6.341,6.695,9.031,9.534
		c5.417-5.388,10.623-10.566,15.648-15.564C84.893,385.387,81.491,381.813,78.783,378.968z M62.491,441.969
		c3.485,3.48,7.066,7.056,10.446,10.431c5.172-5.174,10.294-10.298,15.423-15.43c-3.391-3.355-6.986-6.91-10.288-10.177
		C72.933,431.798,67.741,436.855,62.491,441.969z M111.726,441.199c3.207,3.517,6.678,7.323,9.577,10.503
		c4.93-4.914,9.96-9.927,14.596-14.547c-3.159-3.402-6.602-7.109-9.664-10.406C120.974,431.989,115.839,437.103,111.726,441.199z"/>
	<path fill="#3C89E0" d="M266.29,131.092c7.318-4.489,14.448-9.326,21.993-13.394c14.86-8.012,30.754-13.875,47.18-17.162
		c14.905-2.983,30.284-4.302,45.506-4.828c19.642-0.679,35.445,14.062,38.066,33.775c-5.24,0.023-10.48,0.047-15.72,0.07
		c-3.487-10.546-10.195-17.406-21.748-17.937c-5.596-0.257-11.242,0.386-16.856,0.749c-3.027,0.196-6.036,0.659-9.657,1.07
		c1.337,5.848,2.472,10.817,3.608,15.786c-1.507,0.426-3,1.149-4.523,1.219c-3.807,0.176-7.628,0.055-11.444,0.053
		c-1.154-4.605-2.309-9.21-3.521-14.047c-1.215,0.212-2.329,0.358-3.42,0.603c-16.253,3.646-31.37,10.269-46.191,17.664
		c-5.777-0.738-11.561-1.422-17.326-2.243C270.23,132.186,268.271,131.562,266.29,131.092z"/>
	<path fill="#6A60EE" d="M75.658,279.499c2.834-5.042,5.669-10.083,8.503-15.125c3.199,0.375,6.398,0.756,9.598,1.124
		c2.863,0.33,5.728,0.647,8.592,0.97c-1.629,2.333-3.259,4.666-4.888,6.999c-0.213,0.175-0.426,0.349-0.638,0.524
		c0.318-0.082,0.636-0.165,0.954-0.247c1.754-0.402,3.582-0.609,5.251-1.237c18.057-6.797,36.714-10.296,55.971-8.847
		c8.545,0.643,14.363-1.269,16.559-10.127c0.107-0.431,0.587-0.768,0.894-1.149c6.336,0.042,12.671,0.084,19.007,0.126
		c11.047,10.917,22.102,21.825,33.116,32.775c0.539,0.536,0.719,1.432,1.067,2.161c-6.706,0.348-13.412,0.697-20.118,1.045
		c-7.445-7.23-14.89-14.46-22.465-21.816c-2.919,5.465-5.692,10.657-8.466,15.85c-3.895-0.008-7.805,0.177-11.677-0.121
		c-1.534-0.118-2.986-1.312-4.475-2.015c-7.216-0.149-14.436-0.495-21.648-0.372c-4.106,0.07-8.198,0.906-12.297,1.397
		c-1.64-0.638-3.274-1.815-4.92-1.829C107.605,279.444,91.631,279.499,75.658,279.499z"/>
	<path fill="#824CF5" d="M235.601,370.502c0-5.75,0-11.5,0-18.033c-10.057,5.006-19.468,9.458-28.634,14.367
		c-3.649,1.954-5.932,1.901-8.927-1.281c-9.211-9.786-18.798-19.217-28.24-28.785c6.893-0.421,13.787-0.842,20.68-1.263
		c4.873,4.662,9.745,9.324,14.708,14.073c7.506-3.638,14.912-7.228,22.317-10.818c1.336,0.58,2.658,1.616,4.011,1.66
		c5.75,0.187,11.517-0.093,17.26,0.176c1.943,0.091,3.833,1.299,5.748,1.997c-2.575,1.225-3.127,3.294-3.087,6.032
		c0.106,7.29-0.099,14.584-0.181,21.876C246.038,370.502,240.82,370.502,235.601,370.502z"/>
	<path fill="#5F6AEB" d="M195.46,252.51c-6.336-0.042-12.671-0.084-19.007-0.126c3.215-6.811,6.43-13.622,10.139-21.478
		c-8.649,0.762-16.413,1.104-24.07,2.194c-14.493,2.064-27.525,8.13-39.964,15.593c-1.498-0.731-2.957-1.974-4.502-2.092
		c-3.938-0.302-7.927,0.069-11.87-0.2c-1.286-0.088-2.494-1.32-3.737-2.029c12.407-10.585,26.104-18.816,42.003-23.032
		c1.569,0.72,3.134,2.055,4.708,2.067c19.696,0.14,39.393,0.089,59.09,0.086c-3.85,7.826-7.768,15.62-11.496,23.505
		C195.966,248.666,195.874,250.664,195.46,252.51z"/>
	<path fill="#7B51F3" d="M254.525,342.593c-1.914-0.698-3.805-1.906-5.748-1.997c-5.743-0.269-11.51,0.011-17.26-0.176
		c-1.354-0.044-2.675-1.08-4.011-1.66c6.857-3.538,13.714-7.077,20.859-10.764c-3.614-3.839-7.089-7.53-10.564-11.222
		c6.891-0.422,13.782-0.844,20.673-1.266c3.742,4.938,7.824,4.625,12.632,1.333c2.814-1.927,6.23-2.975,9.375-4.418
		c1.413,0.692,2.806,1.931,4.241,1.981c6.251,0.22,12.517-0.006,18.771,0.175c1.346,0.039,2.663,1.095,3.993,1.683
		c-1.277,0.719-2.477,1.706-3.847,2.104c-3.835,1.114-4.195,3.762-4.23,7.259c-0.08,7.961-0.666,15.916-1.046,23.874
		c-5.244,0-10.487,0-15.731,0c0.38-6.731,0.759-13.462,1.182-20.95C273.515,333.488,264.02,338.041,254.525,342.593z"/>
	<path fill="#4C7CE5" d="M418.253,155.501c-2.215,10.679-4.43,21.359-6.644,32.038c-5.057-0.351-10.113-0.703-15.17-1.054
		c0.705-3.514,1.41-7.027,2.2-10.967c-15.035-2.11-28.538-7.01-39.12-18.052c2.821-0.655,5.612-1.546,8.469-1.91
		c4.496-0.573,9.037-0.79,13.559-1.158c6.418,1.921,12.837,3.843,19.432,5.817c0.749-2.255,1.158-3.484,1.566-4.713
		C407.781,155.501,413.017,155.501,418.253,155.501z"/>
	<path fill="#735AF1" d="M307.487,316.263c-1.33-0.588-2.647-1.644-3.993-1.683c-6.254-0.181-12.52,0.045-18.771-0.175
		c-1.435-0.051-2.829-1.289-4.241-1.981c0.674-0.458,1.301-1.013,2.028-1.361c17.821-8.514,35.198-17.777,50.838-29.987
		c1.632,0.475,3.237,1.202,4.901,1.376c4.883,0.511,9.79,0.802,14.687,1.178c-2.755,2.854-5.274,5.994-8.307,8.512
		C333.204,301.629,320.965,309.915,307.487,316.263z"/>
	<path fill="#9738FC" d="M266.606,416.706c-7.932,8.765-17.034,16.077-27.368,21.81c-1.227,0.681-2.829,0.922-4.265,0.946
		c-5.977,0.102-11.957,0.043-18.67,0.043c3.557-10.33,6.945-20.166,10.332-30.003c5.471,0.05,10.941,0.1,16.412,0.15
		c-0.912,2.687-1.824,5.374-2.736,8.062c0.269,0.159,0.539,0.317,0.808,0.476c2.362-1.774,4.725-3.548,7.087-5.322
		c1.45,0.543,2.872,1.442,4.355,1.556c3.146,0.242,6.35-0.161,9.479,0.174C263.62,414.769,265.088,415.971,266.606,416.706z"/>
	<path fill="#4780E3" d="M266.29,131.092c1.981,0.469,3.939,1.093,5.946,1.379c5.765,0.821,11.549,1.505,17.326,2.243
		c-15.2,9.034-29.292,19.534-42.058,31.788c-5.322-0.334-10.647-0.623-15.962-1.041c-1.044-0.082-2.05-0.661-3.073-1.011
		c7.511-10.787,17.964-18.5,27.992-26.633C259.534,135.325,263.003,133.32,266.29,131.092z"/>
	<path fill="#5870E9" d="M208.251,223.493c-19.697,0.002-39.394,0.054-59.09-0.086c-1.574-0.011-3.139-1.347-4.708-2.067
		c8.664-1.623,17.278-3.633,26.007-4.749c7.17-0.917,14.492-0.589,21.707-1.25c1.482-0.136,3.207-1.956,4.099-3.435
		c3.24-5.37,6.173-10.925,9.222-16.41c4.011,0.335,8.046,0.507,12.02,1.093c1.441,0.212,2.737,1.413,4.098,2.163
		C217.154,206.998,212.702,215.246,208.251,223.493z"/>
	<path fill="#6862EE" d="M352.935,283.631c-4.897-0.377-9.804-0.668-14.687-1.178c-1.663-0.174-3.269-0.901-4.901-1.376
		c10.356-10.534,20.711-21.068,31.067-31.601c6.1,0.362,12.2,0.724,18.301,1.085c-7.47,11.947-16.678,22.34-27.736,31.088
		C354.239,282.235,353.614,282.967,352.935,283.631z"/>
	<path fill="#7A55F3" d="M190.481,335.505c-6.893,0.421-13.787,0.842-20.68,1.263c-7.321-7.189-14.716-14.307-21.871-21.658
		c-0.919-0.944-1.132-3.263-0.716-4.661c0.64-2.152,2.108-4.058,3.225-6.068c1.49,0.705,2.942,1.901,4.477,2.02
		c3.876,0.3,7.79,0.116,11.688,0.125c-1.591,2.633-0.424,4.393,1.544,6.341C175.682,320.324,183.05,327.946,190.481,335.505z"/>
	<path fill="#8E42F9" d="M243.047,409.653c-5.471-0.05-10.941-0.1-16.412-0.15c2.465-9.068,5.076-18.099,7.324-27.22
		c0.944-3.829,1.118-7.848,1.642-11.781c5.218,0,10.437,0,15.655,0C250.963,384.064,247.887,397.044,243.047,409.653z"/>
	<path fill="#8747F7" d="M282.633,349.5c5.244,0,10.487,0,15.731,0c-1.268,13.474-5.146,26.168-11.417,38.145
		c-5.713-0.378-11.425-0.756-17.138-1.134C276.167,374.896,280.391,362.541,282.633,349.5z"/>
	<path fill="#5177E7" d="M221.606,198.751c-1.362-0.75-2.657-1.951-4.098-2.163c-3.974-0.585-8.009-0.757-12.02-1.093
		c5.009-7.39,9.89-14.873,15.088-22.128c2.3-3.21,5.243-5.959,7.894-8.917c1.023,0.35,2.029,0.929,3.073,1.011
		c5.315,0.418,10.641,0.707,15.962,1.041C238.872,177.252,230.239,188.002,221.606,198.751z"/>
	<path fill="#8151F4" d="M102.524,353.507c10.634-10.199,21.268-20.399,32.133-30.821c2.85,3.158,6.164,6.829,9.354,10.363
		c-6.714,6.971-13.787,14.314-20.86,21.658C116.276,354.308,109.4,353.907,102.524,353.507z"/>
	<path fill="#8F45F8" d="M151.521,400.506c10.285-9.863,20.569-19.726,31.047-29.774c2.937,3.077,6.348,6.65,9.613,10.07
		c-7.12,7.45-14.402,15.069-21.683,22.688c-1.433-0.664-2.819-1.749-4.307-1.913C161.321,401.039,156.414,400.837,151.521,400.506z"
		/>
	<path fill="#5572E8" d="M396.439,186.484c5.057,0.351,10.113,0.703,15.17,1.054c-2.764,12.578-6.756,24.71-13.094,35.988
		c-1.546-0.676-3.057-1.813-4.645-1.935c-3.797-0.292-7.63-0.106-11.449-0.113C387.093,209.814,391.766,198.149,396.439,186.484z"/>
	<path fill="#943EFA" d="M126.495,399.485c-7.16,7.292-14.353,14.551-21.46,21.894c-2.412,2.493-4.606,5.197-7.25,8.202
		c-4.005-4.566-7.336-8.364-10.542-12.02c6.336-6.578,13.309-13.815,20.281-21.053c4.891,0.33,9.796,0.532,14.664,1.069
		C123.675,397.741,125.062,398.824,126.495,399.485z"/>
	<path fill="#8C45F8" d="M126.495,399.485c-1.433-0.662-2.819-1.744-4.307-1.908c-4.868-0.536-9.773-0.738-14.664-1.069
		c8.667-8.667,17.333-17.334,26-26.001c4.891,0.331,9.796,0.533,14.664,1.069c1.488,0.164,2.875,1.246,4.308,1.907
		C143.829,382.151,135.162,390.818,126.495,399.485z"/>
	<path fill="#913EFA" d="M269.809,386.511c5.713,0.378,11.425,0.756,17.138,1.134c-5.43,10.632-11.488,20.825-20.341,29.061
		c-1.518-0.735-2.986-1.938-4.565-2.107c-3.129-0.335-6.332,0.067-9.479-0.174c-1.483-0.114-2.905-1.013-4.355-1.556
		C255.407,404.083,262.608,395.297,269.809,386.511z"/>
	<path fill="#6E5DEF" d="M75.658,279.499c15.973,0,31.947-0.055,47.919,0.085c1.645,0.014,3.28,1.191,4.92,1.829
		c-17.449,5.592-34.899,11.183-52.839,16.932C75.658,291.9,75.658,285.699,75.658,279.499z"/>
	<path fill="#5F6AEB" d="M382.421,221.478c3.819,0.007,7.652-0.179,11.449,0.113c1.589,0.122,3.099,1.259,4.645,1.935
		c-5.266,9.011-10.533,18.022-15.799,27.034c-6.1-0.362-12.2-0.724-18.301-1.085C370.417,240.143,376.419,230.811,382.421,221.478z"
		/>
	<path fill="#943EFA" d="M151.521,400.506c4.893,0.331,9.8,0.533,14.67,1.071c1.488,0.164,2.874,1.25,4.307,1.913
		c-8.586,8.233-17.171,16.466-25.99,24.922c-3.015-3.197-6.4-6.787-9.738-10.326C140.222,412.363,145.872,406.435,151.521,400.506z"
		/>
	<path fill="#8747F7" d="M102.524,353.507c6.876,0.4,13.752,0.8,20.628,1.201c-8.844,8.425-17.689,16.851-26.77,25.502
		c-2.829-3.025-6.203-6.633-9.536-10.196C91.893,364.699,97.209,359.103,102.524,353.507z"/>
	<path fill="#824CF5" d="M152.496,373.484c-1.433-0.662-2.82-1.744-4.308-1.907c-4.868-0.536-9.773-0.738-14.664-1.069
		c8.285-7.888,16.57-15.776,24.998-23.801c3.055,3.109,6.527,6.643,9.792,9.967C163.046,362.272,157.771,367.878,152.496,373.484z"
		/>
	<path fill="#6E5DEF" d="M166.604,306.528c-3.899-0.01-7.812,0.175-11.688-0.125c-1.535-0.119-2.987-1.315-4.477-2.02
		c4.001-7.998,8.002-15.996,12.003-23.995c1.489,0.704,2.941,1.897,4.475,2.015c3.873,0.298,7.782,0.113,11.677,0.121
		C174.597,290.525,170.6,298.526,166.604,306.528z"/>
	<path fill="#6565ED" d="M102.45,244.372c1.244,0.709,2.451,1.941,3.737,2.029c3.943,0.269,7.931-0.102,11.87,0.2
		c1.545,0.118,3.004,1.361,4.502,2.092c-6.736,5.925-13.472,11.85-20.209,17.775c-2.864-0.323-5.729-0.64-8.592-0.97
		c-3.2-0.369-6.398-0.749-9.597-1.124C90.257,257.707,96.353,251.039,102.45,244.372z"/>
	<path fill="#4780E3" d="M418.253,155.501c-5.236,0-10.472,0-15.708,0c0.257-8.649,0.513-17.298,0.77-25.947
		c5.24-0.023,10.48-0.047,15.72-0.07C418.775,138.156,418.514,146.828,418.253,155.501z"/>
	<path fill="#8F45F8" d="M78.783,378.968c2.708,2.844,6.111,6.419,9.055,9.511c-5.025,4.998-10.232,10.177-15.648,15.564
		c-2.69-2.84-6.084-6.424-9.031-9.534C68.184,389.511,73.391,384.332,78.783,378.968z"/>
	<path fill="#9E39FD" d="M62.491,441.969c5.25-5.114,10.442-10.171,15.58-15.176c3.303,3.267,6.897,6.822,10.288,10.177
		c-5.13,5.132-10.251,10.256-15.423,15.43C69.557,449.026,65.976,445.45,62.491,441.969z"/>
	<path fill="#9E39FD" d="M111.726,441.199c4.113-4.096,9.248-9.21,14.509-14.449c3.062,3.297,6.504,7.004,9.664,10.406
		c-4.636,4.62-9.666,9.633-14.596,14.547C118.403,448.522,114.933,444.716,111.726,441.199z"/>
	<path fill="#FDFDFE" d="M382.421,221.478c-6.002,9.332-12.004,18.664-18.006,27.997c-10.356,10.534-20.711,21.067-31.067,31.601
		c-15.641,12.21-33.017,21.473-50.838,29.987c-0.727,0.347-1.354,0.902-2.028,1.361c-3.145,1.443-6.561,2.491-9.375,4.418
		c-4.808,3.291-8.889,3.605-12.632-1.333c-9.01-9.129-18.013-18.264-27.055-27.361c-0.411-0.414-1.176-0.475-1.776-0.701
		c-0.347-0.729-0.528-1.625-1.067-2.161c-11.014-10.95-22.069-21.858-33.116-32.775c0.413-1.846,0.506-3.844,1.295-5.512
		c3.728-7.884,7.645-15.678,11.496-23.505c4.452-8.247,8.904-16.495,13.356-24.742c8.633-10.75,17.265-21.499,25.898-32.249
		c12.767-12.253,26.858-22.754,42.058-31.788c14.821-7.395,29.937-14.018,46.191-17.664c1.092-0.245,2.205-0.391,3.42-0.603
		c1.213,4.838,2.367,9.442,3.521,14.047c3.078,10.568,8.507,19.67,16.824,26.97c10.582,11.042,24.085,15.942,39.12,18.052
		c-0.79,3.94-1.495,7.453-2.2,10.967C391.766,198.149,387.093,209.814,382.421,221.478z M354.428,206.499
		c-1.54-10.798-5.731-20.326-13.49-28.142c-21.727-24.704-60.441-25.165-81.954-1.065c-7.027,7.044-11.836,15.282-13.558,25.182
		c-3.516,12.102-2.328,23.802,3,35.148c0.187,0.629,0.3,1.292,0.572,1.881c10.768,23.297,37.503,36.626,62.519,30.655
		c17.378-4.148,30.61-13.955,38.144-30.613C355.131,229.089,356.856,218.094,354.428,206.499z"/>
	<path display="none" fill="#FCFCFE" d="M403.315,129.554c-0.257,8.649-0.513,17.298-0.77,25.947
		c-0.408,1.229-0.817,2.458-1.566,4.713c-6.595-1.974-13.013-3.896-19.432-5.817c-10.323-5.942-17.91-14.371-22.885-25.174
		c-1.136-4.969-2.271-9.938-3.608-15.786c3.621-0.411,6.63-0.875,9.657-1.07c5.615-0.363,11.26-1.007,16.856-0.749
		C393.12,112.148,399.829,119.008,403.315,129.554z"/>
	<path fill="#4780E3" d="M358.662,129.223c4.975,10.803,12.563,19.232,22.885,25.174c-4.522,0.368-9.063,0.585-13.559,1.158
		c-2.858,0.364-5.649,1.255-8.469,1.91c-8.317-7.3-13.746-16.402-16.824-26.97c3.816,0.002,7.637,0.123,11.444-0.053
		C355.662,130.372,357.155,129.649,358.662,129.223z"/>
	<path display="none" fill="#FDFDFE" d="M166.604,306.528c3.996-8.001,7.993-16.002,11.989-24.003
		c2.773-5.192,5.546-10.384,8.466-15.85c7.575,7.356,15.02,14.586,22.465,21.816c9.426,9.428,18.851,18.856,28.277,28.284
		c3.475,3.691,6.95,7.383,10.564,11.222c-7.146,3.687-14.002,7.226-20.859,10.764c-7.405,3.59-14.811,7.179-22.317,10.818
		c-4.962-4.748-9.835-9.41-14.708-14.073c-7.43-7.56-14.799-15.182-22.333-22.637C166.18,310.921,165.014,309.16,166.604,306.528z"
		/>
	<path display="none" fill="#FCFCFE" d="M102.35,266.468c6.736-5.925,13.472-11.85,20.209-17.775
		c12.439-7.463,25.471-13.528,39.964-15.593c7.657-1.091,15.42-1.432,24.07-2.194c-3.709,7.856-6.924,14.667-10.139,21.478
		c-0.307,0.381-0.787,0.719-0.894,1.149c-2.196,8.858-8.014,10.77-16.559,10.127c-19.257-1.449-37.915,2.05-55.971,8.847
		c-1.669,0.628-3.497,0.835-5.251,1.237l-0.316-0.277C99.091,271.134,100.721,268.801,102.35,266.468z"/>
	<path fill="#735AF1" d="M237.801,316.774c-9.426-9.428-18.851-18.856-28.277-28.284c6.706-0.348,13.412-0.697,20.118-1.045
		c0.6,0.226,1.365,0.287,1.776,0.701c9.042,9.097,18.045,18.233,27.055,27.361C251.583,315.93,244.692,316.352,237.801,316.774z"/>
	<path display="none" fill="#FCFCFE" d="M97.778,273.744c-0.318,0.082-0.636,0.165-0.954,0.247c0.213-0.175,0.426-0.349,0.638-0.524
		L97.778,273.744z"/>
	<path display="none" fill="#FCFCFE" d="M269.809,386.511c-7.201,8.786-14.401,17.572-21.602,26.358
		c-2.362,1.774-4.725,3.548-7.087,5.322c-0.269-0.159-0.539-0.317-0.808-0.476c0.912-2.687,1.824-5.374,2.736-8.062
		c4.84-12.609,7.916-25.589,8.21-39.152c0.081-7.292,0.286-14.587,0.181-21.876c-0.04-2.738,0.512-4.807,3.087-6.032
		c9.495-4.552,18.991-9.105,29.29-14.043c-0.422,7.488-0.802,14.219-1.182,20.95C280.391,362.541,276.167,374.896,269.809,386.511z"
		/>
	<path fill="#6565ED" d="M349.66,239.545c-7.534,16.659-20.766,26.465-38.144,30.613c-25.015,5.971-51.751-7.358-62.519-30.655
		c-0.272-0.589-0.385-1.253-0.572-1.881c1.839-0.374,3.664-0.87,5.522-1.096c3.531-0.43,7.081-0.705,10.623-1.045
		c8.608,12.872,20.329,20.303,36.127,19.94c13.319-0.306,23.649-6.665,31.788-16.924C338.21,238.846,343.935,239.195,349.66,239.545
		z"/>
	<path fill="#4C7CE5" d="M258.983,177.291c21.514-24.1,60.227-23.638,81.954,1.065c-5.274,0.381-10.553,0.706-15.82,1.174
		c-1.895,0.168-3.759,0.683-5.637,1.04c-12.496-6.204-25.149-6.785-37.98-1.067c-1.851-0.334-3.689-0.817-5.555-0.975
		C270.297,178.048,264.638,177.694,258.983,177.291z"/>
	<path fill="#5870E9" d="M264.569,235.481c-3.542,0.34-7.092,0.615-10.623,1.045c-1.857,0.226-3.682,0.722-5.522,1.096
		c-5.328-11.347-6.516-23.047-3-35.148c5.334,0.008,10.669,0.017,16.003,0.025C258.015,213.917,259.263,224.892,264.569,235.481z"/>
	<path fill="#5C6CEA" d="M349.66,239.545c-5.725-0.349-11.45-0.699-17.175-1.048c6.089-9.889,8.447-20.497,6.169-31.999
		c5.258,0,10.516,0.001,15.774,0.001C356.856,218.094,355.131,229.089,349.66,239.545z"/>
	<path fill="#5177E7" d="M354.428,206.499c-5.258,0-10.516-0.001-15.774-0.001c-3.063-11.103-9.513-19.702-19.173-25.928
		c1.878-0.357,3.742-0.871,5.637-1.04c5.266-0.468,10.545-0.793,15.82-1.174C348.697,186.173,352.888,195.7,354.428,206.499z"/>
	<path fill="#5177E7" d="M261.428,202.498c-5.334-0.008-10.669-0.017-16.003-0.025c1.722-9.9,6.531-18.138,13.558-25.182
		c5.655,0.403,11.314,0.757,16.963,1.237c1.866,0.158,3.704,0.641,5.555,0.975C272.193,184.883,265.319,192.389,261.428,202.498z"/>
	<path display="none" fill="#FBFCFE" d="M261.428,202.498c3.891-10.109,10.765-17.615,20.073-22.995
		c12.831-5.717,25.484-5.136,37.98,1.067c9.66,6.225,16.11,14.824,19.173,25.928c2.278,11.502-0.081,22.11-6.169,31.999
		c-8.139,10.259-18.469,16.618-31.788,16.924c-15.798,0.363-27.519-7.068-36.127-19.94
		C259.263,224.892,258.015,213.917,261.428,202.498z M323.309,214.499c-1.223-13.585-11.183-23.054-24.07-23.002
		c-11.664,0.047-23.318,9.715-23.547,23.002c-0.506,13.607,10.117,24.878,23.554,24.99
		C312.941,239.603,323.813,228.312,323.309,214.499z"/>
	<path fill="#5C6CEA" d="M323.309,214.499c0.504,13.813-10.368,25.104-24.064,24.99c-13.436-0.112-24.06-11.383-23.554-24.99
		c5.228,0,10.456,0,15.684-0.001c0.805,5.908,3.371,8.829,7.877,8.971c4.682,0.147,7.54-2.916,8.371-8.971
		C312.852,214.499,318.08,214.499,323.309,214.499z"/>
	<path fill="#5572E8" d="M323.309,214.499c-5.229,0-10.457,0-15.686-0.001c-1.176-3.963-3.458-6.823-7.879-6.933
		c-4.667-0.117-7.124,2.754-8.369,6.933c-5.228,0-10.456,0-15.684,0.001c0.229-13.287,11.883-22.955,23.547-23.002
		C312.126,191.444,322.086,200.914,323.309,214.499z"/>
	<path display="none" fill="#FBFCFE" d="M291.375,214.498c1.245-4.179,3.702-7.05,8.369-6.933c4.421,0.111,6.703,2.97,7.879,6.933
		c-0.831,6.054-3.69,9.118-8.371,8.971C294.746,223.327,292.18,220.406,291.375,214.498z"/>
</g>
</svg>
