<?xml version="1.0" standalone="no"?>
<!DOCTYPE svg PUBLIC "-//W3C//DTD SVG 20010904//EN"
 "http://www.w3.org/TR/2001/REC-SVG-20010904/DTD/svg10.dtd">
<svg version="1.0" xmlns="http://www.w3.org/2000/svg"
 width="512.000000pt" height="512.000000pt" viewBox="0 0 512.000000 512.000000"
 preserveAspectRatio="xMidYMid meet">

<g transform="translate(0.000000,512.000000) scale(0.100000,-0.100000)"
fill="#000000" stroke="none">
<path d="M1688 3643 c34 -2 88 -2 120 0 31 2 3 3 -63 3 -66 0 -92 -1 -57 -3z"/>
<path d="M2238 3643 c23 -2 59 -2 80 0 20 2 1 4 -43 4 -44 0 -61 -2 -37 -4z"/>
<path d="M2748 3643 c23 -2 61 -2 85 0 23 2 4 4 -43 4 -47 0 -66 -2 -42 -4z"/>
<path d="M3073 3643 c71 -2 183 -2 250 0 67 1 10 3 -128 3 -137 0 -192 -2
-122 -3z"/>
<path d="M3888 3643 c23 -2 61 -2 85 0 23 2 4 4 -43 4 -47 0 -66 -2 -42 -4z"/>
<path d="M4408 3643 c23 -2 59 -2 80 0 20 2 1 4 -43 4 -44 0 -61 -2 -37 -4z"/>
<path d="M4898 3643 c23 -2 59 -2 80 0 20 2 1 4 -43 4 -44 0 -61 -2 -37 -4z"/>
<path d="M1634 3603 c2 -10 16 -99 30 -198 50 -346 56 -390 65 -420 7 -27 3
-37 -39 -90 -69 -87 -161 -230 -210 -327 l-44 -85 -150 -7 c-220 -10 -365 -44
-528 -126 -203 -101 -387 -270 -489 -446 -27 -48 -29 -59 -29 -152 l0 -100
237 79 c131 43 273 86 317 94 72 14 316 21 316 10 0 -3 -36 -78 -81 -167 l-81
-161 280 -279 279 -280 161 81 c89 45 164 81 167 81 11 0 4 -244 -10 -316 -8
-44 -51 -186 -94 -316 l-79 -238 105 0 106 0 81 54 c261 174 442 441 507 751
11 50 22 157 26 241 l6 151 66 33 c100 49 218 122 316 196 l88 66 131 -21 c72
-12 149 -22 171 -23 l39 -3 80 -523 80 -522 793 0 793 0 0 80 0 80 -80 0 -80
0 0 240 0 240 -80 0 -80 0 0 -240 0 -240 -80 0 -80 0 0 160 0 160 -80 0 -80 0
0 -160 0 -160 -80 0 -80 0 0 320 0 320 -80 0 -80 0 0 -320 0 -320 -80 0 -80 0
0 240 0 240 -80 0 -80 0 0 -240 0 -240 -87 0 -88 0 -64 418 c-35 229 -65 429
-68 443 -5 26 -4 26 68 33 766 71 1394 676 1499 1443 12 93 15 307 4 413 l-7
70 -77 0 -77 0 10 -67 c15 -109 2 -403 -22 -508 -134 -593 -569 -1032 -1161
-1172 -128 -30 -391 -42 -510 -24 -41 7 -76 14 -78 16 -3 2 21 32 53 67 31 35
84 100 118 145 l60 82 76 6 c42 3 117 13 166 21 480 82 875 478 961 964 18
103 20 294 3 395 l-12 75 -77 0 -77 0 14 -72 c21 -107 12 -348 -17 -453 -26
-96 -92 -240 -149 -323 -151 -222 -401 -385 -671 -436 -131 -25 -126 -30 -75
74 24 50 58 131 76 181 19 53 39 93 48 96 99 31 234 126 309 216 150 181 204
444 136 661 l-18 56 -82 0 -82 0 26 -62 c19 -48 26 -87 30 -163 5 -123 -8
-192 -55 -288 -39 -78 -141 -190 -201 -221 -32 -17 -34 -17 -28 1 16 49 36
247 37 356 1 142 -17 204 -81 286 -76 95 -52 91 -503 91 -373 0 -395 -1 -399
-18 -4 -12 -35 -29 -94 -52 -49 -18 -131 -52 -181 -76 l-93 -43 0 27 c1 15 7
57 14 95 l13 67 -77 0 -77 0 -12 -72 c-6 -40 -12 -104 -12 -141 l-2 -68 -74
-55 c-40 -30 -109 -86 -152 -124 l-79 -69 -6 27 c-12 48 -18 365 -9 435 l10
67 -114 0 c-104 0 -114 -2 -109 -17z m1784 -116 c23 -15 54 -46 69 -69 25 -37
28 -53 32 -136 1 -53 0 -128 -4 -169 l-7 -73 -33 0 c-93 0 -247 78 -319 161
-65 76 -116 196 -116 276 0 39 9 41 201 39 130 -1 137 -2 177 -29z m-524 -63
c15 -128 94 -274 202 -373 94 -86 261 -161 357 -161 27 0 28 -2 22 -32 -4 -18
-25 -87 -46 -152 -90 -276 -247 -532 -448 -736 -172 -172 -323 -275 -638 -433
l-223 -112 -347 348 -348 347 117 233 c64 127 143 273 176 322 250 377 615
646 1052 776 52 15 100 28 106 28 6 1 14 -24 18 -55z m-1544 -1109 c0 -3 -34
-74 -77 -158 l-76 -154 -181 -6 c-197 -7 -293 -23 -459 -77 -55 -17 -101 -29
-104 -26 -8 8 70 98 140 162 139 125 312 212 497 249 62 13 260 20 260 10z
m317 -647 c167 -167 303 -306 303 -310 0 -9 -414 -218 -432 -218 -17 0 -398
381 -398 397 0 18 208 433 217 433 5 0 144 -136 310 -302z m650 -440 c-10
-231 -102 -456 -258 -632 -48 -55 -159 -150 -166 -142 -2 2 11 53 30 113 55
168 68 250 74 449 l6 181 151 76 c83 42 155 76 160 76 5 1 6 -52 3 -121z"/>
<path d="M2410 3029 c-210 -22 -393 -177 -461 -389 -28 -89 -28 -230 0 -320
75 -238 283 -392 531 -392 309 0 550 239 552 548 1 157 -51 283 -162 394 -125
125 -278 178 -460 159z m240 -185 c83 -39 155 -111 194 -194 29 -60 31 -73 31
-170 0 -98 -2 -110 -32 -170 -41 -83 -110 -152 -193 -193 -60 -30 -72 -32
-170 -32 -98 0 -110 2 -170 32 -84 41 -155 111 -194 193 -29 60 -31 73 -31
170 0 97 2 110 31 170 72 152 203 231 374 227 83 -2 103 -6 160 -33z"/>
<path d="M2418 2706 c-205 -56 -235 -337 -45 -435 135 -69 304 10 336 159 37
171 -122 322 -291 276z m119 -168 c51 -48 15 -138 -56 -138 -47 0 -81 32 -81
79 0 72 84 109 137 59z"/>
<path d="M587 1172 l-237 -237 53 -53 52 -52 238 238 237 237 -53 53 -52 52
-238 -238z"/>
<path d="M707 812 l-357 -357 53 -53 52 -52 358 358 357 357 -53 53 -52 52
-358 -358z"/>
<path d="M1067 692 l-237 -237 53 -53 52 -52 238 238 237 237 -53 53 -52 52
-238 -238z"/>
<path d="M187 772 l-77 -78 53 -52 53 -52 77 78 77 78 -53 52 -53 52 -77 -78z"/>
<path d="M186 294 l-78 -77 56 -56 56 -56 77 78 78 77 -55 55 -55 55 -79 -76z"/>
<path d="M666 294 l-78 -77 56 -56 56 -56 77 78 78 77 -55 55 -55 55 -79 -76z"/>
</g>
</svg>
