<?xml version="1.0" standalone="no"?>
<!DOCTYPE svg PUBLIC "-//W3C//DTD SVG 20010904//EN"
 "http://www.w3.org/TR/2001/REC-SVG-20010904/DTD/svg10.dtd">
<svg version="1.0" xmlns="http://www.w3.org/2000/svg"
 width="409.000000pt" height="409.000000pt" viewBox="0 0 409.000000 409.000000"
 preserveAspectRatio="xMidYMid meet">

<g transform="translate(0.000000,409.000000) scale(0.100000,-0.100000)"
fill="#000000" stroke="none">
<path d="M3952 3285 c-31 -26 -32 -29 -32 -103 l1 -77 49 54 c51 56 64 91 33
91 -15 0 -16 2 -3 10 10 7 12 12 4 18 -6 4 -13 13 -15 21 -4 10 -13 6 -37 -14z"/>
<path d="M1678 3143 c23 -2 61 -2 85 0 23 2 4 4 -43 4 -47 0 -66 -2 -42 -4z"/>
<path d="M128 3072 l-47 -47 16 -62 15 -63 52 1 c49 2 49 2 13 8 l-38 6 31 35
c30 33 31 38 25 90 -11 84 -15 86 -67 32z"/>
<path d="M977 3113 c-10 -9 -9 -63 1 -63 10 0 62 53 62 63 0 9 -54 9 -63 0z"/>
<path d="M1578 3084 c-3 -5 1 -22 8 -39 10 -22 13 -25 13 -10 -1 28 -14 61
-21 49z"/>
<path d="M774 3002 c-22 -23 -50 -42 -62 -42 -11 0 -29 -11 -40 -25 -17 -22
-28 -25 -80 -25 -34 0 -63 -3 -65 -7 -3 -5 26 -6 65 -5 49 3 68 0 64 -7 -4 -6
-39 -11 -81 -11 l-73 0 -19 -47 c-27 -71 -22 -163 11 -213 38 -58 88 -93 158
-111 l63 -16 3 -117 c2 -98 0 -117 -13 -122 -20 -8 -147 89 -215 163 -108 118
-241 338 -260 428 -5 28 -9 30 -53 33 -57 4 -58 -2 -23 -104 33 -96 82 -196
141 -284 65 -99 219 -251 328 -325 l87 -59 0 -98 c0 -85 -3 -101 -20 -118 -11
-11 -27 -20 -36 -20 -8 0 -48 -15 -89 -34 -190 -88 -325 -220 -413 -404 -79
-167 -82 -194 -82 -824 l0 -548 765 0 765 0 0 275 c0 175 4 275 10 275 5 0 63
-46 127 -101 180 -155 259 -192 408 -191 220 0 404 145 460 359 11 40 15 109
15 230 l0 173 288 1 c158 1 442 2 632 3 381 1 381 1 441 68 52 57 52 55 46
921 -4 441 -7 803 -7 805 0 1 -22 2 -48 2 l-49 0 -6 -257 c-4 -141 -7 -509 -7
-819 l0 -563 -26 -20 c-27 -21 -32 -21 -643 -19 l-616 3 -5 380 c-4 335 -7
384 -22 412 -19 34 -58 69 -89 78 -17 6 -19 17 -19 130 0 138 -7 165 -53 213
-59 62 -62 62 -471 62 l-372 0 0 73 1 72 327 2 c220 1 339 5 363 13 53 18 77
70 73 163 l-3 72 -50 8 c-83 13 -211 20 -202 11 5 -5 41 -11 80 -14 l72 -5 3
-64 c2 -37 -1 -67 -7 -71 -14 -8 -531 -11 -532 -2 -1 4 -3 24 -4 44 -2 21 -12
51 -22 68 -18 31 -46 37 -101 22 l-22 -7 25 -37 c30 -44 31 -59 7 -81 -15 -13
-39 -17 -115 -17 -53 0 -98 4 -101 9 -3 4 -38 12 -78 15 -92 9 -190 38 -295
87 -46 22 -96 39 -112 39 -16 0 -33 5 -37 11 -5 8 1 10 19 7 15 -3 24 -1 21 3
-3 5 -14 9 -25 9 -10 0 -19 7 -19 15 0 7 -8 18 -17 23 -9 6 -19 28 -22 53 l-6
43 -41 -42z m20 -147 c33 -19 56 -45 87 -98 54 -89 81 -146 74 -157 -3 -5 -1
-11 4 -14 5 -3 8 -45 6 -93 -2 -65 -8 -104 -26 -148 -27 -67 -48 -78 -89 -46
-24 19 -25 24 -28 160 l-4 141 -74 0 c-45 0 -74 4 -74 11 0 5 -4 8 -9 5 -13
-8 -59 31 -76 64 -19 37 -19 103 0 140 32 62 133 79 209 35z m311 -158 c17 -5
46 -16 65 -23 52 -20 168 -40 222 -39 26 1 45 -2 42 -7 -3 -4 9 -8 25 -8 l31
0 0 -122 c-1 -236 -40 -323 -169 -381 -85 -37 -227 -12 -313 56 -23 19 -23 26
8 80 62 112 80 258 44 362 -26 75 -27 110 -2 100 9 -4 31 -12 47 -18z m864
-337 l157 0 -2 -47 c-1 -27 -3 -56 -3 -65 -1 -17 -21 -18 -271 -18 -148 0
-270 3 -270 7 0 3 5 36 11 71 l12 65 105 -7 c58 -3 175 -6 261 -6z m387 -15
c24 -24 25 -29 22 -132 l-3 -108 -67 -3 -68 -3 0 120 c0 113 1 121 22 135 32
23 65 20 94 -9z m-1435 -245 c89 -69 144 -95 234 -111 36 -6 65 -16 65 -23 0
-6 3 -21 6 -32 5 -19 -9 -30 -96 -83 -56 -34 -105 -61 -109 -59 -3 2 -48 28
-98 58 l-93 54 0 128 c0 70 3 128 7 128 3 0 41 -27 84 -60z m1199 -32 c-1 -40
-4 -45 -46 -70 -44 -27 -49 -28 -195 -28 l-149 0 0 -60 0 -60 130 0 130 0 0
-145 c0 -80 -4 -145 -9 -145 -5 0 -16 11 -24 24 -45 67 -176 174 -277 226 -67
34 -177 70 -239 77 -67 8 -101 36 -101 85 0 30 5 35 44 51 24 10 61 33 83 52
l38 34 308 1 307 0 0 -42z m364 -104 c9 -9 16 -32 16 -54 0 -50 -27 -70 -92
-70 -46 0 -48 1 -48 28 0 15 -9 42 -20 60 -11 18 -20 37 -20 42 0 17 146 12
164 -6z m-262 -71 c24 -21 23 -74 -1 -105 l-20 -25 45 -44 45 -44 17 21 c14
19 30 23 105 26 l87 4 0 -68 0 -68 -195 0 -195 0 0 140 c0 127 2 142 20 160
24 24 67 26 92 3z m-1343 -149 c35 -21 61 -43 61 -53 0 -17 -86 -58 -98 -47
-10 11 -42 99 -42 119 0 24 11 22 79 -19z m351 13 c0 -27 -32 -107 -43 -107
-28 0 -77 26 -77 41 0 9 21 30 48 47 52 33 72 39 72 19z m394 -52 c139 -67
238 -170 317 -330 l49 -100 0 -222 0 -223 60 0 60 0 0 320 0 320 195 0 196 0
-3 -382 -3 -383 -26 -55 c-37 -78 -88 -131 -161 -170 -56 -30 -74 -35 -153
-38 -85 -3 -94 -2 -158 30 -44 22 -123 81 -232 173 l-165 140 0 148 0 147 -60
0 -60 0 -2 -447 -3 -448 -192 -3 -193 -2 0 369 0 370 170 102 170 102 -17 26
c-9 14 -37 56 -61 94 -25 37 -43 69 -41 71 2 2 55 29 116 60 107 53 112 57
108 83 -56 317 -55 298 -13 289 17 -3 63 -22 102 -41z m-241 -62 c28 -157 33
-142 -53 -184 -41 -20 -77 -35 -79 -33 -8 7 95 304 105 304 7 0 19 -37 27 -87z
m-668 10 c11 -32 29 -83 41 -113 31 -79 37 -110 22 -110 -7 0 -41 15 -76 33
-56 29 -63 35 -58 57 3 14 11 62 18 108 6 45 17 82 23 82 6 0 19 -26 30 -57z
m-165 30 c0 -5 -9 -60 -20 -123 -11 -63 -20 -120 -20 -125 0 -6 33 -25 73 -44
39 -18 91 -44 114 -57 l43 -25 -60 -89 c-33 -49 -60 -91 -60 -94 0 -3 77 -51
170 -107 l170 -102 0 -368 0 -369 -190 0 -190 0 -2 448 -3 447 -62 3 -63 3 0
-451 0 -450 -131 0 -130 0 3 518 3 517 26 77 c51 151 135 268 253 355 57 42
76 51 76 36z m594 -153 c5 -5 4 -21 -4 -39 l-12 -31 -109 0 c-108 0 -110 0
-119 26 -6 14 -10 29 -10 33 0 5 30 22 68 38 l67 30 55 -24 c30 -13 59 -28 64
-33z m-59 -211 c-32 -99 -53 -153 -61 -156 -6 -2 -24 34 -40 79 -16 45 -30 86
-32 90 -2 4 29 8 68 8 68 0 71 -1 65 -21z m150 -106 c14 -21 25 -42 25 -48 -1
-12 -86 -65 -106 -65 -19 0 -18 8 7 85 12 36 28 65 35 65 7 0 25 -17 39 -37z
m-361 -8 c18 -42 31 -105 22 -105 -12 0 -106 55 -106 63 0 15 45 77 57 77 7 0
19 -16 27 -35z"/>
<path d="M1497 3003 c-7 -11 42 -113 54 -113 8 0 -28 97 -42 113 -4 5 -9 5
-12 0z"/>
<path d="M1601 3003 c-2 -23 11 -42 25 -36 18 7 18 23 0 23 -8 0 -17 6 -19 13
-4 8 -6 8 -6 0z"/>
<path d="M2227 2980 c18 -4 44 -15 57 -24 39 -25 55 -18 21 9 -22 18 -41 25
-70 24 l-40 -1 32 -8z"/>
<path d="M1118 2903 c23 -2 59 -2 80 0 20 2 1 4 -43 4 -44 0 -61 -2 -37 -4z"/>
<path d="M1743 2903 c65 -2 168 -2 230 0 62 1 9 3 -118 3 -126 0 -177 -2 -112
-3z"/>
<path d="M2318 2903 c6 -2 18 -2 25 0 6 3 1 5 -13 5 -14 0 -19 -2 -12 -5z"/>
<path d="M3943 2903 c15 -2 39 -2 55 0 15 2 2 4 -28 4 -30 0 -43 -2 -27 -4z"/>
<path d="M3533 2850 c0 -25 2 -35 4 -22 2 12 2 32 0 45 -2 12 -4 2 -4 -23z"/>
<path d="M3310 2784 c0 -14 3 -15 18 -3 9 7 19 15 21 16 2 2 -5 3 -17 3 -14 0
-22 -6 -22 -16z"/>
<path d="M3293 2630 c0 -36 2 -50 4 -32 2 17 2 47 0 65 -2 17 -4 3 -4 -33z"/>
<path d="M3151 2604 c0 -11 3 -14 6 -6 3 7 2 16 -1 19 -3 4 -6 -2 -5 -13z"/>
<path d="M3333 2603 c15 -2 37 -2 50 0 12 2 0 4 -28 4 -27 0 -38 -2 -22 -4z"/>
<path d="M3303 2569 c-6 -6 -38 -9 -77 -7 -36 1 -66 0 -66 -4 0 -16 -43 -46
-57 -41 -25 10 -9 -20 18 -34 28 -15 177 -17 213 -3 26 10 49 39 61 78 6 20 3
22 -37 22 -24 0 -49 -5 -55 -11z"/>
<path d="M2897 1963 c-4 -3 -7 -30 -7 -60 l0 -53 380 0 381 0 -3 58 -3 57
-371 3 c-204 1 -373 -1 -377 -5z"/>
<path d="M2890 1656 l0 -61 380 0 380 0 0 62 0 63 -380 -2 -380 -1 0 -61z"/>
<path d="M3270 1400 l0 -60 60 0 60 0 0 60 0 60 -60 0 -60 0 0 -60z"/>
<path d="M3530 1400 l0 -60 60 0 60 0 0 60 0 60 -60 0 -60 0 0 -60z"/>
</g>
</svg>
