<?xml version="1.0" standalone="no"?>
<!DOCTYPE svg PUBLIC "-//W3C//DTD SVG 20010904//EN"
 "http://www.w3.org/TR/2001/REC-SVG-20010904/DTD/svg10.dtd">
<svg version="1.0" xmlns="http://www.w3.org/2000/svg"
 width="409.000000pt" height="409.000000pt" viewBox="0 0 409.000000 409.000000"
 preserveAspectRatio="xMidYMid meet">

<g transform="translate(0.000000,409.000000) scale(0.100000,-0.100000)"
fill="#000000" stroke="none">
<path d="M1247 3423 c18 -2 50 -2 70 0 21 2 7 4 -32 4 -38 0 -55 -2 -38 -4z"/>
<path d="M1843 3328 l-30 -33 37 -32 37 -32 34 35 34 35 -34 29 c-19 17 -37
30 -40 30 -4 0 -21 -15 -38 -32z"/>
<path d="M257 3192 l-47 -48 0 -77 0 -77 50 52 50 53 0 73 c0 39 -1 72 -3 72
-1 0 -24 -22 -50 -48z"/>
<path d="M2382 3077 l-164 -164 40 -31 c33 -27 42 -30 51 -18 10 12 8 15 -11
19 -18 3 -16 5 9 6 41 1 52 18 16 24 -27 4 -27 4 -5 12 12 4 22 12 22 17 0 5
40 50 89 101 120 125 181 190 181 194 0 1 -15 3 -33 3 -28 0 -51 -19 -195
-163z"/>
<path d="M3145 3190 l-49 -50 75 0 75 0 49 50 49 50 -75 0 -75 0 -49 -50z"/>
<path d="M3865 3190 l-49 -50 76 0 76 0 31 39 c17 21 31 44 31 50 0 7 -22 11
-58 11 -56 0 -59 -1 -107 -50z"/>
<path d="M927 3142 c-36 -37 -36 -38 -21 -67 8 -17 23 -38 31 -48 15 -16 18
-15 50 20 35 41 39 48 23 58 -6 3 -18 22 -28 41 l-18 34 -37 -38z"/>
<path d="M1573 3069 c-149 -135 -167 -161 -60 -91 29 19 50 25 95 25 50 -1 61
3 90 30 17 17 32 34 32 39 0 4 -12 14 -27 21 -63 32 -68 31 -130 -24z"/>
<path d="M3640 2973 c-14 -10 -33 -28 -43 -40 -18 -23 -22 -23 -228 -23 -133
0 -209 -4 -209 -10 0 -16 593 -21 607 -6 4 5 2 11 -4 13 -9 3 -8 11 3 29 9 13
14 31 10 39 -8 22 -104 20 -136 -2z"/>
<path d="M2860 2920 c0 -5 -18 -10 -40 -10 -23 0 -40 -5 -40 -11 0 -7 10 -9
25 -7 13 3 22 1 19 -3 -3 -5 -14 -9 -25 -9 -10 0 -20 -1 -20 -2 -1 -2 -4 -93
-8 -203 l-6 -200 -56 -3 -57 -3 -6 -37 c-10 -61 -10 -61 57 -64 l62 -3 0 -773
0 -772 60 0 60 0 0 772 0 773 63 3 62 3 0 49 0 49 -62 3 -63 3 -3 228 c-1 140
-6 227 -12 227 -6 0 -10 -4 -10 -10z"/>
<path d="M210 2900 c0 -5 23 -10 50 -10 28 0 50 5 50 10 0 6 -22 10 -50 10
-27 0 -50 -4 -50 -10z"/>
<path d="M980 2900 c0 -12 77 -12 105 0 14 6 2 9 -42 9 -36 1 -63 -3 -63 -9z"/>
<path d="M1150 2900 c14 -4 57 -8 95 -8 39 0 81 4 95 8 15 5 -21 8 -95 8 -74
0 -110 -3 -95 -8z"/>
<path d="M1750 2900 c0 -5 20 -10 45 -10 25 0 45 5 45 10 0 6 -20 10 -45 10
-25 0 -45 -4 -45 -10z"/>
<path d="M2010 2900 c0 -5 20 -10 45 -10 25 0 45 5 45 10 0 6 -20 10 -45 10
-25 0 -45 -4 -45 -10z"/>
<path d="M3930 2900 c0 -5 23 -10 50 -10 28 0 50 5 50 10 0 6 -22 10 -50 10
-27 0 -50 -4 -50 -10z"/>
<path d="M209 2695 c-1 -102 -2 -188 -3 -192 -5 -25 -22 -33 -72 -33 l-54 0 0
-49 0 -48 60 -7 60 -7 0 -769 0 -770 58 0 57 0 0 773 0 772 63 3 62 3 0 48 c0
55 -9 61 -87 61 l-43 0 0 200 0 200 -50 0 -50 0 -1 -185z"/>
<path d="M965 2823 c-21 -67 -62 -135 -105 -177 -17 -16 -30 -32 -30 -35 0 -4
32 -38 70 -76 l70 -69 0 -77 c0 -126 40 -204 129 -252 28 -16 65 -27 86 -27
38 0 38 0 32 -36 -9 -56 -50 -100 -130 -141 -257 -129 -413 -314 -478 -568
-20 -80 -23 -115 -23 -315 l-1 -225 958 -3 957 -2 0 204 c0 229 -13 322 -61
447 -38 100 -95 187 -178 272 -77 81 -122 113 -251 182 -78 42 -100 59 -122
96 -27 43 -27 49 -29 199 -1 115 2 155 11 158 33 11 88 74 99 114 7 24 19 53
27 65 64 100 101 192 111 271 l6 52 -52 0 c-37 0 -51 -4 -51 -14 0 -8 -6 -17
-12 -20 -9 -4 -10 -8 -2 -11 6 -3 9 -17 6 -30 -2 -14 -9 -22 -15 -18 -6 3 -7
1 -3 -5 5 -9 -24 -83 -40 -101 -2 -2 -22 4 -44 14 -44 20 -49 29 -52 120 l-3
60 -47 3 -48 3 0 -125 0 -126 35 0 c66 0 108 -74 71 -125 -9 -12 -31 -21 -62
-24 l-49 -6 0 -210 c0 -209 0 -210 28 -266 15 -31 27 -60 27 -65 0 -11 -71
-56 -120 -75 -23 -9 -74 -14 -145 -14 -113 0 -143 8 -232 66 -29 17 -29 23 2
82 13 27 27 68 30 91 l7 43 116 18 c153 23 152 23 141 81 -5 26 -11 49 -13 51
-2 3 -90 -10 -195 -27 -108 -18 -202 -29 -217 -26 -15 4 -39 20 -55 36 -28 28
-29 31 -29 131 l0 103 -60 61 -61 61 19 25 c32 41 54 91 68 154 19 86 20 85
-29 85 l-43 0 -19 -57z m402 -1074 c48 -19 77 -23 173 -23 133 0 188 17 295
88 l63 43 69 -36 c98 -52 150 -91 214 -158 148 -155 199 -300 199 -570 l0
-153 -130 0 -130 0 0 190 0 190 -65 0 -65 0 0 -190 0 -190 -450 0 -450 0 0
195 0 195 -60 0 -60 0 0 -195 0 -195 -136 0 -136 0 5 178 c4 149 8 190 29 257
58 194 178 335 377 443 l74 40 62 -43 c35 -24 89 -53 122 -66z"/>
<path d="M3160 2681 l0 -48 88 -6 c48 -3 187 -3 310 0 l222 6 -2 49 -3 48
-307 0 -308 0 0 -49z"/>
<path d="M3930 2681 l0 -49 50 -4 50 -3 0 53 0 52 -50 0 -50 0 0 -49z"/>
<path d="M3155 2468 c-4 -9 -5 -35 -3 -58 l3 -41 312 -2 313 -2 0 53 0 52
-203 0 c-112 0 -252 3 -310 7 -91 5 -107 4 -112 -9z"/>
<path d="M3927 2473 c-4 -3 -7 -28 -7 -55 l0 -48 55 0 55 0 0 49 c0 35 -4 51
-16 55 -21 8 -79 8 -87 -1z"/>
<path d="M3156 2204 c-3 -9 -6 -33 -6 -55 l0 -39 315 0 315 0 0 55 0 55 -309
0 c-272 0 -310 -2 -315 -16z"/>
<path d="M3927 2214 c-4 -4 -7 -29 -7 -56 l0 -48 61 0 60 0 -3 53 -3 52 -50 3
c-28 2 -54 0 -58 -4z"/>
<path d="M3150 620 l0 -60 60 0 60 0 0 60 0 60 -60 0 -60 0 0 -60z"/>
<path d="M3410 620 l0 -60 60 0 60 0 0 60 0 60 -60 0 -60 0 0 -60z"/>
<path d="M3660 620 l0 -60 65 0 66 0 -3 60 -3 60 -62 0 -63 0 0 -60z"/>
<path d="M834 477 c-2 -7 -3 -67 -2 -133 l3 -119 63 -3 62 -3 0 136 0 135 -60
0 c-41 0 -62 -4 -66 -13z"/>
<path d="M1099 383 c-1 -60 -2 -119 -3 -133 -1 -24 2 -25 62 -28 l62 -3 0 136
0 135 -60 0 -60 0 -1 -107z"/>
<path d="M1860 355 l0 -135 65 0 65 0 0 135 0 135 -65 0 -65 0 0 -135z"/>
<path d="M2120 355 l0 -135 65 0 65 0 0 135 0 135 -65 0 -65 0 0 -135z"/>
<path d="M320 365 l0 -65 65 0 65 0 0 65 0 65 -65 0 -65 0 0 -65z"/>
<path d="M580 365 l0 -65 65 0 65 0 0 65 0 65 -65 0 -65 0 0 -65z"/>
<path d="M1350 365 l0 -66 63 3 62 3 3 63 3 62 -66 0 -65 0 0 -65z"/>
<path d="M1610 365 l0 -65 60 0 60 0 0 65 0 65 -60 0 -60 0 0 -65z"/>
<path d="M2380 365 l0 -65 60 0 60 0 0 65 0 65 -60 0 -60 0 0 -65z"/>
<path d="M2634 416 c-3 -7 -4 -35 -2 -62 l3 -49 63 -3 62 -3 0 66 0 65 -60 0
c-42 0 -62 -4 -66 -14z"/>
<path d="M3150 368 l0 -63 125 -3 125 -2 0 65 0 65 -125 0 -125 0 0 -62z"/>
<path d="M3540 365 l0 -66 123 3 122 3 0 60 0 60 -122 3 -123 3 0 -66z"/>
<path d="M3150 110 l0 -60 320 0 320 0 0 60 0 60 -320 0 -320 0 0 -60z"/>
</g>
</svg>
