<?xml version="1.0" standalone="no"?>
<!DOCTYPE svg PUBLIC "-//W3C//DTD SVG 20010904//EN"
 "http://www.w3.org/TR/2001/REC-SVG-20010904/DTD/svg10.dtd">
<svg version="1.0" xmlns="http://www.w3.org/2000/svg"
 width="409.000000pt" height="409.000000pt" viewBox="0 0 409.000000 409.000000"
 preserveAspectRatio="xMidYMid meet">
<metadata>
Created by potrace 1.16, written by Peter Selinger 2001-2019
</metadata>
<g transform="translate(0.000000,409.000000) scale(0.100000,-0.100000)"
fill="#000000" stroke="none">
<path d="M700 2555 l0 -1475 195 0 195 0 0 125 0 125 60 0 60 0 0 -255 0 -255
130 0 130 0 0 -130 0 -130 195 0 195 0 0 260 0 260 60 0 60 0 0 -195 0 -195
195 0 195 0 0 130 0 130 65 0 65 0 0 255 0 255 125 0 125 0 0 -65 0 -65 130 0
130 0 0 -125 0 -125 195 0 195 0 0 1198 0 1197 -278 278 -277 277 -1073 0
-1072 0 0 -1475z m2417 1193 l273 -273 -2 -405 c-1 -223 -4 -357 -5 -297 l-4
107 -49 0 -49 0 -4 -137 c-1 -76 -4 39 -5 255 l-2 392 -255 0 -255 0 0 255 0
255 -965 0 -965 0 -2 -782 c-2 -575 -4 -689 -8 -431 l-5 352 -47 -45 -48 -45
-3 -362 c-1 -199 -3 42 -5 536 l-2 897 1067 0 1068 0 272 -272z m-367 -113 l0
-255 255 0 255 0 0 -1085 0 -1085 -60 0 -60 0 0 320 0 320 -65 0 -65 0 0 -190
0 -190 -60 0 -60 0 0 125 0 125 -70 0 -70 0 0 -60 0 -60 -187 -2 -188 -3 -3
-258 -2 -257 -65 0 -65 0 0 -125 0 -125 -60 0 -60 0 0 190 0 190 -195 0 -195
0 0 -255 0 -255 -62 0 -63 0 0 187 0 188 -67 3 -68 3 0 -66 0 -65 -60 0 -60 0
0 260 0 260 -195 0 -195 0 0 -130 0 -130 -60 0 -60 0 0 1340 0 1340 955 0 955
0 0 -255z"/>
<path d="M2880 3660 l0 -150 152 0 153 0 -150 150 c-82 83 -151 150 -152 150
-2 0 -3 -67 -3 -150z m280 -137 c0 -2 -61 -3 -135 -3 l-135 0 0 137 0 138 135
-135 c74 -74 135 -136 135 -137z"/>
<path d="M1403 3513 l447 -3 0 -60 0 -60 -447 -3 -448 -2 453 -3 452 -2 0 70
0 70 -452 -2 -453 -3 448 -2z"/>
<path d="M960 3197 l0 -63 50 -3 c47 -2 51 0 101 51 l52 53 -68 3 c-62 3 -70
1 -96 -24 l-29 -28 0 32 0 32 315 0 314 0 4 -57 3 -58 0 60 -1 60 -322 3 -323
2 0 -63z"/>
<path d="M2665 3129 c-32 -6 -27 -7 26 -4 l66 4 -13 -92 c-7 -51 -13 -108 -14
-127 l0 -35 -53 3 -54 4 -13 -93 c-8 -52 -15 -88 -17 -82 -3 7 3 60 11 118 15
99 20 175 13 175 -2 0 -48 -7 -103 -15 -54 -8 -114 -15 -133 -15 l-33 0 51 52
c42 44 48 54 33 59 -9 3 30 12 88 20 58 7 97 15 87 17 -36 7 -444 -51 -517
-74 -109 -34 -194 -88 -286 -180 -66 -65 -90 -98 -128 -175 -64 -129 -76 -195
-76 -424 l0 -190 -122 -122 -122 -123 44 -45 c24 -25 49 -45 55 -45 6 0 61 51
124 114 l114 114 211 4 c188 4 220 7 291 29 247 76 445 287 494 529 6 30 24
165 41 300 17 135 33 260 36 278 5 31 4 32 -28 31 -18 -1 -51 -5 -73 -10z
m-443 -121 c-37 -34 -69 -65 -72 -69 -14 -17 -94 -32 -186 -33 -98 -1 -102 0
-86 17 8 10 22 15 29 12 8 -2 12 -1 9 4 -19 30 239 127 346 130 25 1 22 -4
-40 -61z m388 -35 c-1 -33 -52 -401 -61 -439 -30 -125 -130 -261 -242 -332
-111 -70 -164 -84 -327 -89 l-145 -5 60 61 59 61 148 0 148 0 0 65 0 65 -82 0
-82 0 59 60 59 60 83 0 83 0 0 60 0 60 -67 2 -68 2 70 6 70 6 -72 2 -73 2 0
55 0 55 -50 0 -49 0 -4 -77 -3 -78 -2 83 -2 82 60 0 59 0 4 -55 4 -55 -1 57
-1 58 -67 3 -68 3 0 -82 0 -82 -60 -63 -60 -62 0 79 0 80 -67 -3 -68 -3 -3
-146 -3 -145 -60 -60 -61 -59 5 130 c6 134 18 194 55 279 12 26 19 52 16 57
-3 5 0 8 7 7 6 -2 14 3 17 11 3 9 0 11 -9 6 -8 -5 -12 -6 -9 -2 3 3 8 5 11 4
9 -3 39 24 39 35 0 5 -6 6 -12 2 -19 -12 46 62 86 96 57 51 50 33 -12 -27 -32
-32 -40 -41 -18 -21 23 20 66 53 96 72 30 20 50 36 44 36 -6 0 -19 -7 -30 -15
-22 -17 -38 -20 -29 -5 4 6 -21 10 -69 10 l-75 0 -43 -46 c-24 -25 -51 -59
-61 -75 -11 -16 -21 -29 -24 -29 -9 0 32 59 80 114 l48 56 117 -2 c87 -1 130
3 169 16 28 9 131 28 230 41 191 25 253 29 253 18z"/>
<path d="M2620 1145 l0 -65 70 0 70 0 0 65 0 65 -70 0 -70 0 0 -65z"/>
<path d="M700 885 l0 -65 70 0 70 0 0 65 0 65 -70 0 -70 0 0 -65z"/>
<path d="M2622 758 l3 -193 193 -3 192 -2 0 195 0 195 -195 0 -195 0 2 -192z"/>
<path d="M3140 760 l0 -70 65 0 65 0 0 70 0 70 -65 0 -65 0 0 -70z"/>
<path d="M960 505 l0 -195 195 0 195 0 0 195 0 195 -195 0 -195 0 0 -195z"/>
<path d="M2110 375 l0 -195 195 0 195 0 0 195 0 195 -195 0 -195 0 0 -195z"/>
<path d="M1470 245 l0 -195 195 0 195 0 0 195 0 195 -195 0 -195 0 0 -195z"/>
<path d="M2750 375 l0 -65 70 0 70 0 0 65 0 65 -70 0 -70 0 0 -65z"/>
<path d="M830 120 l0 -70 65 0 65 0 0 70 0 70 -65 0 -65 0 0 -70z"/>
<path d="M3267 184 c-4 -4 -7 -36 -7 -71 l0 -63 70 0 71 0 -3 68 -3 67 -60 3
c-34 2 -64 0 -68 -4z"/>
</g>
</svg>
