<?xml version="1.0" encoding="utf-8"?>
<!-- Generator: Adobe Illustrator 17.0.0, SVG Export Plug-In . SVG Version: 6.00 Build 0)  -->
<!DOCTYPE svg PUBLIC "-//W3C//DTD SVG 1.1//EN" "http://www.w3.org/Graphics/SVG/1.1/DTD/svg11.dtd">
<svg version="1.1" id="Capa_1" xmlns="http://www.w3.org/2000/svg" xmlns:xlink="http://www.w3.org/1999/xlink" x="0px" y="0px"
	 width="409px" height="409px" viewBox="0 0 409 409" enable-background="new 0 0 409 409" xml:space="preserve">
<g>
	<path fill="#FEFEFE" d="M24.893,205.412c0-58.97,0.024-117.94-0.073-176.91c-0.005-2.85,0.339-3.705,3.523-3.702
		c118.087,0.11,236.175,0.105,354.262,0.019c2.832-0.002,3.343,0.733,3.341,3.414c-0.073,118.087-0.071,236.175-0.009,354.262
		c0.001,2.564-0.33,3.473-3.283,3.471c-118.234-0.097-236.469-0.095-354.703-0.004c-2.718,0.002-3.127-0.652-3.123-3.198
		C24.912,323.647,24.893,264.529,24.893,205.412z"/>
	<path fill="#848484" d="M346.115,356.733c0.05,6.616,0.027,13.234,0.184,19.848c0.066,2.804-0.947,4.14-3.834,3.907
		c-1.169-0.094-2.352-0.005-3.528-0.005c-101.187,0.001-202.373,0.001-303.56,0c-1.177,0-2.358-0.079-3.529,0.003
		c-2.845,0.198-3.258-1.166-2.42-3.511c0.939-2.625,1.803-5.278,2.699-7.918c2.775-4.404,3.887-9.533,6.156-14.168
		c1.186-2.423,2.348-4.573,5.443-3.721c3.025,0.832,2.949,3.383,2.216,5.658c-0.942,2.92,1.409,4.592,2.106,6.863
		c0.832,2.546,2.871,3.176,5.219,3.191c14.258,0.089,28.516,0.139,42.773-0.025c4.801-0.055,6.472-2.034,6.928-7.276
		c0.573-6.578,0.82-13.193,2.163-19.697c1.493-3.749,3.782-7.118,4.57-11.22c0.42-2.186,2.595-3.055,4.897-2.725
		c2.424,0.347,3.391,2.081,3.408,4.257c0.037,4.748-0.405,9.534,1.843,13.982c0.131,5.429-0.818,10.807-0.92,16.224
		c-0.091,4.829,1.396,6.426,6.262,6.457c22.15,0.14,44.3,0.103,66.45,0.027c1.94-0.007,3.803-0.345,5.32-1.7
		c3.363-3.02,3.891-7.234,3.979-11.236c0.064-2.935,1.043-5.661,1.036-8.57c-0.005-2.016,1.47-3.107,3.493-3.15
		c2.035-0.043,3.783,1.18,3.769,2.971c-0.046,5.766,2.265,10.845,4.013,16.106c0.593,3.886,3.094,5.433,6.773,5.561
		c1.175,0.041,2.349,0.057,3.524,0.057c33.195,0.004,66.39,0.012,99.584-0.013c3.053-0.002,6.24,0.386,8.733-2.053
		c2.643-2.877,3.345-6.268,3.316-10.116c-0.115-14.957-0.089-29.916-0.025-44.874c0.019-4.535,1.649-6.251,5.503-6.15
		c3.556,0.093,4.899,1.571,4.954,5.164c0.23,14.948,0.045,29.897,0.118,44.845C345.736,354.738,345.536,355.789,346.115,356.733z"/>
	<path fill="#929292" d="M120.29,124.81c0.924,1.976,2.183,0.793,3.267,0.276c12.137-5.783,24.325-5.452,36.54-0.314
		c10.507,4.42,21.333,8.062,31.623,13.008c8.372,4.489,8.343,4.489,8.387-4.754c0.017-3.482-0.242-6.971,0.176-10.451
		c0.538-4.245,0.879-8.507,1.427-12.745c0.271-2.095,0.964-3.98,3.523-4.063c2.525-0.082,3.48,1.537,3.706,3.774
		c0.473,4.669,1.703,9.195,2.566,13.792c-0.02,17.745,0.342,35.49-0.183,53.218c-2.534,3.093-3.331,0.593-3.862-1.387
		c-0.627-2.335-0.624-4.846-2.374-7.919c-1.603,5.598-2.165,10.432-2.349,15.317c-0.137,3.64,0.122,7.292-0.167,10.927
		c-0.15,1.889-0.301,3.958-3.059,3.887c-2.452-1.355-1.941-3.792-1.972-5.89c-0.147-9.993-0.198-19.991-0.004-29.98
		c0.096-4.937-1.694-7.841-6.411-9.692c-12.581-4.936-25.061-10.138-37.68-14.978c-16.87-6.471-32.434,0.578-38.791,17.582
		c-3.087,8.257-5.152,16.865-8.24,25.129c-0.644,1.723-0.78,3.841-2.885,4.698c-3.076-0.028-3.629-1.843-3.035-4.393
		c0.518-2.225,2.124-5.71,0.064-6.358c-2.518-0.793-2.898,3.233-4.262,5.108c-1.184,1.627-1.241,4.533-4.476,3.427
		c2.037-6.982,4.075-13.963,6.396-21.916c-18.393,8.957-35.417,7.829-50.943-4.371c-9.607-7.548-15.168-17.731-16.246-30.107
		c-0.477-6.039,1.025-11.734,2.995-17.354c0.874-2.492,2.776-3.224,5.092-2.776c1.879,0.364,3.638,1.896,2.938,3.696
		c-2.171,5.586,1.913,10.054,2.203,15.147c0.049,0.861,0.372,1.712,0.536,2.566c3.107,13.263,11.209,21.733,24.546,24.635
		c16.334,3.554,32.182-6.329,36.637-22.46c0.195-0.706,0.381-1.415,0.539-2.14c1.046-3.629,0.991-7.525,3.147-10.891
		c0.949-1.481,0.423-3.39-0.192-5.091c-0.882-2.439-0.226-4.411,2.247-5.343c2.393-0.902,4.043,0.231,5.513,2.242
		c2.054,2.808,1.56,6.218,2.534,9.278C120.514,119.496,120.768,122.208,120.29,124.81z"/>
	<path fill="#8F8F8F" d="M355.165,158.99c8.575,4.328,12.119,12.017,13.68,20.885c0.381,2.165,1.164,3.72,2.706,5.266
		c12.272,12.309,11.471,30.906-1.767,42.003c-1.428,1.197-2.727,2.263-2.195,4.357c-3.925-0.166-3.1-2.558-2.186-4.843
		c0.798-1.996,2.725-3.4,3.508-6.616c-5.352,3.144-10.278,5.334-14.634,8.596c-2.832,0.355-4.085-1.439-4.515-3.758
		c-0.47-2.536,1.402-3.627,3.447-4.407c1.099-0.42,2.216-0.796,3.297-1.259c5.553-2.378,9.227-6.462,10.004-12.475
		c0.754-5.839-2.209-10.403-6.874-13.418c-3.699-2.391-5.316-4.903-4.428-9.397c0.675-3.414-0.833-6.653-2.865-9.48
		c-0.673-0.936-1.474-2.051-2.86-1.53c-1.154,0.435-1.081,1.658-1.109,2.67c-0.114,4.117,0.106,8.241-0.133,12.353
		c-0.285,4.886-1.825,5.911-6.553,4.467c-3.403-1.039-6.799-2.14-10.289-0.426c-1.464,0.719-3.093,1.58-3.042,3.434
		c0.064,2.314,2.187,2.001,3.682,2.237c9.521,1.503,16.999,10.653,16.378,19.911c-0.652,9.714-8.829,18.295-18.533,18.388
		c-10.17,0.097-18.933-8.08-19.395-17.999c-0.115-2.471,0.476-4.888,0.631-7.51c-6.099,3.2-8.571,9.25-6.906,15.66
		c0.595,2.291,2.735,4.414,1.125,7.079c-2.586,1.594-4.105,0.216-5.125-2.006c-1.093-2.382-1.777-4.915-2.319-7.488
		c-0.213-1.012-0.698-1.996-1.929-2.075c-1.231-0.078-1.819,0.84-2.172,1.814c-0.66,1.821-1.184,3.711-3.746,3.456
		c-3.398-1.599-2.659-4.76-2.292-7.319c1.497-10.447,6.418-18.921,15.952-23.915c4.667-2.445,8.436-5.154,11.189-9.925
		c2.799-4.849,7.476-8.204,13.101-9.796c1.545-0.437,3.167-0.701,4.405-1.868c2.235-1.853,2.769-4.283,2.749-7.068
		c-0.057-7.904-0.066-15.81-0.001-23.715c0.04-4.934,4.178-7.372,8.7-5.233c1.581,0.748,1.891,2.066,1.88,3.624
		c-0.022,3.22,0.175,6.454-0.059,9.658c-0.22,3.02,0.886,4.665,3.834,5.334C351.497,157.108,353.397,157.924,355.165,158.99z"/>
	<path fill="#989898" d="M200.546,122.861c-0.003,4.258,0.011,8.517-0.013,12.775c-0.032,5.658-1.904,6.736-6.914,3.93
		c-0.736-0.412-1.271-1.182-1.9-1.786c7.976,2.05,7.976,2.05,7.98-6.666c0.008-17.934-0.012-35.868,0.032-53.802
		c0.042-17.206,13.52-27.538,29.928-22.749c3.359,0.98,3.542-0.403,3.961-2.966c1.878-11.49,7.854-18.254,17.796-20.482
		c12.122-2.715,24.384,5.322,26.76,17.541c1.231,6.33,1.231,6.33,7.487,4.927c12.845-2.88,25.956,7.235,26.857,20.726
		c0.098,1.465,0.157,2.934,0.234,4.4c-2.174,0.986-2.749-0.956-3.735-2.077c-1.061-1.207-1.512-2.812-2.887-4.757
		c-0.229,9.342-0.889,18.008-2.057,26.571c-1.347,9.876,0.35,19.546,0.567,29.314c-0.864,9.387-0.286,18.786-0.356,28.177
		c-0.006,0.733,0.108,1.467,0.336,2.17c0.382,1.175,0.956,2.269,2.382,2.18c1.389-0.087,1.893-1.229,2.224-2.403
		c0.2-0.708,0.29-1.445,0.283-2.179c-0.142-15.265,0.535-30.537-0.395-45.804c0.894-2.556,1.009-5.109,0.727-7.828
		c-0.233-2.253-0.746-5.117,2.661-5.954c2.254,0.934,2.168,3.022,2.184,4.875c0.185,20.436,0.262,40.873-0.033,61.307
		c-0.067,4.682-1.192,5.554-5.859,5.867c-0.587,0.039-1.175,0.047-1.763,0.05c-6.889,0.034-7.967-0.888-8.006-7.831
		c-0.146-26.171-0.03-52.342-0.067-78.513c-0.004-2.645,0.086-5.306-0.723-7.874c-1.293-4.102-4.568-6.623-8.42-6.515
		c-4.049,0.113-7.238,2.972-8.166,7.355c-0.461,2.175-0.374,4.39-0.375,6.593c-0.013,24.995,0,49.99-0.009,74.985
		c0,0.735-0.002,1.47-0.009,2.205c-0.092,9.204-2.385,11.031-11.569,9.41c-2.361-0.416-3.689-1.572-3.979-3.966
		c-0.301-2.491-0.274-4.99-0.275-7.488c-0.017-32.052,0.001-64.105-0.014-96.157c-0.001-3.087,0.078-6.189-1.029-9.152
		c-1.457-3.899-4.6-6.406-8.104-6.48c-3.656-0.077-6.991,2.513-8.465,6.596c-1.021,2.827-0.968,5.779-0.969,8.721
		c-0.013,31.758-0.001,63.516-0.008,95.275c0,1.176,0,2.353-0.013,3.529c-0.102,8.781-3.624,11.332-12.281,8.992
		c-1.975-0.534-2.954-1.728-3.233-3.679c-0.335-2.34-0.302-4.693-0.303-7.044c-0.021-25.142-0.002-50.284-0.015-75.426
		c-0.001-2.204,0.076-4.415-0.321-6.599c-0.622-3.429-2.359-6.023-5.749-7.2c-3.392-1.178-6.336-0.172-8.983,2.087
		c-1.218,1.039-1.967,2.61-3.588,3.179c-6.533-0.533-1.04-4.919-2.399-7.422c-3.537,0.655-5.432,2.966-6.156,6.314
		c-0.837,3.867-1.213,7.792-1.106,11.77C203.049,96.933,202.458,109.935,200.546,122.861z"/>
	<path fill="#8B8B8B" d="M290.442,226.147c1.346-2.659,1.334-5.901,3.946-8.057c1.672-1.381,2.676-1.408,3.808,0.395
		c1.092,1.738,1.797,3.555,2.209,5.609c0.672,3.351,0.951,7.021,4.422,9.054c1.722-1.169,3.063-0.011,4.43,0.767
		c3.358,1.911,6.891,3.297,10.799,3.311c3.62,0.013,5.378,1.75,6.526,5.189c3.059,9.165,11.27,13.415,19.211,10.346
		c7.338-2.836,10.821-10.154,8.785-17.853c-0.574-2.171-2.982-4.378-0.538-6.843c-0.09-3.236,0.848-4.816,4.697-5.171
		c2.707-0.25,5.281-2.716,7.757-4.422c1.857-1.279,3.815-3.069,5.795-1.16c2.374,2.289-0.79,3.746-1.597,5.537
		c-1.263,2.804-5.531,4.518-3.102,8.65c4.378,13.522-2.708,28.695-16.344,33.764c-4.164,1.548-5.087,3.656-5.073,7.68
		c0.102,27.929-0.011,55.859-0.056,83.789c-1.08-1.9-0.807-3.991-0.825-6.032c-0.12-13.208-0.308-26.417-0.271-39.625
		c0.009-3.387-0.903-5.445-4.561-5.343c-4.06,0.113-3.999,3.077-3.998,5.978c0.004,16.151-0.002,32.301-0.006,48.452
		c-0.001,3.098-0.085,6.18-1.851,8.912c-2.63-2.252-2.051-5.359-2.058-8.226c-0.061-27.333-0.181-54.668,0.077-81.999
		c0.062-6.588-1.404-11.299-7.936-14.029c-3.652-1.526-6.372-4.666-8.605-8.026c-1.862-2.801-4.389-4.654-7.595-5.702
		c-10.389-3.398-16.387-10.848-19.274-21.112C288.782,228.454,288.985,227.089,290.442,226.147z"/>
	<path fill="#959595" d="M312.494,96.378c-1.526,4.64-0.406,9.422-0.759,14.125c-5.51-0.284-5.499-0.283-6.413,6.077
		c-0.355,2.475-0.057,4.982-0.385,7.447c-0.221,1.662-0.205,3.712-2.896,3.246c0.093-16.223-0.595-32.468,1.649-48.628
		c0.397-2.858,0.562-5.922-1.282-8.501c-1.844-2.579-0.453-2.921,1.798-2.86c2.246,0.061,4.195,0.75,4.646,3.163
		c0.586,3.135,2.496,5.563,3.904,8.264c3.43-1.997,7.189-2.806,11.096-3.077c1.092-0.076,2.399,0.338,2.796-1.267
		c0.441-1.441-0.086-2.708-0.646-4.002c-0.964-2.23-0.272-4.101,1.774-5.172c2.075-1.086,4.526-1.304,5.907,0.945
		c2.102,3.423,5.496,4.666,8.835,6.127c3.119,1.096,6.127,0.883,9.016-0.764c2.84-2.064,6.81-2.254,8.82-5.843
		c0.711-1.269,2.812-1.348,4.444-0.57c1.639,0.781,2.08,2.19,2.125,3.854c0.13,4.862-2.472,8.416-5.72,11.556
		c-1.345,1.3-2.854,2.488-4.446,3.525c-2.796,2.263-6.142,2.722-9.546,2.676c-3.019-0.041-3.599,1.029-2.356,3.691
		c1.401,3,1.36,6.274,1.36,9.517c-0.002,16.305,0.135,32.612-0.064,48.914c-0.051,4.197,0.595,7.134,5.317,7.899
		c1.389,0.225,2.731,1.074,3.696,2.268c-1.136-0.289-2.29-0.525-3.407-0.877c-6.275-1.978-6.462-2.253-6.479-9.014
		c-0.004-1.615-0.076-3.234,0.005-4.846c0.152-3.033-0.921-4.618-4.264-4.662c-3.51-0.046-4.621,1.51-4.588,4.803
		c0.097,9.692,0.1,19.386-0.043,29.077c-0.029,1.984,0.872,5.462-3.471,4.051c-1.114-1.633-0.43-3.427-0.427-5.147
		c0.044-24.054,0.055-48.108-0.022-72.162c-0.018-5.571-1.884-8.584-5.689-9.912c-3.618-1.262-7.224-0.131-10.208,3.247
		C315.437,94.834,314.703,96.658,312.494,96.378z"/>
	<path fill="#8B8B8B" d="M32.542,315.312c2.054-3.293,1.358-6.332-0.064-9.814c-4.346-10.643-1.39-22.842,7.186-30.509
		c1.871-1.673,2.385-3.184,2.204-5.642c-1.083-14.702,11.516-26.45,26.022-24.196c2.744,0.426,3.743-0.427,4.429-2.732
		c0.751-2.524,1.661-5.001,2.501-7.498c1.556-2.024,2.486-4.396,3.685-6.619c1.107-2.051,2.62-3.51,5.16-2.839
		c2.394,0.633,2.825,2.363,2.895,4.725c0.111,3.763-1.179,7.544,0.11,11.273c-0.311,2.331-1.248,4.493-1.898,6.737
		c-1.284,4.435-0.85,5.266,3.693,6.533c13.058,3.64,20.535,12.397,22.917,25.498c0.551,3.033,1.831,6.768-2.021,9.061
		c-3.186-0.286-3.103-2.953-3.657-5.111c-0.742-2.887-0.904-6.017-3.815-8.465c-0.39,2.997-0.257,6.107-4.136,6.189
		c-1.921-0.295-2.427-1.934-3.167-3.35c-3.078-5.886-7.823-8.924-14.579-8.788c-4.112,0.083-8.238,0.2-12.342-0.126
		c-4.022-0.319-5.083-1.768-4.507-5.768c0.203-1.409,1.079-3.108-0.616-3.979c-1.893-0.972-3.39,0.368-4.597,1.675
		c-2.153,2.331-2.844,5.099-1.925,8.176c0.504,1.689,1.091,3.356,1.719,5.003c1.154,3.025,0.27,5.154-2.707,6.402
		c-3.473,1.456-6.461,3.555-8.455,6.795c-2.44,3.964-3.053,8.151-1.444,12.665c0.65,1.824,2.217,3.663,0.777,5.821
		c-1.73,1.571-3.13,0.611-4.588-0.531c-1.471-1.151-2.347-2.927-4.273-3.994c-1.615,2.572-0.115,4.725,0.588,6.962
		C38.827,312.668,36.503,315.566,32.542,315.312z"/>
	<path fill="#858585" d="M32.542,315.312c3.019-2.343,4.191-4.947,1.833-8.579c-2.005-3.088,0.481-6.156,0.608-9.261
		c0.031-0.756,0.812-1.213,1.604-1.202c1.403,0.019,2.041,1,2.359,2.187c0.964,3.602,3.371,6.018,6.4,7.945
		c3.27-1.35,4.516,1.281,5.821,3.232c1.262,1.885,0.157,3.61-1.25,5.089c-1.011,1.063-2.228,1.905-3.166,3.046
		c-4.097,4.984-2.762,11.778,3.204,14.232c2.988,1.229,4.735,2.957,6.03,5.817c2.11,4.661,5.942,6.652,10.186,5.825
		c4.28-0.834,6.949-3.965,6.733-9.429c-0.196-4.964,1.833-8.031,5.949-10.184c1.757-1.308,3.274-2.949,5.293-3.877
		c2.105-0.967,3.515-2.316,4.004-4.775c0.532-2.675,2.508-3.979,5.22-3.377c2.625,0.582,4.049,2.655,3.252,5.11
		c-1.11,3.419-0.605,6.728-0.4,10.101c-4.082,6.008-7.156,12.478-10.136,19.141c-5.101,11.403-17.63,16.028-29.619,12.216
		c-5.184-1.648-5.171-1.641-7.988,3.237c-0.714,1.236-1.308,2.781-3.282,2.022c-0.363-2.743-1.157-5.44-0.801-8.261
		c0.126-1,0.308-2.203-0.914-2.657c-1.382-0.513-2.048,0.592-2.816,1.511c-2.96,3.541-3.695,8.244-6.318,11.948
		c-0.67,0.947-1.477,1.797-2.221,2.691c2.303-7.432,4.493-14.903,6.965-22.278c0.954-2.846,0.687-4.704-1.639-6.939
		C30.232,332.902,28.594,323.769,32.542,315.312z"/>
	<path fill="#969696" d="M42.542,129.042c-2.433-5.533-2.098-11.441-2.24-17.263c-0.042-1.73,0.857-3.828-1.632-4.284
		c-2.197-0.403-3.657,1.118-4.165,3.13c-1.258,4.977-2.33,10.001-3.477,15.007c-1.885-11.724,1.516-22.2,8.335-31.47
		c11.518-15.657,31.062-22.1,48.925-16.668c18.52,5.633,31.407,21.91,32.619,41.236c0.129,2.05,0.281,4.122-0.618,6.078
		c-0.904-4.139-1.857-8.27-2.688-12.425c-0.295-1.473-0.583-2.88-1.848-3.835c-1.07-0.808-2.25-1.574-3.623-0.982
		c-1.562,0.673-1.142,2.089-1.09,3.42c0.244,6.14-0.039,12.227-2.279,18.059c-2.195-1.089-1.904-3.015-1.727-4.956
		c1.501-16.387-10.179-31.936-25.698-34.244c-17.932-2.666-33.016,7.686-36.589,25.083c-0.653,3.181-1.096,6.34-0.471,9.591
		C44.623,126.316,44.527,128.077,42.542,129.042z"/>
	<path fill="#969696" d="M188.257,75.522c0.077,12.671-9.524,22.466-22.108,22.555c-12.517,0.088-22.918-10.131-22.886-22.486
		c0.031-11.996,10.198-22.258,22.149-22.357C178.319,53.125,188.179,62.745,188.257,75.522z"/>
	<path fill="#989898" d="M58.643,30.405c8.706-0.117,17.028,8.056,17.172,16.864c0.142,8.702-7.975,17.037-16.768,17.217
		c-9.131,0.187-17.28-7.855-17.27-17.041C41.788,38.479,49.661,30.525,58.643,30.405z"/>
	<path fill="#989898" d="M341.966,75.103c-3.564-0.415-5.58-2.909-7.534-5.536c-1.328-1.786-2.767-3.7-5.4-2.631
		c-2.499,1.015-1.655,3.005-1.12,4.864c0.338,1.176-0.399,1.928-1.265,2.566c-5.968-10.434-1.813-23.951,9.156-29.787
		c11.278-6,25.426-1.467,30.779,9.861c5.406,11.442,1.074,24.486-9.825,29.583c1.515-1.566,3.075-3.092,4.535-4.708
		c1.861-2.06,3.755-4.178,4.135-7.055c0.242-1.829,0.69-4.043-1.323-5.154c-1.949-1.075-3.081,0.807-4.483,1.793
		c-2.481,1.746-4.183,4.547-7.31,5.408c-1.638-2.607,0.891-4.023,1.752-5.864c2.019-4.319,0.765-9.207-3.148-11.589
		c-3.791-2.308-8.565-1.314-11.399,2.373c-2.488,3.238-2.255,7.821,0.654,11.382C341.256,71.94,342.991,72.951,341.966,75.103z"/>
	<path fill="#8E8E8E" d="M83.994,241.893c-0.581-3.818,1.283-7.424,0.976-11.211c-0.103-1.273-0.037-2.796-1.656-3.223
		c-1.484-0.391-2.54,0.542-3.252,1.687c-1.401,2.254-3.142,4.167-5.241,5.775c5.477-17.692,10.764-35.447,17-52.895
		c1.8-3.327,3.642-6.632,5.386-9.989c1.066-2.052,2.319-4.089,4.925-3.397c2.488,0.661,1.32,3.071,1.72,4.806
		c0.847,3.668-2.538,6.637-1.315,10.235c2.732,1.842,1.342,4.209,0.672,6.344c-5.053,16.116-10.294,32.172-15.328,48.294
		c-0.308,0.987-0.61,1.982-1.252,2.799C85.96,241.971,85.143,242.556,83.994,241.893z"/>
	<path fill="#FEFEFE" d="M312.494,96.378c3.364-7.522,7.59-10.331,13.602-9.041c5.216,1.119,8.654,4.843,8.674,10.175
		c0.096,25.288,0.04,50.577,0.059,75.866c0.001,1.715-0.291,3.215-1.911,4.144c-8.644,0.488-14.46,5.259-18.126,12.656
		c-1.405,2.836-2.939,4.502-6.021,5.595c-12.934,4.588-21.177,18.541-18.328,30.373c1.335,11.38,9.218,20.419,20.876,23.495
		c2.509,0.662,4.06,1.759,5.323,3.992c3.308,5.852,8.32,9.829,14.642,12.058c2.119,0.747,3.584,1.581,3.574,4.214
		c-0.126,33.056-0.182,66.113-0.255,99.169c-38.346,0.004-76.691,0.008-115.037,0.012c-8.193,0.001-8.193,0-8.585-7.968
		c-1.422-8.614-1.71-17.33-2.339-26.006c1.214-7.458,1.21-14.994,1.266-22.528c0.039-5.232-1.948-9.404-5.782-13.056
		c-8.278-7.886-15.421-16.838-23.033-25.349c-1.76-1.969-3.462-3.994-5.336-5.853c-5.037-5-8.556-10.433-5.484-17.905
		c2.211-3.547,2.752-7.625,3.375-11.599c1.476-9.414,4.035-18.576,6.154-27.838c1.499-6.548,2.499-6.899,8.555-4.082
		c9.624,4.478,18.151,0.216,19.688-9.853c3.556-23.192,3.149-46.561,2.443-69.852c-0.481-15.859-0.487-31.704-0.673-47.556
		c-0.022-1.901-0.198-3.825,0.342-5.699c0.254-0.526,0.616-0.962,1.085-1.308c0.435-0.764,0.853-1.538,1.307-2.29
		c2.769-4.587,7.522-6.709,12.353-5.525c5.035,1.234,8.372,5.407,8.387,10.999c0.06,21.617,0.019,43.235,0.016,64.852
		c-0.001,6.618,0.265,13.25-0.092,19.848c-0.248,4.596,1.48,5.702,5.828,5.713c4.398,0.012,5.809-1.223,5.784-5.741
		c-0.186-34.411-0.12-68.822-0.145-103.234c-0.002-2.507,0.023-4.997,0.821-7.415c1.499-4.541,6.032-8.029,10.548-8.09
		c4.44-0.059,9.138,3.426,10.682,7.911c0.879,2.552,0.887,5.191,0.885,7.846c-0.023,34.117-0.033,68.235-0.039,102.352
		c-0.001,5.616,4.666,8.43,9.867,5.963c2.131-1.011,1.512-3.009,1.517-4.659c0.045-16.911,0.022-33.823,0.019-50.735
		c-0.002-11.323-0.051-22.647,0.01-33.97c0.038-7.104,4.385-11.786,10.833-11.886c6.543-0.102,11.341,4.795,11.353,11.949
		c0.049,27.941-0.01,55.882,0.03,83.823c0.003,1.806-0.919,4.401,1.154,5.219c2.853,1.126,6.134,0.967,9.089,0.038
		c1.664-0.523,1.139-2.533,1.139-3.934C312.579,139.905,312.532,118.141,312.494,96.378z"/>
	<path fill="#FEFEFE" d="M83.994,241.893c4.369-13.37,8.782-26.726,13.088-40.116c1.928-5.997,3.644-12.062,5.456-18.096
		c3.24-9.884,6.356-19.811,9.751-29.642c4.511-13.063,13.675-20.493,27.519-21.889c4.297-0.433,8.51,0.214,12.514,1.793
		c14.604,5.758,29.159,11.638,43.781,17.349c2.766,1.08,3.704,2.727,3.673,5.636c-0.141,13.356-0.098,26.715-0.121,40.072
		c0.644,2.153-0.482,3.448-2.29,4.115c-2.02,0.745-4.089,0.678-5.745-0.969c-3.811-3.788-6.214-8.518-5.773-13.756
		c0.595-7.063-0.843-12.771-6.92-16.896c-1.781-1.209-2.413-3.295-3.223-5.167c-4.582-10.599-12.643-16.6-23.974-18.458
		c-10.812-1.773-18.905,6.181-16.832,16.99c1.465,7.637,3.142,15.261,5.343,22.72c1.715,5.813,1.225,11.161-1.768,16.323
		c-1.226,2.115-2.447,4.183-2.206,6.752c-1.328,2.913-2.69,5.831-4.616,8.406c-3.34,4.466-7.931,6.752-13.411,7.428
		c-1.156,0.143-2.335,0.193-3.463,0.527c-1.758,0.521-2.742,1.682-2.631,3.542c0.114,1.907,1.326,2.801,3.13,3.069
		c8.401,1.249,19.969-5.393,23.311-13.421c0.674-2.141,1.742-4.118,3.207-5.742c2.667-2.956,3.499-6.557,4.669-10.216
		c2.515-7.869,4.809-15.966,11.5-21.725c4.239-3.649,9.01-5.42,14.576-4.966c4.158,0.339,5.932,2.245,6.215,6.496
		c0.158,2.381-0.241,4.693-0.847,6.971c-4.334,16.296-7.055,32.999-12.343,49.051c-1.177,3.573-0.589,7.296-1.243,10.897
		c-2.774,6.186-3.201,13.094-6.081,19.293c-3.355,7.221-7.966,13.334-14.246,18.191c-7.902,6.112-15.944,12.039-23.944,18.022
		c-5.546,4.147-8.317,9.697-9.136,16.434c-0.819,6.734-2.557,13.299-3.816,19.952c-0.848,7.999-1.899,15.984-2.451,24.003
		c-0.247,3.588-1.792,4.293-4.965,4.273c-16.698-0.107-33.398-0.043-50.097-0.052c-5.25-0.003-5.25-0.022-4.393-5.262
		c1.496-2.403,2.121-5.137,2.775-7.82c0.762-3.126,1.811-3.508,4.695-1.741c11.34,6.945,25.413,2.962,31.658-8.686
		c0.069-0.129,0.19-0.245,0.216-0.381c1.321-6.981,4.806-12.862,9.262-18.251c1.562-4.634,3.432-9.152,2.439-14.297
		c-0.717-3.714-0.135-7.095,3.194-9.841c3.073-2.535,4.847-6.178,6.339-9.894c0.625-1.557,0.875-3.525,3.043-3.94
		c3.815-14.791-8.25-31.042-24.6-32.586c-4.071-0.385-4.189-1.637-3.013-4.819C82.365,248.429,83.082,245.125,83.994,241.893z"/>
	<path fill="#FEFEFE" d="M199.487,369.101c-25.824-0.005-51.649-0.007-77.474-0.015c-6.429-0.002-6.283,0.004-5.653-6.199
		c0.621-6.12,0.905-12.274,1.336-18.414c-0.184-7.838-0.113-15.675,0.425-23.495c0.285-4.144,2.2-7.452,5.496-10.121
		c6.964-5.638,14.21-10.899,21.39-16.244c7.167-5.335,13.211-11.571,17.592-19.424c2.651-4.752,5.31-5.113,8.884-1.041
		c9.276,10.569,19.067,20.697,27.597,31.911c1.224,1.609,1.871,3.403,1.875,5.462c0.023,13.276,0.005,26.551,0.019,39.824
		C200.501,357.268,201.266,363.286,199.487,369.101z"/>
	<path fill="#898989" d="M199.795,350.513c-0.043-12.185-0.173-24.371-0.075-36.556c0.028-3.472-1.045-6.146-3.36-8.707
		c-8.759-9.69-17.376-19.509-26.019-29.304c-3.302-3.742-3.601-3.775-5.95,0.509c-4.022,7.333-9.491,13.373-16.154,18.374
		c-5.987,4.494-11.665,9.498-18.038,13.354c-8.179,4.948-10.755,12.103-10.953,21.017c-0.113,5.1-1.008,10.182-1.55,15.273
		c-1.821-3.302-0.64-6.9-1.03-10.341c-0.258-2.277,1.042-5.595-2.556-6.069c-3.106-0.409-3.063,2.815-4.181,4.758
		c-1.465,2.546-0.133,6.001-2.827,8.043c0.034-7.78,0.951-15.503,2.048-23.171c0.885-6.185,4.35-11.075,9.431-14.819
		c7.432-5.476,14.739-11.122,22.195-16.565c9.784-7.143,15.947-16.574,18.568-28.388c0.663-2.99,1.603-5.919,2.416-8.875
		c1.395-4.497,2.559-9.059,4.562-13.367c1.007-2.165,2.178-3.671,4.703-3.118c2.508,0.55,2.636,2.369,2.92,4.723
		c0.576,4.772-1.561,9.066-1.588,13.661c-3.154,7.382,1.436,12.031,5.807,16.881c9.423,10.457,18.71,21.037,28.094,31.53
		c3.285,3.673,4.908,7.911,4.866,12.823c-0.062,7.186-0.097,14.372-0.143,21.558c-3.843-0.324-3.506-3.517-3.634-5.9
		c-0.297-5.568-0.181-11.154-1.056-16.691c-0.337-2.131-0.501-4.291-3.239-5.303c2.42,4.294,0.518,8.329-0.023,12.472
		c-0.78,5.98-0.363,12.036-0.259,18.053c0.07,4.006-0.922,7.877-0.995,11.851C201.757,349.257,201.5,350.659,199.795,350.513z"/>
	<path fill="#878787" d="M199.795,350.513c1.496-5.035,0.444-10.192,0.729-15.286c0.425-7.569-1.018-15.242,1.471-22.702
		c0.813-2.436-0.866-4.127-2.406-5.763c-1.153-1.225-2.156-2.708-0.917-4.294c1.405-1.799,3.456-1.589,5.189-0.588
		c2.667,1.541,4.338,3.884,4.561,7.09c0.385,5.546,1.269,11.058,0.962,16.65c-0.155,2.815,0.373,5.548,1.597,8.117
		c-0.001,9.127-0.001,18.254-0.001,27.382c-2.573-4.135-1.679-9.091-3.188-13.483c-0.5-1.455-0.278-3.616-2.46-3.539
		c-2.149,0.076-2.034,2.16-2.224,3.698c-0.605,4.909-1.212,9.819-1.667,14.743c-0.217,2.35-0.32,4.665-1.953,6.563
		C199.59,362.905,199.693,356.709,199.795,350.513z"/>
	<path fill="#FEFEFE" d="M42.542,129.042c-0.887-6.145-1.076-12.204,0.828-18.279c4.331-13.812,17.477-24.582,33.384-23.762
		c16.933,0.873,29.262,12.234,32.236,28.053c0.901,4.789,0.05,9.336-0.229,13.992c-2.928,8.376-7.375,15.584-15.168,20.378
		c-18.488,11.372-42.138,3.221-49.67-17.166C43.52,131.165,43.005,130.113,42.542,129.042z"/>
	<path fill="#8F8F8F" d="M172.357,250.945c-0.795-1.541-0.831-3.148-0.131-4.686c1.458-3.203,0.308-6.365-0.023-9.539
		c-0.111-1.061-0.461-2.065-1.734-2.222c-1.198-0.148-1.774,0.702-2.446,1.535c-3.109,3.856-3.814,8.853-6.264,13.013
		c2.717-14.865,6.787-29.421,10.078-44.156c1.47-6.584,3.223-13.105,4.671-19.693c1.335-6.073-0.743-8.427-6.879-7.638
		c-8.196,1.053-13.549,5.967-16.657,13.375c-3.293,7.846-6.339,15.796-9.532,23.684c-0.765,1.889-1.362,3.892-2.915,5.363
		c-2.143-1.096-1.705-2.779-1.014-4.506c1.149-2.873,1.026-5.966,1.945-9.263c-2.675,1.065-4.056,5.082-7.351,2.274
		c0.386-1.263,0.541-2.663,1.195-3.767c4.721-7.961,4.105-16.061,1.379-24.517c-1.795-5.568-2.835-11.391-4.025-17.138
		c-2.435-11.761,6.79-21.407,18.658-19.569c12.594,1.95,21.685,8.509,26.573,20.465c0.798,1.951,1.81,3.613,3.607,4.843
		c5.051,3.458,7.457,8.373,6.638,14.393c-0.59,4.341,0.52,8.091,2.278,11.867c2.493,5.354,4.844,5.872,9.249,1.94
		c1.266-2.169,0.944-4.571,0.849-6.878c-0.347-8.395,0.639-16.659,2.284-24.857c0.321-1.602,0.306-3.969,2.722-3.86
		c2.143,0.097,1.874,2.248,2.185,3.768c0.846,4.138,1.694,8.276,2.541,12.414c0.758,7.109,0.664,14.221,0.068,21.335
		c-2.537,10.804-13.756,15.628-23.329,9.567c-3.929-2.488-4.281-0.807-5,2.388c-2.889,12.845-5.918,25.658-8.917,38.478
		C172.93,249.91,172.596,250.416,172.357,250.945z"/>
	<path fill="#969696" d="M211.241,72.635c-0.083,0.299-0.166,0.598-0.249,0.897c-0.698,13.263-0.084,26.537-0.335,39.803
		c-0.06,3.177,0.523,6.395-0.426,9.535c-2.103-3.845-1.639-8.24-2.629-12.324c-0.344-1.419-0.403-3.149-2.421-2.987
		c-1.666,0.133-1.699,1.7-2.008,2.977c-0.988,4.085-0.525,8.479-2.627,12.324c-0.003-13.759,0.054-27.519-0.05-41.278
		c-0.028-3.697,0.654-7.282,1.113-10.899c0.412-3.244,7.385-9.244,10.626-9.474c2.152-0.152,2.943,0.771,2.512,2.909
		c-0.334,1.655-1.348,2.88-2.228,4.226C211.687,69.619,210.174,70.768,211.241,72.635z"/>
	<path fill="#989898" d="M210.232,122.87c0.003-14.442-0.002-28.884,0.017-43.326c0.003-2.028-0.253-4.102,0.745-6.012
		c0.042,40.379,0.085,80.757,0.121,121.136c0.001,1.463,0.07,2.953-0.81,4.255c-0.022-7.111-0.045-14.223-0.068-21.334
		C210.235,159.349,210.233,141.11,210.232,122.87z"/>
	<path fill="#FEFEFE" d="M354.038,228.066c2.526,5.016,4.842,9.992,2.874,15.908c-2.344,7.044-8.395,11.938-15.591,12.197
		c-6.728,0.243-13.99-4.199-16.067-10.837c-1.379-4.406-2.985-6.509-8.068-6.231c-4.803,0.263-8.86-2.655-12.361-5.956
		c-6.603-11.161-3.121-18.476,2.773-23.781c2.094-1.885,4.526-3.174,7.682-3.31c0.309,1.865-0.974,3.09-1.502,4.506
		c-2.566,6.879-0.543,14.806,4.979,19.188c6.077,4.823,14.29,5.087,20.505,0.66c6.042-4.305,8.549-12.149,6.144-19.222
		c-2.349-6.905-9.269-11.588-16.647-11.498c-1.454,0.018-3.407,1.523-4.382-0.447c-0.927-1.873,0.273-3.713,1.241-5.362
		c2.579-4.396,7.583-6.242,13.033-4.803c1.416,0.374,2.807,0.885,4.161,1.449c2.57,1.072,3.456,0.134,3.42-2.488
		c-0.077-5.735-0.043-11.473,0.003-17.209c0.009-1.106-0.407-2.553,1.028-3.078c1.035-0.378,2.005,0.355,2.808,0.981
		c5.352,4.167,8.441,9.479,7.318,16.418c-0.422,2.608,0.113,4.032,2.367,5.376c6.139,3.662,9.874,9.018,9.071,16.367
		c-0.854,7.824-5.75,12.562-13.09,15.044C350.402,223.742,350.434,223.837,354.038,228.066z"/>
	<path fill="#FDFDFD" d="M329.298,222.28c-3.464-0.75-5.403-2.596-5.23-6.102c0.151-3.048,3.014-5.493,5.981-4.967
		c3.353,0.595,5.054,2.717,4.748,6.191C334.495,220.846,332.124,221.939,329.298,222.28z"/>
	<path fill="#959595" d="M277.318,115.616c0,14.538-0.035,29.076,0.028,43.614c0.014,3.145-0.522,5.68-4.334,5.733
		c-3.729,0.052-4.551-2.259-4.545-5.524c0.054-29.076,0.08-58.152-0.021-87.228c-0.014-3.941,1.606-5.075,5.297-5.006
		c4.007,0.075,3.744,2.26,3.708,5.239c-0.171,14.389-0.077,28.781-0.077,43.172C277.356,115.616,277.337,115.616,277.318,115.616z"
		/>
	<path fill="#939393" d="M243.777,122.384c0.002,12.191-0.034,24.383,0.026,36.574c0.015,3.121-0.316,5.437-4.395,5.446
		c-4.018,0.009-4.484-2.179-4.477-5.367c0.052-24.382,0.049-48.765,0.007-73.148c-0.005-3.118,0.309-5.439,4.391-5.448
		c4.02-0.009,4.494,2.183,4.476,5.369C243.733,98.002,243.776,110.193,243.777,122.384z"/>
	<path fill="#949494" d="M302.04,127.273c1.713-5.053,0.365-10.448,1.729-15.543c0.111-0.413,0.008-0.88,0.089-1.306
		c0.425-2.239,0.181-5.308,2.828-5.858c2.447-0.508,2.599,2.639,3.765,4.173c0.44,0.579,0.857,1.176,1.284,1.765
		c0.002,16.16-0.053,32.32,0.049,48.479c0.022,3.539-0.806,5.453-4.884,5.453c-4.057,0-4.951-1.869-4.908-5.431
		C302.121,148.429,302.04,137.85,302.04,127.273z"/>
	<path fill="#FEFEFE" d="M341.966,75.103c-6.451-5.056-8.456-10.998-5.265-16.192c2.308-3.756,5.775-6.002,10.253-5.732
		c4.39,0.265,7.769,2.447,9.623,6.645c1.936,4.384,1.099,8.307-1.895,11.884c-0.752,0.898-1.579,1.734-2.372,2.599
		C348.941,75.596,345.466,75.519,341.966,75.103z"/>
	<path fill="#FEFEFE" d="M79.551,326.726c-3.595,0.97-4.615,3.175-4.277,6.915c0.587,6.479-2.707,11.007-8.201,12.345
		c-5.678,1.382-10.723-1.34-13.228-7.462c-0.921-2.251-2.292-3.375-4.527-4.262c-8.333-3.307-9.994-12.738-3.502-18.956
		c4.534-4.343,4.534-4.343-0.472-8.905c-6.494-13.039-4.257-20.058,8.88-27.233c2.034-1.111,2.477-2.193,1.403-4.145
		c-0.634-1.153-1.157-2.377-1.626-3.609c-2.667-7.011,1.854-14.392,9.306-15.209c3.053-0.335,4.406,0.508,3.394,3.984
		c-2.122,7.289-1.994,7.326,5.571,7.327c1.908,0,3.815-0.001,5.723,0c11.437,0.006,15.815,2.927,20.064,13.386
		c3.007,1.74,2.273,4.556,1.786,7.072c-1.029,5.315-4.195,9.308-8.521,12.403c-2.159,1.545-3.885,3.259-3.188,6.187
		C90.244,315.414,86.405,321.706,79.551,326.726z"/>
	<path fill="#888888" d="M79.551,326.726c7.223-6.177,9.178-13.648,5.387-22.44c-1.006-2.334,0.313-3.125,2.064-3.918
		c8.398-3.801,11.851-10.434,11.057-19.468c2.48-1.663,1.143-3.514,0.321-5.399c-0.525-1.203-1.147-2.619,0.202-3.625
		c1.432-1.068,2.856-0.385,3.966,0.694c2.564,2.492,4.586,5.3,5.049,9.014c0.309,2.475,0.806,4.926,1.22,7.389
		c-0.613,6.304-3.607,11.472-8.097,15.683c-2.045,1.919-2.778,3.838-2.667,6.526c0.234,5.663-0.545,11.127-4.251,15.762
		c0.716-2.687-0.172-5.555,1.12-8.226c0.85-1.758,0.436-3.625-1.492-4.497c-2.171-0.982-3.144,0.653-4.039,2.288
		C87.043,320.803,84.2,324.64,79.551,326.726z"/>
	<path fill="#FEFEFE" d="M166.171,64.522c6.285,0.097,10.991,5.045,10.848,11.404c-0.143,6.356-5.02,10.986-11.409,10.831
		c-6.151-0.149-11.209-5.377-11.021-11.392C154.78,69.273,159.957,64.426,166.171,64.522z"/>
	<path fill="#FEFEFE" d="M58.79,41.805c2.836,0.056,5.789,2.919,5.536,5.694c-0.303,3.34-2.389,5.283-5.684,5.546
		c-2.784,0.222-5.54-2.787-5.512-5.654C53.158,44.558,56.002,41.75,58.79,41.805z"/>
	<path fill="#8B8B8B" d="M278.978,319.761c-0.755-1.835-0.514-3.768-0.514-5.666c-0.008-23.372,0.004-46.743,0.008-70.115
		c0-1.47,0.012-2.941-0.051-4.409c-0.149-3.441-1.755-5.636-5.399-5.6c-3.61,0.036-5.34,2.258-5.392,5.659
		c-0.109,7.201,0.083,14.408-0.094,21.606c-0.171,6.971-3.075,12.456-9.529,15.697c-11.438,5.744-24.327-2.489-24.622-15.935
		c-0.229-10.431-0.056-20.872-0.049-31.308c0.002-2.239-0.02-4.447-2.058-5.979c-1.67-1.255-3.515-1.516-5.41-0.732
		c-2.49,1.03-3.249,3.098-3.368,5.67c-0.247,5.3-0.449,5.117-7.018,5.278c-4.623,0.113-4.373-2.585-4.339-5.679
		c0.107-9.955,7.112-17.097,16.842-17.078c9.727,0.019,16.647,7.081,16.707,17.16c0.057,9.554,0.018,19.109,0.023,28.663
		c0.001,1.176-0.043,2.356,0.035,3.527c0.282,4.207,2.802,7.24,5.976,6.782c3.798-0.548,5.409-3.17,5.415-6.881
		c0.012-7.203-0.071-14.407,0.058-21.607c0.139-7.722,5.62-14.469,12.78-16.02c8.153-1.766,16.007,2.025,19.497,9.345
		c1.315,2.758,1.377,5.675,1.379,8.622c0.015,24.107,0.015,48.213,0.07,72.32c0.006,2.486,0.338,4.971,0.519,7.457
		c-2.952,0.416-3.423-1.632-3.643-3.784c-0.315-3.077-0.178-6.172-0.184-9.26c-0.016-8.531,0.007-17.062-0.014-25.592
		c-0.004-1.468,0.054-2.952-0.438-4.368c-0.298-0.856-0.737-1.673-1.789-1.665c-1.054,0.008-1.48,0.841-1.771,1.694
		c-0.532,1.562-0.433,3.196-0.441,4.81c-0.051,10.737,0.135,21.476-0.128,32.209C281.983,316.66,282.674,319.635,278.978,319.761z"
		/>
	<path fill="#888888" d="M278.978,319.761c1.231-1.842,0.981-3.938,0.984-5.975c0.015-12.319,0.043-24.638-0.012-36.957
		c-0.014-3.213,0.134-5.78,4.525-5.745c4.522,0.036,4.332,2.868,4.327,5.93c-0.021,12.466-0.017,24.931,0.004,37.397
		c0.004,2.17-0.34,4.469,1.636,6.128c1.816,2.437,4.041,3.972,7.168,2.663c3.039-1.273,3.577-3.914,3.568-6.915
		c-0.044-14.69,0.18-29.384-0.108-44.068c-0.095-4.821,2.438-4.713,5.775-4.669c3.224,0.043,5.954-0.352,5.864,4.578
		c-0.282,15.419,0.003,30.848-0.131,46.272c-0.08,9.187-7.346,16.462-16.464,16.917
		C287.577,335.741,279.792,328.675,278.978,319.761z"/>
	<path fill="#8D8D8D" d="M134.104,208.484c2.69-0.885,4.32-2.846,5.623-5.263c0.767-1.422,1.884-2.942,3.816-1.945
		c1.642,0.847,1.195,2.48,0.821,3.925c-1.274,4.928-2.559,9.852-3.84,14.778c-4.956,9.293-18.559,15.845-28.435,13.773
		c-1.551-0.325-2.35-1.028-2.35-2.611c0-1.761,0.056-3.526-0.036-5.283c-0.15-2.874,1.547-3.385,3.917-3.379
		c3.987,0.009,7.872-0.456,11.505-2.385C129.903,217.557,131.811,212.893,134.104,208.484z"/>
	<path fill="#969696" d="M91.958,120.977c-3.061,0.719-5.106-0.565-6.084-4.365c-0.903-3.506-3.896-5.332-7.183-6.627
		c-2.965-1.169-4.657-8.625-2.527-10.873c1.091-1.152,2.431-0.723,3.72-0.433c8.782,1.971,14.643,7.178,17.324,15.804
		C98.981,120.183,98.375,120.962,91.958,120.977z"/>
	<path fill="#FEFEFE" d="M143.282,159.413c0.434-3.307,2.408-5.049,5.647-4.776c6.583,0.555,12.046,3.35,15.968,8.832
		c1.306,1.825,1.35,3.057-1.209,3.802c-5.431,1.581-10.178,4.421-14.178,8.436c-1.17,1.175-2.089,1.152-2.493-0.471
		C145.712,169.991,144.524,164.716,143.282,159.413z"/>
</g>
</svg>
