<?xml version="1.0" standalone="no"?>
<!DOCTYPE svg PUBLIC "-//W3C//DTD SVG 20010904//EN"
 "http://www.w3.org/TR/2001/REC-SVG-20010904/DTD/svg10.dtd">
<svg version="1.0" xmlns="http://www.w3.org/2000/svg"
 width="409.000000pt" height="409.000000pt" viewBox="0 0 409.000000 409.000000"
 preserveAspectRatio="xMidYMid meet">
<metadata>
Created by potrace 1.16, written by Peter Selinger 2001-2019
</metadata>
<g transform="translate(0.000000,409.000000) scale(0.100000,-0.100000)"
fill="#000000" stroke="none">
<path d="M1470 3965 l0 -65 -640 0 -640 0 0 -705 0 -705 -65 0 -65 0 0 -70 0
-70 65 0 65 0 0 -770 0 -770 65 0 65 0 0 770 0 770 65 0 65 0 0 70 0 70 -65 0
-65 0 -2 103 c-1 56 -2 109 -4 117 -1 8 -2 50 -3 93 l-1 77 -50 0 -50 0 -3
-187 c-1 -104 -3 124 -5 505 l-2 692 640 0 640 0 0 65 0 65 60 0 60 0 0 -65 0
-65 648 2 647 3 -642 2 -643 3 0 65 0 65 -70 0 -70 0 0 -65z"/>
<path d="M2760 3515 l0 -255 -108 0 -107 0 -103 -103 c-56 -57 -99 -107 -95
-112 4 -4 3 -5 -3 -2 -14 8 -47 -26 -37 -38 5 -4 3 -5 -3 -2 -6 3 -32 -15 -57
-41 l-47 -48 48 -47 47 -47 150 150 150 150 82 0 83 0 0 -315 0 -315 -65 0
-65 0 0 -70 0 -70 65 0 65 0 0 -770 0 -770 65 0 65 0 0 770 0 770 65 0 65 0 0
70 0 70 -65 0 -65 0 0 315 0 315 580 0 580 0 0 70 0 70 -442 -2 -443 -3 438
-2 437 -3 0 -60 0 -60 -577 -2 -578 -3 -3 -94 c-3 -106 -12 -121 -66 -121 -20
0 -36 -5 -36 -11 0 -7 10 -9 25 -7 13 3 22 1 19 -3 -3 -5 -14 -9 -24 -9 -13 0
-20 -9 -23 -27 -2 -16 -5 41 -6 125 l-1 152 -88 0 -88 0 -55 -53 c-168 -163
-182 -174 -214 -166 -28 6 -29 7 -7 14 12 4 22 12 22 17 0 5 40 50 89 101 49
51 110 115 136 142 l47 50 -33 3 c-29 3 -42 -6 -118 -80 l-86 -83 85 88 85 87
112 0 113 0 0 260 c0 143 -2 260 -5 260 -3 0 -5 -115 -5 -255z"/>
<path d="M886 3489 c-44 -35 -56 -70 -56 -166 0 -138 29 -226 103 -312 29 -34
29 -37 23 -109 -4 -48 -15 -95 -31 -130 -30 -65 -27 -82 4 -20 11 24 21 36 21
28 0 -18 -35 -72 -45 -70 -10 3 -95 -82 -95 -95 0 -6 34 -44 75 -85 l75 -74 0
-77 c0 -126 40 -204 129 -252 28 -16 65 -27 86 -27 36 0 37 -1 30 -27 -12 -50
-54 -92 -128 -130 -257 -129 -413 -314 -478 -568 -20 -81 -23 -114 -23 -325
l-1 -235 968 -3 967 -2 0 214 c0 239 -12 330 -61 457 -38 99 -95 187 -178 272
-75 79 -139 125 -260 187 -68 35 -89 52 -112 89 -29 44 -29 47 -29 193 0 92 4
148 10 148 24 0 90 74 102 114 7 22 22 57 35 77 13 20 21 43 18 51 -4 9 -2 19
4 23 7 4 8 -1 4 -12 -4 -13 -3 -15 5 -8 6 6 23 42 38 80 23 60 27 87 29 185 1
63 0 89 -2 58 l-4 -58 -49 0 c-40 0 -50 -3 -51 -17 -1 -10 -5 18 -10 63 -4 44
-15 96 -23 115 -11 24 -15 26 -11 9 22 -100 26 -155 15 -217 -15 -86 -39 -148
-53 -134 -14 14 -30 14 -21 0 4 -7 -2 -7 -17 1 -35 18 -38 23 -9 16 22 -6 23
-5 9 6 -12 10 -17 37 -21 108 -7 149 -53 226 -167 278 -74 34 -158 28 -233
-17 -119 -71 -159 -86 -228 -85 -78 1 -124 19 -182 72 -24 22 -47 40 -51 40
-5 0 -12 4 -15 8 -4 4 -1 4 6 0 16 -10 15 -6 -8 45 -11 24 -20 37 -20 29 0 -9
-18 -33 -40 -55 -21 -21 -37 -43 -34 -49 3 -6 -2 -2 -10 9 -26 31 -38 84 -43
195 -5 123 9 163 67 192 19 10 28 18 19 18 -9 0 -28 -9 -43 -21z m687 -421
c-32 -28 -82 -75 -112 -105 -30 -29 -59 -53 -65 -54 -6 0 -102 0 -213 0 -139
0 -203 -3 -203 -10 0 -7 19 -10 50 -7 50 3 50 3 49 -27 0 -16 -7 -48 -15 -70
-13 -39 -13 -32 1 48 l7 37 -44 0 c-44 0 -45 -1 -57 -41 -7 -23 -14 -39 -17
-37 -2 2 1 20 6 39 18 63 13 140 -12 168 -13 14 -16 20 -8 14 13 -10 22 -5 49
27 l33 39 45 -34 c118 -90 231 -85 387 16 50 33 89 46 144 48 l32 1 -57 -52z
m216 -33 c48 -55 62 -99 66 -205 2 -81 2 -84 -4 -25 l-6 70 -47 3 -48 3 0
-125 0 -125 38 -4 37 -4 -42 -1 -43 -2 0 143 c0 123 -3 146 -20 174 -10 17
-29 37 -41 43 -21 12 -21 12 16 50 22 23 34 43 30 50 -15 24 32 -9 64 -45z
m-101 -79 l37 -34 3 -156 3 -156 45 0 c31 0 50 -6 64 -20 45 -45 9 -100 -66
-100 l-45 0 3 -222 c3 -220 3 -224 30 -278 32 -64 32 -63 -62 -109 -49 -23
-67 -26 -160 -26 -92 0 -112 4 -160 27 -93 44 -94 45 -65 101 13 27 27 68 30
91 l7 43 130 21 c72 11 132 23 135 25 5 6 -14 118 -22 126 -3 2 -95 -10 -204
-28 -186 -30 -201 -32 -229 -17 -54 28 -62 50 -62 161 0 98 -1 102 -28 128
-16 15 -31 25 -35 22 -4 -3 -5 -2 -2 2 7 9 -26 44 -35 38 -11 -7 -7 15 8 43 7
12 10 28 6 34 -4 7 -3 8 4 4 14 -8 35 30 28 50 -3 8 -2 12 4 9 11 -7 40 86 40
128 0 26 3 28 23 22 12 -4 61 -9 108 -12 108 -7 169 10 264 71 58 38 78 46
118 46 40 0 53 -5 85 -34z m-381 -1190 c176 -88 403 -67 554 54 l36 28 74 -40
c160 -87 255 -181 325 -323 59 -119 74 -195 74 -382 l0 -153 -125 0 -125 0 0
190 0 190 -65 0 -65 0 0 -190 0 -190 -447 0 -448 0 3 190 3 190 -71 0 -70 0 0
-190 0 -190 -125 0 -125 0 0 138 c1 163 17 261 59 362 63 150 178 271 336 354
l80 42 35 -27 c19 -14 59 -38 87 -53z"/>
<path d="M1776 3445 c70 -35 159 -103 120 -90 -14 4 -30 -5 -55 -29 l-36 -35
-45 28 c-102 63 -115 65 -472 69 l-328 3 2 -88 2 -88 3 83 4 82 288 0 c159 0
313 -4 342 -10 90 -17 190 -72 253 -141 31 -33 67 -82 81 -107 13 -26 24 -43
25 -39 0 13 -30 69 -57 105 l-25 33 41 44 41 45 31 -43 c43 -59 69 -110 95
-192 13 -38 23 -60 24 -48 0 34 -45 146 -83 205 -69 107 -203 216 -297 242
-14 4 7 -9 46 -29z"/>
<path d="M258 3193 l-48 -49 0 -77 0 -77 50 52 c59 62 65 79 53 148 l-8 51
-47 -48z"/>
<path d="M3142 2933 l2 -68 3 63 4 62 257 0 c245 0 255 -1 232 -17 -14 -10
-33 -28 -43 -40 -18 -23 -22 -23 -228 -23 -133 0 -209 -4 -209 -10 0 -6 74
-11 198 -12 l197 -2 -200 -6 c-192 -5 -187 -6 118 -8 l317 -2 0 65 0 65 -325
0 -325 0 2 -67z"/>
<path d="M3147 2743 c-4 -3 -7 -35 -7 -70 l0 -63 325 0 325 0 0 63 0 62 -193
0 c-105 0 -247 -1 -314 -3 l-123 -2 0 -50 0 -49 68 -4 67 -3 -73 -2 -74 -2 4
65 c1 36 3 65 2 65 0 0 -4 -3 -7 -7z"/>
<path d="M3144 2476 c-3 -7 -4 -38 -2 -67 l3 -54 323 -3 322 -2 0 70 0 70
-320 0 c-262 0 -322 -2 -326 -14z"/>
<path d="M3914 2476 c-3 -7 -4 -38 -2 -67 l3 -54 68 -3 67 -3 0 71 0 70 -65 0
c-46 0 -67 -4 -71 -14z"/>
<path d="M3140 2165 l0 -65 325 0 325 0 0 65 0 65 -325 0 -325 0 0 -65z"/>
<path d="M3910 2165 l0 -65 70 0 70 0 0 65 0 65 -70 0 -70 0 0 -65z"/>
<path d="M3142 623 l3 -68 65 0 65 0 3 68 3 67 -71 0 -71 0 3 -67z"/>
<path d="M3402 623 l3 -68 65 0 65 0 0 65 0 65 -68 3 -68 3 3 -68z"/>
<path d="M3660 620 l0 -70 65 0 65 0 0 70 0 70 -65 0 -65 0 0 -70z"/>
<path d="M830 355 l0 -155 70 0 70 0 0 155 0 155 -70 0 -70 0 0 -155z"/>
<path d="M1090 355 l0 -155 65 0 65 0 0 155 0 155 -65 0 -65 0 0 -155z"/>
<path d="M1860 355 l0 -155 65 0 65 0 0 155 0 155 -65 0 -65 0 0 -155z"/>
<path d="M2120 355 l0 -155 65 0 65 0 0 155 0 155 -65 0 -65 0 0 -155z"/>
<path d="M320 365 l0 -65 65 0 65 0 0 65 0 65 -65 0 -65 0 0 -65z"/>
<path d="M570 365 l0 -65 70 0 70 0 0 65 0 65 -70 0 -70 0 0 -65z"/>
<path d="M1344 416 c-3 -7 -4 -35 -2 -62 l3 -49 68 -3 67 -3 0 66 0 65 -65 0
c-47 0 -67 -4 -71 -14z"/>
<path d="M1600 365 l0 -65 70 0 70 0 0 65 0 65 -70 0 -70 0 0 -65z"/>
<path d="M2370 365 l0 -65 70 0 70 0 0 65 0 65 -70 0 -70 0 0 -65z"/>
<path d="M2630 365 l0 -66 68 3 67 3 0 60 0 60 -67 3 -68 3 0 -66z"/>
<path d="M3140 365 l0 -65 135 0 135 0 0 65 0 65 -135 0 -135 0 0 -65z"/>
<path d="M3530 365 l0 -65 130 0 130 0 0 65 0 65 -130 0 -130 0 0 -65z"/>
<path d="M3147 173 c-4 -3 -7 -35 -7 -70 l0 -63 325 0 325 0 0 70 0 70 -318 0
c-175 0 -322 -3 -325 -7z"/>
</g>
</svg>
