<?xml version="1.0" standalone="no"?>
<!DOCTYPE svg PUBLIC "-//W3C//DTD SVG 20010904//EN"
 "http://www.w3.org/TR/2001/REC-SVG-20010904/DTD/svg10.dtd">
<svg version="1.0" xmlns="http://www.w3.org/2000/svg"
 width="409.000000pt" height="409.000000pt" viewBox="0 0 409.000000 409.000000"
 preserveAspectRatio="xMidYMid meet">
<metadata>
Created by potrace 1.16, written by Peter Selinger 2001-2019
</metadata>
<g transform="translate(0.000000,409.000000) scale(0.100000,-0.100000)"
fill="#000000" stroke="none">
<path d="M2488 3153 c-2 -362 -4 -560 -5 -440 l-3 217 -50 0 -50 0 -3 -217
c-1 -120 -3 18 -5 307 -2 504 -3 526 -22 558 -42 69 -120 90 -181 49 -69 -45
-69 -47 -71 -487 -1 -217 -4 -353 -5 -302 l-4 92 -44 0 -45 0 -2 -77 c-2 -43
-5 102 -8 322 l-5 400 -3 -396 -2 -396 -259 104 c-143 57 -286 108 -318 114
-88 17 -187 1 -296 -46 -15 -6 -17 0 -18 56 -1 35 -5 75 -10 89 -5 16 -6 1 -2
-41 3 -37 2 -81 -2 -98 -6 -29 -9 -31 -54 -31 -47 0 -48 -1 -59 -37 -14 -47
-69 -136 -80 -129 -5 3 -26 -13 -48 -36 -21 -22 -33 -38 -26 -34 18 10 15 1
-5 -15 -11 -10 -14 -10 -9 -1 9 15 1 15 -25 1 -11 -5 -18 -13 -15 -17 2 -4 -6
-8 -17 -9 -12 -1 -51 -9 -87 -17 -36 -8 -83 -13 -105 -10 -53 8 -135 33 -160
50 -23 16 -39 18 -30 4 10 -16 -1 -11 -16 7 -12 15 -12 16 1 8 8 -4 -3 10 -24
33 -21 23 -43 40 -48 39 -5 -1 -17 9 -25 23 l-15 25 22 -25 c25 -29 24 -25
-15 55 -27 54 -30 69 -30 160 0 93 2 105 32 166 39 79 102 140 181 177 50 24
70 27 157 27 87 0 107 -3 157 -27 111 -52 197 -164 217 -284 l9 -49 1 41 c3
99 -109 247 -227 302 -50 24 -69 27 -157 27 -88 0 -107 -3 -157 -27 -76 -35
-148 -104 -189 -181 -30 -55 -34 -72 -37 -157 -3 -78 0 -105 17 -150 13 -37
15 -48 5 -35 -8 11 -19 36 -25 57 -9 37 -11 38 -54 38 -40 0 -45 -3 -46 -22
-1 -13 -5 -3 -11 22 -5 25 -7 79 -4 120 3 47 2 66 -4 50 -13 -41 -11 -152 5
-215 16 -63 66 -171 76 -164 8 6 39 -21 39 -34 0 -6 -7 -2 -15 9 -8 10 -15 14
-15 8 0 -20 131 -136 147 -130 8 3 11 1 8 -4 -16 -26 157 -80 255 -80 69 0
131 10 125 20 -3 5 3 6 13 3 10 -2 39 5 66 16 26 12 49 21 50 21 2 0 -65 -215
-149 -477 l-151 -477 -57 3 c-77 3 -146 -21 -196 -69 -55 -54 -73 -93 -79
-175 -4 -65 -8 -73 -44 -113 -62 -67 -83 -123 -83 -217 0 -60 6 -91 21 -126
21 -45 21 -46 2 -83 -47 -92 -29 -213 43 -288 l39 -42 -65 -203 c-36 -112 -65
-208 -65 -213 0 -6 669 -10 1805 -10 l1805 0 0 643 0 642 48 18 c66 23 135 86
168 153 30 62 43 173 26 223 -11 30 -9 34 33 72 25 23 57 67 72 98 24 47 28
69 28 136 0 95 -22 150 -84 218 -28 30 -41 53 -41 73 -1 40 -43 140 -59 136
-7 -1 -10 2 -6 8 9 15 -14 41 -29 33 -6 -3 -8 -2 -3 2 4 5 0 17 -10 27 -18 20
-38 25 -27 6 4 -7 3 -8 -5 -4 -6 4 -9 12 -5 17 3 5 -20 21 -50 35 l-56 25 0
327 c0 300 -4 365 -25 415 -6 13 -2 17 17 17 49 0 125 30 167 67 60 50 91 121
89 198 l-1 60 -6 -71 c-8 -85 -43 -151 -102 -194 -43 -31 -136 -56 -169 -45
-24 8 -24 7 -3 -41 16 -34 19 -85 23 -396 3 -196 2 -354 -2 -351 -5 2 -8 76
-8 164 l0 159 -50 0 -50 0 -3 -282 c-1 -199 -3 -146 -5 180 -2 510 -1 504 -65
542 -19 12 -48 19 -72 19 l-40 -2 45 -6 c57 -9 86 -27 105 -67 13 -27 15 -103
15 -487 l0 -455 -37 -7 c-81 -15 -161 -76 -193 -148 -16 -37 -26 -45 -70 -61
-67 -24 -143 -94 -176 -162 -87 -178 6 -389 197 -449 45 -14 59 -24 75 -52 26
-50 99 -110 156 -130 l48 -18 0 -572 0 -573 -700 0 -700 0 0 345 c0 269 -3
353 -14 378 -7 18 -91 120 -187 227 -96 107 -192 217 -213 243 l-39 48 68 292
c37 161 69 294 71 295 1 2 16 -6 32 -18 33 -25 95 -35 147 -26 37 7 97 53 118
90 9 16 13 206 17 753 5 725 5 732 26 760 12 15 38 34 59 42 51 20 110 0 142
-48 l23 -34 0 -528 0 -529 70 0 70 0 0 660 c0 363 -2 660 -5 660 -3 0 -6 -296
-7 -657z m-1043 -174 c50 -13 325 -122 320 -127 -2 -3 -50 14 -106 37 l-102
42 -237 -3 c-244 -3 -259 0 -173 33 94 37 198 43 298 18z m253 -229 l282 -113
0 -237 c0 -131 -3 -246 -6 -254 -10 -26 -41 -38 -63 -26 -31 16 -63 114 -55
167 9 61 -16 121 -71 171 -25 23 -45 46 -45 52 0 6 -4 9 -9 6 -5 -4 -7 2 -5
11 4 20 -46 98 -63 98 -14 0 -28 14 -28 28 0 19 -77 65 -136 81 -116 33 -206
11 -256 -63 -40 -59 -40 -90 6 -286 23 -99 41 -190 41 -202 0 -26 -72 -212
-96 -248 -29 -45 -82 -69 -162 -75 l-74 -5 0 -65 0 -65 78 0 c86 1 125 12 192
58 65 43 93 91 167 275 80 201 95 226 153 263 75 48 172 48 172 1 0 -10 -49
-226 -109 -480 -71 -301 -118 -481 -135 -517 -41 -82 -105 -146 -277 -275
-167 -126 -223 -183 -239 -239 -9 -34 -24 -168 -51 -473 l-12 -138 -338 0
-337 0 26 83 c15 45 28 84 29 86 2 2 25 -8 52 -22 39 -22 62 -27 115 -27 79 0
119 15 176 66 48 43 64 72 81 140 7 29 26 64 47 88 54 60 82 130 82 205 0 60
2 66 39 106 71 77 86 117 86 225 0 80 -4 102 -23 138 -53 100 -148 169 -247
179 -30 3 -55 8 -55 11 0 3 27 91 61 196 84 266 214 670 255 800 20 59 33 115
30 123 -3 8 -1 11 4 8 6 -3 10 0 10 8 0 7 11 36 25 63 29 56 29 58 13 48 -7
-4 -8 -3 -4 5 4 6 11 9 15 7 4 -3 25 13 47 35 70 72 145 100 254 95 68 -3 100
-13 358 -116z m-220 -151 c31 -12 34 -11 26 4 -4 7 -3 9 2 4 5 -5 9 -14 9 -20
0 -7 8 -11 18 -11 9 1 15 -2 12 -6 -6 -9 29 -42 38 -35 4 3 5 2 2 -1 -2 -4 0
-14 5 -24 7 -14 0 -20 -46 -39 -29 -13 -52 -27 -48 -32 3 -5 -1 -6 -8 -4 -8 3
-32 -10 -55 -30 l-41 -35 -21 88 c-26 106 -26 138 -3 151 17 10 67 6 110 -10z
m2230 -167 c43 -43 65 -106 56 -163 -5 -31 -2 -37 42 -69 59 -43 84 -90 84
-153 0 -89 -45 -149 -137 -183 -26 -9 -52 -21 -57 -25 -4 -4 4 -23 19 -43 94
-123 48 -276 -94 -316 -90 -25 -191 37 -221 135 l-16 50 -49 3 c-74 4 -91 9
-130 44 -47 41 -67 81 -68 137 0 49 27 113 60 143 22 21 93 51 93 41 -1 -5 -7
-19 -15 -33 -18 -32 -19 -133 -1 -168 32 -62 112 -112 179 -112 85 0 177 82
192 171 20 115 -85 226 -206 217 -54 -3 -59 4 -34 52 34 66 104 87 182 55 64
-27 63 -29 63 120 0 83 4 135 10 135 6 0 27 -17 48 -38z m-3240 -970 c9 -7 8
-21 -7 -65 l-20 -57 108 0 c172 0 243 -39 270 -147 21 -83 -16 -163 -97 -210
-26 -14 -48 -28 -50 -29 -2 -1 4 -27 13 -58 21 -70 13 -122 -24 -173 -15 -21
-44 -47 -64 -58 -36 -19 -37 -20 -31 -70 16 -155 -184 -198 -237 -52 -7 21
-17 37 -22 37 -5 0 -24 7 -43 16 -42 20 -64 59 -64 115 0 36 6 48 45 87 l45
45 -27 34 c-68 84 -81 158 -43 234 20 37 85 90 132 105 17 5 17 7 2 37 -50 96
-25 181 62 207 38 11 37 11 52 2z m1308 -367 c88 -99 169 -193 182 -209 22
-28 22 -33 22 -357 l0 -329 -475 0 -475 0 4 23 c3 12 13 105 21 207 25 287 32
339 48 364 9 13 94 82 189 154 174 131 236 192 287 284 14 26 29 47 32 45 3
-1 78 -83 165 -182z"/>
<path d="M2742 3153 l-2 -663 70 0 70 0 0 529 0 528 23 34 c32 48 91 68 142
48 21 -8 47 -27 59 -42 21 -28 21 -37 24 -563 l3 -534 64 0 65 0 0 383 c0 230
4 397 10 419 6 20 24 48 41 62 17 14 27 26 22 26 -5 0 -20 -10 -32 -21 -46
-43 -51 -73 -53 -326 -1 -131 -3 -208 -5 -170 l-4 67 -44 0 -44 0 -4 -112 c-1
-62 -4 74 -5 302 -2 462 -2 461 -71 507 -61 41 -139 20 -181 -49 -19 -32 -20
-54 -22 -558 -2 -289 -4 -427 -5 -307 l-3 217 -50 0 -50 0 -2 -217 c-2 -120
-5 79 -8 442 l-5 660 -3 -662z"/>
<path d="M2210 1962 c-19 -10 -48 -36 -65 -56 -26 -33 -30 -47 -33 -112 l-4
-74 66 0 66 0 0 45 c0 70 48 106 96 71 18 -13 19 -32 24 -254 l5 -240 30 -44
c90 -129 279 -110 340 34 11 28 15 75 15 193 0 142 2 157 20 175 25 25 62 26
83 2 15 -17 17 -65 17 -487 0 -340 3 -479 12 -509 23 -76 109 -136 195 -136
42 0 112 39 147 83 l31 39 3 329 3 329 -66 0 -65 0 0 -298 c0 -329 -2 -342
-60 -342 -62 0 -60 -16 -60 508 0 534 1 524 -73 589 -73 64 -163 68 -239 10
-71 -55 -78 -79 -78 -262 0 -178 -8 -205 -58 -205 -57 0 -57 -1 -62 257 -5
228 -6 240 -28 276 -41 65 -85 91 -161 95 -51 2 -74 -1 -101 -16z"/>
</g>
</svg>
