<?xml version="1.0" encoding="utf-8"?>
<!-- Generator: Adobe Illustrator 17.0.0, SVG Export Plug-In . SVG Version: 6.00 Build 0)  -->
<!DOCTYPE svg PUBLIC "-//W3C//DTD SVG 1.1//EN" "http://www.w3.org/Graphics/SVG/1.1/DTD/svg11.dtd">
<svg version="1.1" id="Capa_1" xmlns="http://www.w3.org/2000/svg" xmlns:xlink="http://www.w3.org/1999/xlink" x="0px" y="0px"
	 width="409px" height="409px" viewBox="0 0 409 409" enable-background="new 0 0 409 409" xml:space="preserve">
<g>
	<path fill="#FEFEFE" d="M415.959,206.479c0,66.827-0.033,133.653,0.097,200.48c0.007,3.424-0.673,4.098-4.096,4.095
		c-133.987-0.112-267.973-0.112-401.96,0c-3.423,0.003-4.098-0.671-4.095-4.095C6.017,272.973,6.017,138.986,5.905,5
		C5.902,1.576,6.576,0.902,10,0.905c133.987,0.112,267.973,0.112,401.96,0c3.424-0.003,4.103,0.67,4.096,4.095
		C415.926,72.159,415.959,139.319,415.959,206.479z"/>
	<path fill="#8E8E8E" d="M251.864,223.981c2.229-6.518,6.882-11.09,12.774-14.013c4.519-2.242,3.767-3.731,1.169-7.121
		c-13.285-17.333-19.405-36.831-16.67-58.773c0.911-0.66,1.956-0.727,2.797-0.1c4.504,3.356,8.932,6.806,11.401,12.086
		c1.621,8.637,2.926,17.314,6.955,25.355c5.106,10.193,12.282,18.494,21.402,25.201c1.151,0.846,2.462,2.256,3.951,0.945
		c1.269-1.118,0.725-2.786,0.3-4.227c-0.636-2.154-2.283-3.629-3.656-5.286c-1.477-1.781-2.604-3.595-0.274-5.58
		c3.81,0.691,11.168,6.856,10.993,10.332c-0.413,8.194,4.761,13.313,9.162,18.964c1.671,4.142,1.121,8.863,3.348,12.855
		c3.711,3.521,8.644,2.914,13.096,3.781c3.09,0.602,6.197,0.987,9.054,2.407c2.285,11.13,12.575,15.997,18.828,24.028
		c2.84,4.33,6.408,8.004,9.975,11.737c2.438,2.552,5.82,5.307,3.628,9.815c-1.863,0.829-3.125-0.046-4.342-1.394
		c-6.031-6.682-12.906-12.563-18.848-19.296c-4.848-5.494-10.675-8.272-17.744-8.982c-5.141-0.516-10.28-1.244-15.279-2.432
		c-6.24-1.483-11.314,0.388-16.497,3.611c-3.276,2.037-5.519,5.989-10.058,5.869c-0.796-0.323-1.665-0.972-1.541-1.712
		c0.816-4.846-2.634-7.682-5.006-11.039c-0.38-2.556,1.3-3.894,3.046-5.242c2.755-2.126,5.621-4.064,8.601-5.872
		c5.549-3.366,5.383-8.687-0.287-12.001c-1.999-1.168-4.065-2.211-6.015-3.475c-7.355-4.767-14.067-3.486-19.319,3.621
		c-1.242,1.68-1.977,3.982-4.715,3.826C258.83,229.058,255.381,226.476,251.864,223.981z"/>
	<path fill="#949494" d="M315.771,72.91c2.935-0.504,5.865-1.408,8.806-1.445c17.102-0.214,34.245-1.378,51.292,0.637
		c15.851,1.873,28.28,20.368,25.551,36.085c-1.915,11.029-7.775,18.383-17.354,23.342c-1.476,0.764-3.069,1.424-3.249,3.422
		c-2.572,0.792-2.949-1.554-3.986-2.86c-2.568-3.235-5.419-5.886-9.948-5.616c-0.821,0.049-1.824-0.101-2.279,0.659
		c-0.658,1.098,0.349,1.822,0.992,2.516c1.693,1.826,3.535,3.51,5.197,5.365c1.21,1.349,2.621,2.639,2.152,4.77
		c0.554,9.645,0.105,19.456,4.931,28.346c0.962,1.772,1.042,3.427-0.444,4.965c-2.432,1.223-3.717-0.494-4.93-2.057
		c-3.143-4.051-4.729-8.703-4.946-13.809c-0.169-3.975,0.144-7.965-0.196-11.93c-0.427-4.971-2.596-7.469-7.456-7.645
		c-11.097-0.402-22.206-0.345-33.309-0.017c-4.174,0.123-7.401,2.677-10.947,4.403c-0.551,0.09-1.097,0.051-1.635-0.094
		c-2.838-3.962-7.033-6.772-9.528-11.06c1.901-6.631,7.975-7.928,13.246-9.986c3.552-1.386,7.479-1.397,11.336-1.397
		c13.813,0.001,27.631,0.268,41.438-0.114c8.157-0.226,14.335-6.227,15.493-14.312c1.066-7.435-3.691-14.814-11.216-17.45
		c-2.88-1.009-5.856-1.157-8.864-1.16c-10.485-0.013-20.97,0.033-31.455-0.028c-2.646-0.015-5.337,0.216-7.885-0.8
		c-0.718-0.446-1.483-1.043-1.502-1.874c-0.111-4.735-2.925-7.135-7.057-8.498C316.874,74.888,315.878,74.306,315.771,72.91z"/>
	<path fill="#8C8C8C" d="M123.184,223.054c-1.825,1.135-3.599,2.362-5.484,3.388c-5.22,2.84-5.612,6.608-0.975,10.386
		c11.263,9.179,20.233,20.136,26.424,33.362c5.592,11.947,8.605,24.504,8.688,37.631c0.19,29.961-0.014,59.925,0.195,89.886
		c0.034,4.799-1.373,6.248-6.189,6.226c-38.617-0.172-77.236-0.15-115.854-0.023c-4.382,0.014-6.131-1.044-6.065-5.827
		c0.267-19.472,0.128-38.95,0.161-58.425c0.004-2.32-0.161-4.676,0.813-6.888c2.683,1.238,2.278,3.784,2.481,6.022
		c0.179,1.975,0.162,3.968,0.439,5.937c-1.338,3.22-0.366,6.536-0.357,9.81c0.033,11.965-0.044,23.931,0.033,35.896
		c0.053,8.286,1.727,9.872,9.937,10.052c14.111,0.309,28.243,0.366,42.338,0.349c19.703-0.024,39.422-0.173,59.133-0.341
		c4.032-0.034,7.687-0.533,9.479-4.828c0.747-4.363-0.046-8.675-0.367-13.002c1.337-3.696,0.518-7.491,0.496-11.243
		c-0.088-14.917,0.182-29.836-0.142-44.74c1.547-8.606,0.009-16.326-6.423-22.716c-1.172-1.164-2.59-1.36-4.011-1.74
		c-2.005-0.91-2.067-2.803-2.366-4.608c-2.885-17.422-10.464-32.358-23.385-44.54c-5.822-5.489-6.932-5.701-14.455-2.239
		c-2.762,1.271-5.311,3.657-8.805,2.481c-2.89-3.368-5.495-7.114-11.001-5.751c-1.216,0.301-2.483-0.833-2.432-2.53
		c3.123-5.707,9.011-7.86,14.371-10.018c6.881-2.77,9.218-7.132,8.755-14.196c-0.422-6.443-0.218-12.942,0.002-19.411
		c0.076-2.237-0.271-4.825,2.637-5.856c1.883-0.038,2.803,1.241,2.804,2.779c0.004,6.205,4.136,10.103,7.694,14.343
		c2.795,3.019,6.193,5.318,9.431,7.803C122.108,221.191,123.153,221.697,123.184,223.054z"/>
	<path fill="#969696" d="M11.864,107.258C8.28,93.282,20.551,74.982,36.056,72.336c4.439-0.758,8.874-1.333,13.405-1.196
		c14.806,0.449,29.667-1.049,44.422,1.01c11.474,1.601,22.443,4.741,31.891,11.873c-0.709,1.37,0.46,2.383,1.102,2.948
		c4.17,3.672,7.775,7.475,8.068,13.557c0.112,2.314,2.591,3.772,3.767,5.756c1.24,2.092,3.02,4.327-0.107,6.412
		c-2.429,0.533-3.581-1.209-4.913-2.705C119.824,94.415,102.37,86.71,81.599,86.481c-11.329-0.125-22.661-0.019-33.991-0.027
		c-3.015-0.002-5.985,0.221-8.895,1.084c-9.225,2.736-13.872,11.681-11.06,20.87c0.806,2.635,3.308,4.765,2.451,7.903
		c-2.334,3.022-4.373,1.261-6.034-0.639c-2.076-2.374-4.508-4.322-6.807-6.433C15.739,107.842,13.964,107.1,11.864,107.258z"/>
	<path fill="#8B8B8B" d="M251.864,223.981c4.423-1.542,8.432,1.216,10.094,6.944c1.154,0.764,2.055,1.698,1.896,3.214
		c-1,9.575,3.804,15.597,11.95,19.592c0.591,0.29,1.097,0.731,1.647,1.097c1.202,5.205,6.42,7.199,9.054,11.279
		c0.164,2.034-1.244,3.399-2.183,4.923c-5.49,8.904-7.964,18.583-7.898,29.015c0.084,13.164-0.002,26.33,0.028,39.494
		c0.02,8.829,1.218,9.967,10.221,9.95c0.5-0.001,1,0.004,1.5-0.007c6.54-0.144,7.79-1.306,8.374-7.824
		c0.119-1.327,0.1-2.686,0.609-3.934c0.881-2.159,2.141-3.819,4.884-3.148c2.392,1.787,1.38,4.421,1.688,6.731
		c-1.539,4.008,0.039,8.673-2.61,12.452c-1.01,0.836-2.089,1.529-3.417,1.739c-7.239,1.622-14.548,0.969-21.833,0.607
		c-3.701-0.184-4.982-2.719-5.19-6.104c-0.458-7.465,0.188-14.952-0.487-22.404c1.326-4.634,0.099-9.3,0.127-13.942
		c-0.052-2.909,0.745-5.836-2.067-8.318c-2.412-2.129-3.207-1.264-3.961,1.122c-0.032,4.155,0.499,8.248,1.085,12.343
		c-0.199,6.594-0.291,13.177-0.823,19.761c-0.644,7.969,0.442,16.002-1.023,23.994c-0.521,2.842-0.019,6.004,1.186,8.85
		c0.233,1.628,0.004,3.202-0.56,4.733c-0.054,4.36,0.452,8.697,0.578,13.051c-1.902,8.027,2.341,12.594,10.296,11.179
		c6.443-1.146,12.881,0.277,19.334,0.252c16.262-0.062,32.529-0.087,48.792,0.086c6.976,0.074,14.144,0.241,21.184-0.571
		c4.019-0.622,7.952-0.701,11.455,1.86c-0.775,2.532-2.939,1.794-4.613,1.796c-34.977,0.045-69.953-0.026-104.929,0.11
		c-4.284,0.017-5.308-1.6-5.292-5.577c0.137-34.31,0.025-68.621,0.183-102.93c0.039-8.397,1.99-16.536,5.754-24.09
		c1.521-3.053,0.957-4.478-2.041-6.205C249.56,256.292,243.999,238.31,251.864,223.981z"/>
	<path fill="#939393" d="M138.96,112.064c-0.591-2.49-2.103-4.448-3.745-6.3c-2.191-2.472-4.066-4.735-3.67-8.63
		c0.35-3.445-3.502-5.317-5.066-8.16c-0.857-1.558-3.194-2.914-0.704-4.951c20.736,12.515,32.935,30.915,37.535,54.529
		c2.636,13.534,1.572,26.789-3.167,39.744c-4.026-2.656-7.394-6.208-11.648-8.564c-1.096-2.106-0.434-4.256-0.1-6.363
		c2.554-16.116-0.771-31.054-8.818-45.106C138.506,116.395,136.464,114.388,138.96,112.064z"/>
	<path fill="#919191" d="M376.939,173.063c-0.794-4.925-4.311-8.774-5.075-13.838c-1.021-6.756-0.785-13.488-0.898-20.24
		c0.798-0.694,2.032-1.125,2.63-0.446c2.769,3.139,5.575,1.519,8.427,0.352c1.402,4.547,0.704,9.224,0.658,13.824
		c-0.046,4.517,1.039,8.423,3.713,12.065c2.448,3.333,4.82,6.77,6.788,10.398c5.221,9.624-0.513,22.392-11.087,23.316
		c-5.735,0.501-6.471,3.017-6.266,7.425c-2.744,0.53-2.829-1.582-3.226-3.306c-0.6-2.609-1.311-5.109-4.349-6.415
		c-1.875,3.306,0.026,6.873-0.937,10.12c-0.908,2.59-0.898,6.091-5.229,5.259c-0.933-0.526-1.47-1.348-1.487-2.403
		c-0.11-6.943-0.325-13.888,0.161-20.826c0.208-2.976,1.961-4.373,4.839-4.619c2.146-0.184,4.299-0.114,6.442-0.259
		c4.886-0.329,5.797-1.516,4.476-6.212C376.08,175.696,375.948,174.379,376.939,173.063z"/>
	<path fill="#919191" d="M18.169,180.945c-0.121-4.718,2.695-8.224,5.355-11.521c5.302-6.571,7.564-13.772,6.758-22.189
		c-0.391-4.079-0.532-8.341,1.787-12.123c0.956-0.176,2.077-0.509,2.771,0.274c2.631,2.974,6.363,4.114,9.654,6.009
		c1.88,11.198,2.161,22.089-5.219,31.829c-1.727,2.279-4.543,4.8-3.135,7.931c1.617,3.593,5.523,2.174,8.51,2.366
		c6.577,0.424,7.651,1.189,7.703,7.618c0.055,6.769,0.62,13.55-0.145,20.318c-2.38,2.418-4.145,1.079-5.591-1.058
		c-1.964-2.903-4.402-5.339-6.996-7.642c-0.806-3.973-4.484-5.172-7.076-7.483C27.496,190.77,22.955,185.73,18.169,180.945z"/>
	<path fill="#8D8D8D" d="M362.21,210.991c2.551-1.257,2.683-3.626,2.765-6.018c1.003-0.711,2.263-1.059,3.121-0.217
		c2.183,2.141,5.046,1.668,7.607,2.334c-0.345,11.603-7.945,20.718-20.136,23.291c-3.743,0.79-4.549,2.292-4.902,5.844
		c-0.784,7.899,1.472,13.845,7.632,19.201c6.085,5.292,12.22,10.763,16.874,17.535c-2.213,1.937-3.735,0.186-5.115-1.137
		c-7.21-6.913-14.229-14.02-21.203-21.171c-0.697-0.715-1.438-1.458-1.769-2.399c-1.441-4.093-3.697-7.03-8.598-6.762
		c-0.789,0.043-1.472-0.712-2.063-1.331c-1.347-4.538-4.28-6.886-9.098-7.025c-2.988-0.086-4.404-2.008-4.59-4.905
		c-0.021-0.332-0.056-0.664-0.084-0.996c-0.885-10.296,0.321-11.629,10.635-11.717c3.83-0.033,7.663-0.079,11.491-0.001
		c4.934,0.101,9.665-0.425,13.669-3.695C359.57,210.908,360.84,210.74,362.21,210.991z"/>
	<path fill="#888888" d="M369.934,286.048c-0.498-3.535-3.196-5.565-5.351-8.016c-3.536-4.023-8.435-6.85-10.618-12.059
		c2.54-1.754,4.027,0.244,5.501,1.692c7.567,7.432,15.132,14.866,22.482,22.514c1.11,1.154,1.856,2.927,3.992,2.079
		c4.637,11.73,3.713,23.498-0.241,35.097c-2.359,6.921-5.854,13.394-9.601,19.693c-0.225-0.044-0.449-0.088-0.674-0.132
		c-0.77-0.342-1.297-0.941-1.75-1.626c-1.797-2.721-3.806-4.002-6.63-1.161c-0.691,0.696-1.733,0.837-2.756,0.586
		c-0.511-0.172-0.923-0.473-1.258-0.892c-1.452-2.466,0.137-4.489,1.051-6.545c2.361-5.311,5.591-10.239,7.392-15.787
		c3.152-9.707,2.628-19.298-1.361-28.727C369.213,290.633,367.175,288.353,369.934,286.048z"/>
	<path fill="#868686" d="M40.997,200.979c4.39,2.708,6.662,7.35,10.033,10.988c4.604-1.247,6.449,3.139,9.673,4.722
		c0.842,2.786,3.436,3.938,5.454,5.495c7.416,5.722,10.921,12.941,9.306,22.357c0.066,0.495,0.217,0.961,0.456,1.4
		c1.101-0.291,2.258-0.449,3.292-0.895c4.563-1.966,9.848,1.781,9.788,6.995c0.166,4.089-2.711,5.161-5.883,5.943
		c-3.471-0.363-6.233-1.972-8.608-4.536c-2.714-2.931-5.641-5.665-8.435-8.526c-2.085-2.135-3.066-4.61-3.113-7.631
		c-0.098-6.383-0.182-6.382-6.063-7.281c-13.026-2.561-20.498-13.191-19.746-28.09C37.755,198.842,39.321,199.687,40.997,200.979z"
		/>
	<path fill="#898989" d="M25.078,330.976c1.358-17.05,6.511-32.825,15.854-47.193c0.872,0.116,1.565,0.565,1.874,1.366
		c1.122,2.912,2.847,4.616,6.301,3.893c1.585-0.332,2.825,0.54,3.319,2.219c0.27,2.496-1.081,4.495-2.099,6.544
		c-7.544,15.17-10.979,31.24-10.876,48.144c0.076,12.461,0.083,24.923-0.034,37.384c-0.026,2.761,0.378,5.743-2.211,7.826
		c-2.841,0.226-3.334-1.879-3.397-3.859c-0.306-9.737-0.447-19.476-1.779-29.155c-0.247-1.796,0.707-3.536,1.239-5.259
		c0.933-6.387,0.832-12.496-4.478-17.296C27.319,334.262,26.548,332.329,25.078,330.976z"/>
	<path fill="#858585" d="M385.941,292.258c-0.39,4.908-2.494,2.64-4.224,0.928c-7.678-7.6-15.283-15.273-22.948-22.886
		c-1.527-1.517-3.199-2.888-4.805-4.327c-5.621-5.788-11.145-11.675-16.903-17.324c-2.952-2.896-3.668-5.016,0.91-6.659
		c-0.25-0.268-0.309-0.505-0.179-0.713c0.121-0.192,0.233-0.288,0.338-0.288c1.956-5.337,2.678-5.843,6.008-1.089
		c7.539,10.764,16.954,19.696,26.15,28.881c1.511,1.509,3.247,2.792,4.88,4.179C380.817,278.247,383.841,284.994,385.941,292.258z"
		/>
	<path fill="#8C8C8C" d="M56.898,230.012c4.942-0.635,7.664,1.129,7.162,6.519c-0.074,0.792-0.048,1.863,0.409,2.395
		c5.514,6.422,10.32,13.639,18.586,17.068c1.2,2.127-0.086,3.393-1.597,4.561c-9.051,6.993-17.135,14.911-23.681,24.355
		c-1.08,1.558-2.35,3.319-4.767,2.985c-3.269-2.741-6.256-5.784-9.137-8.934c3.753-7.352,9.462-13.187,15.071-19.05
		c2.233-2.334,3.398-4.658,3.267-7.909c-0.194-4.808-0.298-9.649,0.044-14.441C62.555,233.319,61.619,230.454,56.898,230.012z"/>
	<path fill="#949494" d="M260.964,156.985c-2.183-5.915-7.93-8.566-11.827-12.911c1.382-15.43,6.713-29.242,16.835-41.091
		c4.04,2.243,6.858,5.731,9.556,9.357c0.533,1.607-0.221,2.921-1.045,4.158c-7.171,10.758-9.9,22.893-11.111,35.516
		C263.19,153.927,263.365,156.106,260.964,156.985z"/>
	<path fill="#969696" d="M271.046,97.01c11.814-13.087,26.356-21.16,43.83-23.842c0.177,3.094-0.45,6.328,2.315,8.844
		c1.008,0.918,0.239,2.477,0.141,3.755c-0.574,1.87-2.185,2.375-3.792,2.812c-11.068,3.012-20.69,8.666-29.395,16.012
		c-1.143,0.965-2.297,1.942-3.969,1.663C276.479,103.827,273.227,100.946,271.046,97.01z"/>
	<path fill="#8F8F8F" d="M157.911,183.985c-5.886,15.44-15.775,27.569-29.917,36.181c-2.378-3.498-5.551-6.216-8.76-8.909
		c-0.626-2.912,1.679-4.17,3.401-5.53c8.837-6.982,15.921-15.323,20.631-25.62c0.884-1.932,1.793-4.029,4.503-3.999
		C151.389,178.414,153.692,182.431,157.911,183.985z"/>
	<path fill="#8C8C8C" d="M42.904,140.98c-0.919,2.086-1.776,4.072-4.226,1.223c-2.105-2.448-4.399-4.734-6.609-7.091
		c0.042-2.343-1.867-2.932-3.443-3.799c-9.555-5.257-15.074-13.321-16.761-24.056c0.338-1.393-0.269-3.338,1.421-3.979
		c1.724-0.655,2.559,1.168,3.603,2.128c4.136,3.802,8.218,7.663,12.32,11.503c0.737-0.337,1.464-0.261,2.191,0.041
		c3.379,4.899,8.554,7.952,12.594,12.178c4.203,4.396,4.269,6.441,0.377,11.492C43.91,140.851,43.42,140.968,42.904,140.98z"/>
	<path fill="#858585" d="M364.022,343.978c0.315-0.003,0.63-0.006,0.946-0.01c0.841,0.13,1.544,0.491,1.996,1.237
		c2.091,3.446,4.167,6.907,8.019,1.597c0.132-0.182,0.601-0.008,0.903,0.156c0,0,0.213,0.09,0.213,0.09
		c-0.102,18.316-0.204,36.632-0.305,54.948c-3.491,1.508-7.172,0.781-10.779,0.915c-0.684-2.771,1.485-2.91,3.181-3.31
		c2.992-0.706,4.14-2.559,3.629-5.481c-0.525-3.004,0.075-6.26-1.747-9.224c-5.573,8.086-5.573,8.086-8.951,4.959
		c-1.259-13.949-0.593-27.903-0.368-41.849C360.791,346.042,361.128,343.85,364.022,343.978z"/>
	<path fill="#8B8B8B" d="M382.024,138.889c-0.316,1.1-0.607,2.208-0.955,3.297c-0.466,1.459,0.791,3.831-1.252,4.275
		c-1.567,0.341-2.525-1.815-3.739-2.875c-1.727-1.508-3.41-3.066-5.112-4.603c-3.769-3.938-7.551-7.864-11.302-11.82
		c-1.247-1.316-2.568-2.594,0.669-3.164c10.351-1.823,16.528,1.428,20.485,10.951C381.803,136.085,381.858,137.504,382.024,138.889z
		"/>
	<path fill="#8A8A8A" d="M40.997,200.979c-1.434-0.306-2.783-0.265-3.845,0.943c-0.182-2.64-1.959-2.899-4.139-3.125
		c-10.048-1.042-15.626-7.836-14.844-17.852c1.807-0.875,3.181-0.131,4.435,1.157C28.73,188.399,34.865,194.688,40.997,200.979z"/>
	<path fill="#808080" d="M25.078,330.976c6.277,1.841,10.737,7.365,10.89,13.566c0.061,2.471,0.01,4.945,0.009,7.418
		c-1.58,2.785-3.567,2.439-5.805,0.824c-2.719-1.962-3.706-5.027-5.137-7.816c-0.045-4.066-0.091-8.131-0.136-12.197
		C24.958,332.171,25.018,331.573,25.078,330.976z"/>
	<path fill="#8F8F8F" d="M315.994,85.197c-0.32-1.686-1.345-2.931-2.471-4.157c-4.639-5.052-4.625-5.065,1.354-7.872
		c0.278-0.155,0.577-0.241,0.895-0.258c4.958-0.402,8.245,2.372,11.374,5.725c2.363,2.533,2.261,4.131-1.188,5.144
		C322.555,87.736,320.225,88.068,315.994,85.197z"/>
	<path fill="#888888" d="M375.704,207.09c-2.661,5.336-2.648,5.322-7.015,1.131c-1.185-1.138-2.473-2.168-3.714-3.248
		c0-4.791,0-9.582,0-15.132c7.024,3.839,10.278,9.058,10.855,16.076C375.788,206.308,375.746,206.699,375.704,207.09z"/>
	<path fill="#8A8A8A" d="M157.911,183.985c-2.592,3.264-4.393,1.172-6.313-0.858c-1.717-1.814-3.597-3.482-3.653-6.246
		c-2.364-3.872-1.96-5.232,2.051-6.895c2.783-2.822,4.242-0.088,5.927,1.456c2.045,1.874,4.039,3.814,4.219,6.853
		C159.748,180.329,159.183,182.296,157.911,183.985z"/>
	<path fill="#888888" d="M120.036,210.992c6.367,0.916,9.549,4.584,7.958,9.173c-1.351,1.385-2.908,2.424-4.81,2.888
		c-6.161-0.208-8.616-5.397-12.195-9.075c0.143-0.451,0.393-0.832,0.752-1.141c0.622-0.331,1.276-0.593,1.919-0.878
		C115.747,211.382,117.48,208.464,120.036,210.992z"/>
	<path fill="#8E8E8E" d="M271.046,97.01c4.583,0.864,7.121,4.014,8.927,7.982c0.644,4.876-1.343,7.223-5.938,7.014
		c-4.038-1.801-7.199-4.386-8.063-9.023C267.188,100.589,268.84,98.564,271.046,97.01z"/>
	<path fill="#848484" d="M43.87,278.961c4.45-0.242,7.595,2.522,9.129,8.025c0.661,1.817,0.274,2.976-1.894,3.016
		c-1.995,0.665-2.621,4.783-5.549,2.685c-2.89-2.071-6.129-4.369-4.625-8.904C41.492,281.92,42.387,280.261,43.87,278.961z"/>
	<path fill="#FEFEFE" d="M364.022,343.978c-1.282,1.956-0.84,4.167-0.859,6.283c-0.121,13.562-0.19,27.125-0.276,40.687
		c-0.528,2.38-2.104,2.967-4.395,2.988c-13.512,0.121-27.009-0.618-40.519-0.601c-2.889,0.004-6.16,0.365-7.751-3.124
		c-0.962-4.951,0.177-9.898,0.4-14.82c0.428-9.444-1.524-18.763-0.74-28.244c0.312-3.773,0.733-7.093,2.705-10.286
		c1.918-3.105,3.773-6.253,5.384-9.54c4.397-8.978,5.234-18.396,3.591-28.13c-0.056-3.903-0.812-7.649-2.622-11.144
		c-1.277-8.618-7.43-13.812-13.662-18.725c-2.454-1.935-3.232,0.891-3.882,2.767c-0.76,1.993,0.089,3.495,1.454,4.859
		c4.226,4.221,7.152,9.354,10.134,14.463c-0.183,6.486,1.892,12.758,1.49,19.302c-0.514,8.373-4.305,15.256-8.834,21.914
		c-0.877,1.29-2.078,2.154-3.75,2.097c-3.721,3.047-2.73,7.317-2.555,11.157c0.212,4.645-1.198,6.713-6.151,6.364
		c-5.126-0.361-10.296-0.115-15.447-0.096c-2.346,0.009-3.82-0.782-3.765-3.431c0.419-19.913-1.115-39.855,0.815-59.744
		c0.881-9.079,5.558-16.564,10.338-23.984c0.099-1.144,0.727-1.811,1.841-2.039c1.26-1.076,2.533-2.136,3.777-3.229
		c7.885-6.93,16.394-8.25,27.281-7.897c23.676,0.768,35.815,16.902,49.63,31.617c0.79,0.842,1.521,1.739,2.28,2.61
		c6.052,11.531,8.297,23.584,3.993,36.151c-1.822,5.321-4.703,10.278-7.079,15.411C365.873,339.717,364.962,341.854,364.022,343.978
		z"/>
	<path fill="#FEFEFE" d="M274.035,112.007c1.979-2.338,3.959-4.676,5.938-7.014c10.312-9.683,22.214-16.472,36.02-19.797
		c3.321-0.472,6.643-0.944,9.964-1.416c14.48,0.038,28.962-0.061,43.439,0.163c10.026,0.155,17.406,6.584,19.347,16.275
		c1.545,7.713-3.078,16.429-10.631,20.243c-2.935,1.482-6.029,1.723-9.217,1.719c-14.148-0.018-28.297-0.15-42.442,0.042
		c-8.294,0.113-15.71,2.618-20.874,9.707c1.171,2.862-1.225,5.065-1.409,7.681c-2.747,3.869-2.481,8.428-2.669,12.787
		c-0.153,3.548-1.131,6.432-3.868,8.736c-8.219,6.921-9.504,15.846-7.356,25.743c0.313,2.084,2.536,3.689,1.521,6.107
		c0.497,1.664,1.587,2.995,2.903,3.958c4.103,3.002,4.956,7.064,4.608,11.835c-0.361,4.957-0.745,5.336-5.114,2.606
		c-11.672-7.294-20.586-17.057-26.595-29.527c-3.809-7.906-5.271-16.355-6.637-24.869
		C260.543,140.604,265.149,125.683,274.035,112.007z"/>
	<path fill="#FEFEFE" d="M338.132,240.989c-0.053,0.334-0.107,0.667-0.16,1.001c-8.733-0.435-17.265-2.15-25.772-4.026
		c-0.277-0.207-0.645-0.448-0.636-0.708c0.316-9.33-0.625-18.562-2.148-27.746c-0.361-2.176,0.851-4.106,0.623-6.347
		c-0.536-5.277-2.712-9.602-6.745-12.876c-8.196-6.656-7.859-18.592,1.506-24.498c3.455-2.179,4.826-5.395,4.667-9.33
		c-0.142-3.52,0.44-6.942,1.056-10.379c0.406-2.264,1.297-4.088,3.507-5.05c4.325-4.843,9.803-6.259,16.148-6.088
		c9.967,0.269,19.947,0.029,29.921,0.09c7.401,0.045,9.751,2.472,9.84,9.95c0.036,2.992,0.144,5.992-0.022,8.975
		c-0.412,7.408,2.229,13.64,7.023,19.107c1.46,2.399,3.071,4.721,4.345,7.215c1.717,3.361,0.513,5.457-3.249,5.671
		c-3.302,0.187-6.636,0.263-9.93,0.023c-4-0.291-5.086,1.46-5.11,5.238c-0.041,6.593,0.867,13.248-0.786,19.781
		c-3.306,5.358-8.13,7.371-14.35,7.083c-6.136-0.284-12.297,0.041-18.443-0.092c-3.097-0.067-4.748,0.905-4.459,4.25
		c0.128,1.485,0.128,2.999-0.002,4.483c-0.287,3.282,1.228,4.258,4.383,4.323C337.604,231.21,337.601,231.338,338.132,240.989z"/>
	<path fill="#FEFEFE" d="M276.973,255.923c-10.317-1.712-17.272-11.366-15.551-21.579c0.192-1.137,0.358-2.279,0.536-3.419
		c3.387-6.462,8.095-11.222,15.684-12.402c1.684-0.262,3.326-0.502,4.798,0.498c4.665,3.169,9.671,5.737,14.562,8.516
		c3.673,2.087,3.17,11.172-0.566,13.196c-5.244,2.842-10.515,5.611-14.492,10.232C282.097,254.432,280.463,256.108,276.973,255.923z
		"/>
	<path fill="#919191" d="M314.029,141.029c-2.66,6.009-1.98,12.384-1.882,18.654c0.055,3.518-0.874,5.702-4.296,7.436
		c-9.74,4.936-11.22,13.875-3.086,21.258c5.668,5.144,7.951,10.601,7.504,18.226c-0.611,10.419-0.1,20.903-0.069,31.36
		c-2.499-5.169-0.673-10.672-1.233-15.992c-1.112-1.569-2.275-3.507-2.116-5.17c0.947-9.861-5.618-15.484-11.614-21.453
		c-2.614-2.603-5.058-5.418-8.277-7.348c-4.519-9.732-1.966-21.131,6.692-28.349c2.555-2.13,3.659-4.344,3.65-7.64
		c-0.013-4.791-0.022-9.682,2.677-13.998c1.113,0.055,1.778,0.726,2.32,1.622c1.917,3.164,3.942,5.565,7.26,1.297
		c0.487-0.626,1.539-0.446,2.317,0.016L314.029,141.029z"/>
	<path fill="#888888" d="M288.96,188.001c1.628-2.112,2.852-0.647,4.019,0.513c5.267,5.235,10.472,10.533,15.766,15.741
		c2.115,2.081,2.253,4.64,2.231,7.321c-0.029,3.465-0.008,6.931-0.008,10.397c-5.671-4.636-10.951-9.082-10.286-17.85
		c0.409-5.394-5.167-7.97-8.881-11.139C290.257,191.661,289.38,189.961,288.96,188.001z"/>
	<path fill="#858585" d="M276.973,255.923c1.367-1.944,3-3.62,4.971-4.958c0.874,0.416,1.822,0.724,2.61,1.265
		c4.092,2.81,6.099,6.137,2.41,10.718c-0.614,0.68-1.228,1.359-1.841,2.039C279.785,265.289,275.413,260.428,276.973,255.923z"/>
	<path fill="#8B8B8B" d="M313.877,140.948c-1.532,1.211-2.273,2.927-2.53,4.739c-0.597,4.218-2.204,3.149-4.213,0.972
		c-2.33-2.525-5.504-4.53-5.154-8.646c0.561-2.408,1.824-4.4,3.602-6.084C310.494,132.466,313.979,136.255,313.877,140.948z"/>
	<path fill="#FEFEFE" d="M51.105,290.002c0.631-1.005,1.263-2.011,1.894-3.016c8.312-11.985,18.377-22.269,30.054-30.992
		c1.982-1.317,3.964-2.635,5.946-3.952c4.065-1.839,8.24-3.474,12.165-5.575c3.923-2.099,6.757-0.862,9.761,1.824
		c15.165,13.559,24.698,30.105,27.243,50.458c0.101,0.808,0.446,1.586,0.678,2.378c0.829,0.609,1.37,1.396,1.513,2.432
		c2.796,7.233,0.737,14.72,0.94,22.062c0.419,15.126-0.025,30.283,0.165,45.414c0.077,6.182-0.43,12.206-1.039,18.288
		c-0.222,2.399-1.725,3.616-3.942,3.731c-7.447,0.386-14.914,1.105-22.307-0.549c-2.047-1.334-1.646-3.464-1.667-5.41
		c-0.055-5.32-0.177-10.646,0.009-15.959c0.627-17.953-1.316-35.85-1.054-53.798c0.071-4.855,0.543-9.259,4.644-12.516
		c0.899-0.714,1.552-1.733,2.055-2.797c0.761-1.608,0.966-3.235-0.325-4.652c-1.474-1.618-3.391-1.603-4.992-0.486
		c-5.031,3.511-9.305,7.588-9.351,14.403c-0.051,7.478,0.318,14.975-0.101,22.43c-0.763,13.59-0.886,27.178-0.984,40.779
		c-0.036,4.972,2.472,9.768,0.814,14.803c-1.129,2.892-3.434,3.819-6.323,3.913c-17.864,0.583-35.731,0.136-53.596,0.108
		c-2.25-0.004-4.782,0.204-6.128-2.37c0.323-22.442-1.958-44.954,1.698-67.307C40.834,311.672,45.817,300.776,51.105,290.002z"/>
	<path fill="#FEFEFE" d="M42.904,140.98c0.103-0.273,0.152-0.556,0.147-0.848c1.944-4.892,5.114-7.737,10.809-7.645
		c10.46,0.169,20.928-0.091,31.39,0.092c11.377,0.199,17.849,6.736,18.172,18.07c0.061,2.158,0.044,4.318,0.077,6.477
		c0.056,3.551,1.238,6.593,4.34,8.485c11.201,6.828,9.195,19.936-0.021,27.048c-0.925,0.714-1.81,1.451-2.612,2.295
		c-0.97,0.866-2.088,1.045-3.316,0.717c-1.355,1.732-0.988,3.785-0.997,5.735c-0.04,8.768-0.157,17.539,0.048,26.302
		c0.086,3.656-1.087,5.768-4.599,7.119c-7.273,2.797-14.083,6.551-20.423,11.116c0,0-0.319-0.029-0.319-0.029l-0.319,0.033
		c-1.751-4.753-0.3-9.728-0.964-14.574c-0.19-1.384,1.348-2.136,2.737-2.461c1.456-0.341,2.982-0.323,4.403-0.824
		c1.668-0.588,3.016-1.556,3.051-3.5c0.039-2.209-1.43-3.303-3.357-3.722c-3.607-0.784-7.286-0.372-10.932-0.395
		c-3.93-0.025-7.791-0.19-11.224-2.432c-3.171-1.346-5.7-3.535-7.965-6.071c-2.089-6.823-0.982-13.833-1.055-20.753
		c-0.041-3.813-1.191-5.508-5.156-5.214c-3.131,0.232-6.3,0.137-9.443-0.007c-4.364-0.2-5.58-2.364-3.461-6.189
		c1.201-2.168,2.541-4.298,4.086-6.23c5.439-6.803,7.849-14.44,7.044-23.153C42.756,147.296,42.937,144.128,42.904,140.98z"/>
	<path fill="#848484" d="M114.084,390.947c6.879-0.007,13.758,0.011,20.636-0.041c1.72-0.013,3.757,0.446,4.433-1.992
		c0.266-0.677,0.567-1.328,1.271-1.676c4.083-0.447,5.442,3.169,7.772,5.291c1.07,0.974,1.284,2.712,2.751,3.421
		c-0.072,6.861-0.164,6.984-7.006,6.986c-37.3,0.011-74.599,0.012-111.899,0c-6.823-0.002-7.029-0.209-7.033-7.016
		c-0.009-16.985,0.014-33.969,0.025-50.954c2.033,1.854,4.062,3.712,6.099,5.561c1.382,1.254,2.885,2.121,4.844,1.431
		c-2.556,12.098,1.202,24.17,0.19,36.269c-0.073,0.874,0.654,1.814,1.009,2.724c19.328-0.008,38.656-0.001,57.984-0.041
		c2.386-0.005,5.268,0.721,5.848-2.961c1.08-9.444,0.205-18.921,0.471-28.379c0.08-2.829-0.006-5.663,0.027-8.491
		c1.076-3.15,2.96-1.795,4.513-0.641c2.903,2.155,4.853,5.185,6.877,8.124c0.212,8.9,0.02,17.799,0.104,26.697
		C113.019,387.21,112.671,389.253,114.084,390.947z"/>
	<path fill="#878787" d="M139.989,387.959c-0.279,0.319-0.557,0.637-0.836,0.956c-0.018-28.628-0.037-57.257-0.055-85.885
		c2.039-0.448,3.079,1.014,2.914,2.448c-0.967,8.359,5.143,13.352,8.923,19.454c0.007,19.347,0.014,38.695,0.022,58.042
		c-2.255,1.266-3.339-0.646-4.641-1.782c-2.574-2.245-3.762-1.539-3.916,1.694C142.304,384.912,142.21,386.942,139.989,387.959z"/>
	<path fill="#818181" d="M150.935,324.932c-6.197-3.838-11.985-7.917-10.978-16.57c0.21-1.802,0.073-3.66-0.859-5.332
		c-0.084-0.634-0.167-1.268-0.251-1.902c5.359,0.763,11.791,7.755,12.054,13.317C151.065,317.933,150.934,321.435,150.935,324.932z"
		/>
	<path fill="#7E7E7E" d="M139.989,387.959c0.008-3.661-0.01-7.323,0.04-10.984c0.015-1.13-0.145-2.537,1.25-2.964
		c1.057-0.323,1.848,0.594,2.527,1.31c2.404,2.532,4.77,5.099,7.151,7.653c-0.003,4.326-0.006,8.651-0.009,12.977
		c-3.324,0.786-4.315-2.306-6.238-3.807C143.055,390.852,141.557,389.361,139.989,387.959z"/>
	<path fill="#878787" d="M101.89,195.67c0.601-0.613,1.203-1.227,1.804-1.84c6.128-1.492,11.018,2.475,10.117,8.632
		c-0.562,3.837,0.97,8.04-1.82,11.516c-0.334,0-0.668,0-1.002,0.001C104.467,209.61,100.61,203.917,101.89,195.67z"/>
	<path fill="#FEFEFE" d="M120.036,210.992c-2,0.989-4,1.978-6,2.967c-1.843-6.602-2.344-13.092,2.647-18.64
		c9.3-10.337,9.445-25.105-1.39-34.146c-2.736-2.283-3.805-5.241-3.791-8.812c0.017-4.687-0.712-9.35-2.705-13.603
		c-4.709-10.05-13.335-13.998-23.859-14.228c-12.463-0.273-24.949-0.413-37.398,0.06c-7.101,0.27-12.77-1.702-17.507-6.805
		c-0.276-0.292-0.552-0.584-0.827-0.877c-3.24-4.925-6.084-10.008-5.069-16.224c1.471-9.002,7.593-16.02,16.975-16.334
		c18.726-0.626,37.598-2.207,56.205,1.335c15.938,3.034,28.944,11.319,39.195,23.911c0.728,0.894,1.626,1.648,2.446,2.468
		c6.788,10.806,11.476,22.297,12.711,35.186c0.743,7.75-0.92,15.176-1.676,22.736c-0.683,2.299-1.367,4.597-2.051,6.895
		c-4.755,9.698-9.971,19.082-18.343,26.241C126.465,205.805,123.228,208.372,120.036,210.992z"/>
	<path fill="#8E8E8E" d="M56.751,82.975c-6.069,1.792-8.928-3.725-12.61-7.499c-1.997-2.047,0.035-2.301,1.61-2.461
		c6.648-0.676,12.885-0.256,16.965,6.173c0.597,0.94,2.158,1.578,1.767,2.764c-0.531,1.61-2.257,0.881-3.486,1
		C59.852,83.062,58.687,82.975,56.751,82.975z"/>
	<path fill="#858585" d="M311.929,388.939c1.16,2.662,3.568,1.96,5.61,1.969c11.25,0.053,22.503,0.152,33.75-0.04
		c3.873-0.066,7.73,2.537,11.598,0.079c3.455-2.108,3.354-5.822,4.092-9.14c0.332-1.494,0.543-3.158,2.426-3.265
		c1.99-0.113,3.018,1.356,3.289,3.1c0.813,5.229,1.585,10.469,2.148,15.729c0.293,2.734-1.128,4.381-4.028,4.53
		c-1.971,0.101-4.003-0.098-5.8,1.01c-31.82,0.011-63.64,0.028-95.46,0.031c-7.512,0.001-7.554-0.059-7.571-7.491
		c-0.005-2.166,0.019-4.331,0.029-6.497c1.978-1.341,3.424-0.223,4.805,1.067c2.054,1.917,4.091,3.855,5.896,6.014
		c0.964,1.153,1.937,2.311,3.403,2.788c1.885,0.613,4.524,1.582,5.51-0.191c1.262-2.271-1.533-3.151-3.138-4.051
		c-2.143-1.203-4.482-2.14-1.991-5.093c3.984-1.64,8.17-0.782,12.266-0.989c2.647-0.134,5.333,0.031,7.504-1.888
		c2.95-3.333,4.539-13.842,2.603-17.85c-0.658-1.362-1.787-2.458-3.001-3.286c-3.52-2.401-15.601-0.95-18.612,2.141
		c-1.787,4.188-1.891,8.726-2.764,13.095c-0.293,1.464-0.093,3.095-1.806,3.775c-1.86,0.739-3.082-0.539-4.443-1.506
		c-2.625-1.865-3.853-4.935-6.224-7.002c-0.007-1.34-0.015-2.679-0.022-4.019c1.697-2.435,1.034-5.368,1.508-8.033
		c0.987-5.561,1.128-6.103,6.633-6.328c6.124-0.25,12.256-0.031,18.384-0.129c3.551-0.056,6.964-0.541,9.448-3.502
		c0.67-0.329,1.339-0.659,2.009-0.988c6.139,2.481,9.585,7.273,11.486,13.396C311.749,373.898,310.906,381.438,311.929,388.939z"/>
	<path fill="#888888" d="M311.929,388.939c-2.031-7.924-0.464-15.992-0.96-23.978c-0.824-1.067-1.689-2.424-1.642-3.556
		c0.335-8.135-4.947-13.886-8.352-20.431c0.305-2.083,0.61-4.166,0.914-6.25c0.365-0.742,0.616-1.572,1.111-2.212
		c9.771-12.64,11.32-26.606,6.771-41.571c1.936-1.173,3.052,0.05,4.025,1.451c0.837,1.206,1.52,2.517,2.482,3.641
		c2.184,2.553,4.561,4.155,7.814,1.664c2.362,12.964,0.48,25.252-6.909,36.217c-3.806,5.648-5.418,11.325-5.2,18.129
		C312.379,364.329,311.99,376.639,311.929,388.939z"/>
	<path fill="#878787" d="M297.972,353.966c1.28,4.698-0.758,6.211-5.311,6.051c-6.437-0.226-12.887-0.061-19.332-0.051
		c-7.532,0.011-7.552,0.013-9.108,7.191c-0.387,1.785-0.579,3.618-2.224,4.801c-0.124-18.004-0.12-36.005,0.973-53.987
		c4.493-1.673,5.751,2.309,7.84,4.633c1.053,1.172,1.188,2.996,2.138,4.333c0.011,7.126,0.113,14.254-0.001,21.379
		c-0.064,3.994,1.612,5.745,5.634,5.669C285.043,353.862,291.508,353.961,297.972,353.966z"/>
	<path fill="#7E7E7E" d="M275.964,391.103c4.313,0.775,7.483,3.339,10.202,6.575c0.804,0.956,2.358,1.714,1.597,3.286
		c-0.6,1.24-2.018,0.907-3.141,0.972c-6.084,0.354-11.845,0.453-15.522-6.077c-1.553-2.758-4.679-4.63-7.089-6.905
		c0.003-4.326,0.006-8.652,0.009-12.978c3.566-0.736,4.488,2.725,6.663,4.196c1.152,0.779,1.842,2.909,3.461,2.145
		c1.496-0.705,0.774-2.663,0.798-4.067c0.077-4.427,0.029-8.856,0.03-13.285c0.597-0.311,1.154-0.251,1.673,0.177
		c1.492,1.573,1.683,3.573,1.707,5.571C276.434,377.513,276.744,384.319,275.964,391.103z"/>
	<path fill="#818181" d="M272.95,326.938c-3.326-2.989-6.652-5.978-9.978-8.967c-1.859-4.218-0.63-8.661-0.95-12.991
		c1.505-2.757,3.388-2.583,5.254-0.499c2.091,2.335,4.5,4.456,5.673,7.495C272.949,316.963,272.949,321.95,272.95,326.938z"/>
	<path fill="#7F7F7F" d="M300.974,340.974c9.339,5.493,11.328,14.048,9.994,23.987c-4.032-3.656-8.591-6.828-10.987-11.983
		C300.312,348.977,300.643,344.975,300.974,340.974z"/>
	<path fill="#878787" d="M272.949,311.976c-2.049-1.888-4.133-3.739-6.135-5.676c-1.388-1.344-2.796-2.325-4.793-1.321
		c1.49-4.285,3.56-5.008,6.371-1.884C270.639,305.592,273.239,308.096,272.949,311.976z"/>
	<path fill="#808080" d="M375.886,346.958c-0.137,0.303-0.25,0.62-0.414,0.907c-1.39,2.429,0.937,5.847-1.861,7.745
		c-1.037,0.704-8.098-7.332-8.553-9.651c-0.126-0.645-0.066-1.327-0.091-1.992c1.605-2.036,1.662-6.629,4.957-5.646
		C373.347,339.343,376.163,342.512,375.886,346.958z"/>
	<path fill="#8E8E8E" d="M58.995,218.038c8.148-0.003,16.299,0.11,24.443-0.065c3.503-0.075,4.576,1.289,4.61,4.684
		c0.081,8.148,0.223,8.311-7.88,8.25c-3.784-0.029-5.602,1.03-5.219,5.084c0.311,3.299,0.235,6.635,0.332,9.955
		c-0.386-0.891-1.234-1.866-1.089-2.661c1.694-9.293-4.462-14.429-10.205-19.881C62.225,221.732,59.99,220.443,58.995,218.038z"/>
	<path fill="#929292" d="M30.034,117.785c5.266,3.711,11.126,4.621,17.494,4.477c12.643-0.286,25.298-0.139,37.948-0.067
		c16.893,0.096,27.927,10.826,28.137,27.708c0.056,4.477,1.171,7.656,4.617,10.794c10.186,9.276,11.221,24.504,1.48,34.391
		c-5.711,5.796-6.752,11.691-5.673,18.871c-0.682,0.006-1.363,0.013-2.045,0.019c0.001-2.788-0.382-5.642,0.08-8.352
		c1.144-6.709-2.439-9.82-8.377-11.795c1.91-2.085,3.868-4.127,5.722-6.261c6.269-7.215,5.03-15.727-3.426-19.966
		c-4.119-2.065-5.567-4.621-5.171-8.964c0.286-3.138,0.164-6.331,0.005-9.489c-0.434-8.662-5.628-13.929-14.33-14.082
		c-11.491-0.202-22.989,0.003-34.483-0.091c-4.096-0.033-7.038,1.585-8.961,5.154c3.308-5.659,0.064-9.077-3.918-12.647
		C35.848,124.541,32.397,121.641,30.034,117.785z"/>
	<path fill="#838383" d="M324.092,297.697c-0.627,2.308,1.225,5.845-1.379,6.796c-2.532,0.925-3.638-2.85-5.635-4.176
		c-3.517-2.335-4.606-6.464-7.307-9.376c-3.098-5.392-6.197-10.781-11.421-14.499c-2.993-2.13-1.154-3.804,0.53-5.487
		c2.116-3.319,4.367-3.352,7.226-0.689c5.511,5.134,10.43,10.778,15.119,16.644C323.124,290.255,323.865,293.908,324.092,297.697z"
		/>
	<path fill="#8D8D8D" d="M321.226,286.91c-6.919-3.292-10.972-9.804-16.452-14.713c-1.859-1.665-3.423-3.176-5.893-1.242
		c3.772-7.56,4.385-7.721,10.292-2.076C314.516,273.984,319.043,279.674,321.226,286.91z"/>
	<path fill="#8A8A8A" d="M114.084,390.947c-2.266-1.562-2.081-3.953-2.085-6.258c-0.015-8.909-0.009-17.818-0.011-26.727
		c-1.957-1.979-2.379-4.481-2.441-7.114c-0.039-1.662,0.057-3.349-0.436-4.961c-0.54-1.768-1.212-4.086-3.169-4.035
		c-2.338,0.061-1.345,2.578-1.557,4.043c-0.253,1.747-0.652,3.259-2.389,4.067c-0.002,10.57,0.002,21.141-0.013,31.711
		c-0.003,2.137,0.2,4.317-0.975,6.276c-0.043-26.78-0.076-53.561-0.151-80.341c-0.006-2.175,0.852-3.792,2.367-5.255
		c2.752-2.657,5.664-5.202,8.068-8.153c3.062-3.759,5.326-3.068,8.319,0.156c4.856,5.232,5.25,5.338,0.054,9.912
		c-4.482,3.945-6.137,8.319-6.041,14.331c0.352,21.954,0.148,43.916,0.179,65.875C113.808,386.633,113.986,388.79,114.084,390.947z"
		/>
	<path fill="#7F7F7F" d="M101.996,349.963c0-3.823-0.039-7.647,0.027-11.469c0.019-1.081-0.463-2.58,0.987-3.034
		c1.034-0.324,1.655,0.87,2.432,1.45c5.235,3.912,7.553,9.002,6.589,15.572c-0.263,1.79-0.042,3.651-0.043,5.48
		C107.601,356.614,105.708,352.152,101.996,349.963z"/>
	<path fill="#7E7E7E" d="M88.24,401.954c-5.397,1.489-8.713-2.751-12.229-6.54c-1.465-1.579-1.717-3.117,0.983-3.325
		c6.328-0.489,12.733-1.019,16.971,5.321c0.714,1.068,2.399,1.828,1.943,3.238c-0.584,1.805-2.494,1.164-3.904,1.289
		C91.017,402.024,90.016,401.954,88.24,401.954z"/>
	<path fill="#FEFEFE" d="M275.964,391.103c-1.906-0.44-1.961-1.933-1.947-3.45c0.071-7.529,0.149-15.058,0.225-22.587
		c3.195-2.154,6.774-0.865,10.168-1.048c3.974-0.214,7.969-0.088,11.955-0.022c1.834,0.031,3.501,0.522,3.466,2.678
		c-0.128,7.759,1.025,15.558-0.646,23.274c-5.14,2.052-10.499,0.531-15.741,0.945C280.96,391.09,278.458,391.041,275.964,391.103z"
		/>
	<path fill="#7E7E7E" d="M352.272,401.953c-5.384,1.387-8.841-2.602-12.227-6.609c-1.391-1.646-1.431-3.16,1.242-3.314
		c6.185-0.356,12.477-0.936,16.567,5.312c0.765,1.168,2.768,1.885,1.844,3.658c-0.707,1.357-2.375,0.854-3.661,0.94
		C355.043,402.007,354.04,401.953,352.272,401.953z"/>
	<path fill="#878787" d="M299.184,389.948c-0.046-6.815-0.206-13.632-0.088-20.444c0.056-3.256-1.242-4.43-4.409-4.386
		c-6.814,0.094-13.631-0.022-20.446-0.052c-0.422-0.033-0.845-0.067-1.268-0.1c1.229-1.614,2.963-1.981,4.853-1.981
		c6.122,0.001,12.243-0.011,18.365-0.001c2.289,0.004,4.584,0.329,4.627,3.244c0.104,7.108,0.025,14.22-0.036,21.33
		C300.774,388.608,300.035,389.362,299.184,389.948z"/>
</g>
</svg>
