<?xml version="1.0" standalone="no"?>
<!DOCTYPE svg PUBLIC "-//W3C//DTD SVG 20010904//EN"
 "http://www.w3.org/TR/2001/REC-SVG-20010904/DTD/svg10.dtd">
<svg version="1.0" xmlns="http://www.w3.org/2000/svg"
 width="409.000000pt" height="409.000000pt" viewBox="0 0 409.000000 409.000000"
 preserveAspectRatio="xMidYMid meet">
<metadata>
Created by potrace 1.16, written by Peter Selinger 2001-2019
</metadata>
<g transform="translate(0.000000,409.000000) scale(0.100000,-0.100000)"
fill="#000000" stroke="none">
<path d="M504 3781 c-121 -79 -226 -214 -279 -361 -22 -61 -28 -98 -33 -200
-3 -69 -7 -119 -10 -112 -3 9 -20 -2 -52 -33 l-48 -47 -7 85 c-9 108 1 210 30
312 28 97 25 114 -4 21 -59 -191 -52 -402 20 -636 27 -88 116 -273 128 -266 5
4 13 1 17 -5 5 -8 3 -9 -6 -4 -8 5 -11 3 -8 -6 3 -8 11 -13 17 -11 7 1 9 -2 6
-8 -10 -16 95 -149 181 -229 41 -38 112 -95 159 -127 l85 -58 0 -88 c0 -75 -3
-91 -20 -108 -11 -11 -27 -20 -36 -20 -8 0 -48 -15 -89 -34 -190 -88 -325
-220 -413 -404 -79 -167 -82 -193 -82 -835 l0 -557 773 2 772 3 0 277 c0 152
3 274 7 272 4 -3 63 -52 130 -110 82 -70 148 -118 198 -142 74 -37 76 -37 201
-37 l126 0 85 42 c65 32 100 58 142 104 111 120 136 201 136 446 l0 173 635 0
c691 0 661 -2 717 57 61 64 58 -11 58 1290 0 1127 -1 1190 -19 1228 -32 71
-125 131 -173 112 -7 -3 -1 -6 14 -6 64 -2 119 -41 149 -106 17 -37 18 -73 17
-545 -1 -278 -4 -443 -5 -367 l-4 137 -49 0 -50 0 -3 -172 c-1 -95 -4 69 -5
364 l-2 537 -26 20 c-27 21 -30 21 -1040 21 -557 0 -1015 -3 -1017 -8 -3 -4 1
-30 9 -57 11 -37 13 -41 10 -15 -2 19 -7 43 -11 53 -7 16 45 17 1007 17 901 0
1016 -2 1036 -16 l22 -15 0 -1184 0 -1184 -22 -15 c-20 -14 -97 -16 -635 -16
l-612 0 -3 383 -3 383 -28 43 c-15 23 -43 49 -62 58 l-35 17 0 123 c0 83 -5
134 -14 156 -17 39 -71 92 -109 106 -18 7 -162 11 -400 11 l-372 0 3 57 c2 42
0 54 -7 43 -9 -13 -11 -13 -11 3 0 16 23 17 334 17 321 0 396 6 381 30 -3 5 0
7 9 4 10 -4 22 6 36 28 17 28 20 50 20 136 0 115 -11 146 -60 176 -31 18 -95
22 -105 6 -3 -6 4 -10 17 -10 13 0 38 -9 57 -21 18 -11 40 -18 47 -15 15 6 34
-23 34 -52 0 -17 -5 -18 -52 -10 -89 15 -215 20 -198 9 11 -8 -49 -11 -203
-11 l-218 0 16 -30 c8 -16 15 -37 14 -47 0 -10 -5 -5 -10 12 -17 57 -33 68
-83 62 -24 -4 -50 -8 -57 -9 -7 -2 -14 6 -15 17 -3 31 -38 113 -49 113 -17 1
-24 35 -24 125 -1 80 -3 90 -26 112 l-24 25 -260 0 -261 0 -26 -39 c-34 -52
-54 -121 -55 -195 -2 -54 -3 -56 -8 -22 l-6 40 -41 -42 c-22 -23 -50 -42 -62
-42 -11 0 -29 -11 -40 -25 -17 -22 -28 -25 -80 -25 -34 0 -63 -3 -65 -7 -3 -5
25 -7 62 -5 51 3 68 0 68 -10 0 -10 -18 -12 -78 -10 l-77 3 -15 -43 c-26 -72
-27 -74 -22 -38 13 87 102 172 195 188 l45 7 12 90 c9 59 23 111 42 149 l30
60 -29 33 c-30 33 -50 88 -50 133 1 69 66 147 140 168 26 8 29 10 12 11 -73 3
-162 -103 -162 -191 0 -40 30 -106 58 -132 l21 -18 -24 -47 c-29 -59 -55 -156
-55 -210 0 -39 -1 -41 -32 -41 -69 0 -171 -77 -203 -154 -17 -41 -18 -160 -1
-200 17 -41 65 -98 77 -90 5 3 8 0 7 -6 -4 -18 80 -60 119 -60 l33 0 0 -116 0
-115 -47 33 c-77 53 -205 187 -262 273 -58 88 -68 100 -57 70 4 -11 3 -16 -1
-11 -4 4 -9 17 -10 29 0 12 -17 61 -37 108 -56 133 -77 228 -83 371 -6 142 4
215 44 318 52 131 167 270 278 336 40 23 53 34 42 34 -2 0 -30 -17 -63 -39z
m945 -557 c17 -22 21 -41 21 -109 0 -105 17 -158 80 -254 35 -54 48 -83 44
-96 -5 -13 -4 -16 4 -11 18 11 14 38 -8 66 -11 14 -20 29 -20 35 0 5 11 -7 25
-27 29 -43 31 -55 8 -80 -14 -15 -30 -18 -117 -16 l-101 2 105 5 105 6 -135 7
c-206 11 -369 60 -542 165 l-78 47 0 63 c0 69 20 140 53 190 l22 33 257 0 257
0 20 -26z m-814 -364 c-8 -13 -5 -12 32 0 24 9 41 7 84 -10 63 -23 62 -23 53
-9 -5 8 -1 8 14 0 12 -6 24 -17 28 -24 5 -9 4 -9 -7 1 -25 23 -30 12 -8 -18
12 -16 26 -27 30 -24 4 2 11 -1 15 -7 4 -8 3 -9 -4 -5 -15 9 -15 1 -1 -25 5
-11 14 -17 19 -14 5 3 12 0 16 -6 4 -8 3 -9 -4 -5 -17 10 -15 -7 4 -30 15 -19
16 -19 9 1 -3 11 -2 16 2 11 4 -4 9 -17 9 -29 1 -12 9 -53 18 -91 12 -48 15
-86 10 -120 -7 -56 -40 -152 -54 -161 -5 -3 -21 2 -35 11 -25 16 -25 17 -25
165 l0 149 -75 0 c-43 0 -90 6 -110 14 -63 27 -90 102 -60 170 6 14 5 17 -4
11 -10 -6 -11 -3 -2 13 6 12 19 26 29 31 22 13 25 13 17 1z m1605 -50 l0 -60
-255 0 -255 0 0 34 c0 19 -4 46 -10 60 l-10 26 265 0 265 0 0 -60z m-1145
-120 c-7 -11 161 -59 225 -65 36 -3 85 -8 109 -12 l43 -6 -4 -161 c-3 -141 -6
-166 -25 -202 -66 -125 -226 -170 -358 -101 -90 47 -89 46 -55 108 68 127 80
306 26 429 -4 11 0 15 18 15 13 0 23 -2 21 -5z m1021 -346 c-3 -9 -6 -36 -6
-60 l0 -44 -259 0 -259 0 5 48 c3 26 6 53 8 60 3 9 64 12 261 12 229 0 256 -2
250 -16z m229 -9 c23 -22 25 -31 25 -125 l0 -100 -60 0 -60 0 0 109 c0 102 2
111 22 125 31 22 45 20 73 -9z m-1309 -321 c28 -12 78 -28 112 -34 53 -11 61
-15 65 -39 3 -14 5 -26 4 -27 -1 0 -44 -26 -95 -57 -51 -31 -94 -57 -97 -57
-3 0 -45 25 -95 56 l-90 56 0 120 0 119 73 -57 c39 -31 95 -67 123 -80z m1074
54 c-1 -27 -8 -38 -41 -60 -39 -28 -42 -28 -189 -28 l-150 0 0 -70 0 -70 125
0 125 0 0 -136 0 -136 -46 56 c-79 96 -227 196 -354 239 -25 8 -82 23 -125 32
-85 17 -105 31 -105 75 0 20 7 29 34 38 19 7 54 30 78 52 l43 39 303 1 302 0
0 -32z m106 -184 c29 -28 27 -64 -7 -100 -19 -20 -18 -20 29 -67 l48 -47 24
25 c21 23 31 25 104 25 l81 0 0 -60 0 -60 -187 0 -188 0 0 139 c0 133 1 141
22 155 31 22 45 20 74 -10z m-588 -191 c86 -43 202 -146 257 -228 20 -31 49
-87 66 -127 l29 -71 0 -223 0 -224 70 0 70 0 0 320 0 320 188 0 187 0 -5 -382
c-5 -375 -5 -384 -28 -429 -86 -174 -298 -256 -446 -174 -23 12 -57 31 -77 42
-19 10 -101 75 -182 143 l-147 125 0 148 0 147 -70 0 -70 0 0 -445 0 -445
-190 0 -190 0 2 362 3 362 170 102 c94 57 169 108 167 114 -1 7 -24 44 -51 83
-26 40 -51 77 -55 84 -5 9 29 30 106 69 62 31 114 57 115 58 1 1 -9 69 -22
150 -14 81 -25 152 -25 158 0 16 47 1 128 -39z m-248 -85 c9 -57 17 -103 16
-104 0 0 -32 -17 -69 -37 -63 -32 -67 -33 -61 -14 31 105 88 266 92 263 2 -3
12 -51 22 -108z m-840 65 c0 -5 -9 -62 -20 -128 -10 -65 -18 -120 -17 -121 1
-1 53 -27 115 -58 77 -39 111 -60 106 -69 -4 -7 -29 -44 -55 -84 -27 -39 -50
-76 -51 -83 -2 -6 74 -57 167 -114 l170 -102 3 -362 2 -362 -190 0 -190 0 0
445 0 446 -67 -3 -68 -3 0 -443 0 -442 -123 0 -123 0 3 518 3 517 29 84 c35
100 104 207 177 277 78 74 129 108 129 87z m543 -119 c64 -33 59 -27 51 -58
l-6 -26 -109 0 c-108 0 -109 0 -115 25 -4 14 -5 27 -3 28 19 11 116 56 122 56
4 1 31 -11 60 -25z"/>
<path d="M960 3076 c0 -92 36 -150 115 -187 135 -62 278 39 274 193 -1 29 -4
40 -5 23 -11 -90 -26 -134 -58 -165 -33 -33 -33 -33 -135 -32 -85 0 -105 3
-123 18 -20 19 -58 85 -58 102 0 15 81 92 96 92 10 0 14 -12 14 -38 0 -42 29
-82 58 -81 13 0 12 2 -5 9 -28 12 -43 40 -43 84 l0 36 -65 0 -65 0 0 -54z"/>
<path d="M1826 3334 c-14 -31 -23 -61 -19 -68 4 -6 -1 -5 -10 3 -15 12 -17 12
-11 -3 5 -14 32 -16 235 -16 l229 0 0 70 0 70 -199 0 -200 0 -25 -56z m414
-14 l0 -60 -204 0 c-231 0 -225 -2 -196 78 l15 42 192 0 193 0 0 -60z"/>
<path d="M3170 3060 l0 -120 -120 0 -120 0 0 -65 0 -65 120 0 120 0 0 -116 c0
-68 -5 -124 -12 -137 -15 -29 -39 -46 -55 -40 -14 6 -17 -7 -5 -23 4 -5 2 -5
-4 1 -20 18 -34 76 -34 140 l0 63 -90 4 c-82 3 -92 5 -117 31 -27 27 -28 31
-28 136 0 120 8 140 70 167 20 9 24 13 12 14 -28 0 -73 -35 -87 -69 -7 -19
-11 -65 -8 -125 3 -93 4 -97 36 -128 31 -31 37 -33 116 -36 l84 -4 4 -84 c3
-79 5 -85 36 -116 32 -32 34 -33 135 -36 94 -3 105 -2 137 20 43 29 59 73 58
153 l-1 60 -7 -73 c-11 -122 -47 -153 -180 -150 l-85 1 96 6 c63 4 102 11 114
21 16 13 45 68 45 85 0 10 -86 5 -97 -6 -6 -6 -38 -8 -74 -6 l-64 3 68 2 67 2
0 120 0 120 120 0 121 0 -3 63 -3 62 -117 3 -117 3 -3 117 -3 117 -62 3 -63 3
0 -121z m120 -10 l0 -120 120 0 120 0 0 -55 0 -55 -120 0 -120 0 0 -120 0
-120 -55 0 -54 0 -3 118 -3 117 -117 3 -118 3 0 54 0 55 120 0 120 0 0 120 0
120 55 0 55 0 0 -120z"/>
<path d="M3063 1982 l-183 -2 0 -70 0 -70 388 2 387 3 3 63 c2 44 -1 63 -10
66 -19 7 -375 11 -585 8z"/>
<path d="M2880 1655 l0 -65 388 2 387 3 3 63 3 62 -391 0 -390 0 0 -65z"/>
<path d="M3264 1456 c-3 -7 -4 -38 -2 -67 l3 -54 68 -3 67 -3 0 71 0 70 -65 0
c-46 0 -67 -4 -71 -14z"/>
<path d="M3520 1400 l0 -71 68 3 67 3 0 65 0 65 -67 3 -68 3 0 -71z"/>
</g>
</svg>
