<?xml version="1.0" encoding="utf-8"?>
<!-- Generator: Adobe Illustrator 17.0.0, SVG Export Plug-In . SVG Version: 6.00 Build 0)  -->
<!DOCTYPE svg PUBLIC "-//W3C//DTD SVG 1.1//EN" "http://www.w3.org/Graphics/SVG/1.1/DTD/svg11.dtd">
<svg version="1.1" id="Capa_1" xmlns="http://www.w3.org/2000/svg" xmlns:xlink="http://www.w3.org/1999/xlink" x="0px" y="0px"
	 width="512px" height="512px" viewBox="0 0 512 512" enable-background="new 0 0 512 512" xml:space="preserve">
<g>
	<path fill="#FEFEFE" d="M462.459,251.979c0,67.16-0.033,134.32,0.097,201.48c0.007,3.424-0.673,4.098-4.096,4.095
		c-133.987-0.112-267.973-0.112-401.96,0c-3.423,0.003-4.098-0.671-4.095-4.095c0.112-134.32,0.112-268.64,0-402.96
		c-0.003-3.423,0.671-4.098,4.095-4.095c133.987,0.112,267.973,0.112,401.96,0c3.424-0.003,4.103,0.67,4.096,4.095
		C462.426,117.659,462.459,184.819,462.459,251.979z"/>
	<path fill="#989898" d="M123.509,348.203c-1.347-1.772-0.861-3.846-0.861-5.798c0.005-93.96,0.035-187.919,0.07-281.879
		c0.003-6.818,0.033-6.839,7.087-6.84c67.138-0.005,134.276,0.024,201.414-0.071c3.953-0.006,6.864,1.063,9.68,3.919
		c15.79,16.015,31.713,31.899,47.711,47.706c2.566,2.535,3.7,5.134,3.698,8.772c-0.058,76.134-0.008,152.268,0.011,228.402
		c0.001,6.03-0.035,6.045-6.16,6.058c-8.829,0.018-17.659,0.028-26.489,0.01c-6.161-0.012-6.176-0.035-6.205-5.989
		c-0.023-4.665-0.191-9.339,0.054-13.991c0.204-3.868-1.165-5.46-5.13-5.273c-4.82,0.227-9.66,0.063-14.491,0.017
		c-1.808-0.017-3.687,0.3-5.343-0.795c0.874-2.092,2.789-2.21,4.609-2.289c5.992-0.26,11.987-0.239,17.982,0.015
		c3.625,0.153,5.433,1.935,5.632,5.586c0.218,3.996-0.029,8.001,0.274,11.986c0.378,4.975,2.209,6.885,7.193,7.13
		c5.821,0.287,11.663,0.291,17.483-0.003c4.979-0.251,7.118-2.161,7.109-7.155c-0.031-18.642,0.954-37.299-0.577-55.924
		c-0.26-3.165-0.352-6.319,0.136-9.467c0.745-4.805,0.774-9.62,0.233-14.441c0.916-9.615,0.605-19.249-0.071-28.847
		c-0.727-10.32-1.072-20.627,0.08-30.903c1.014-9.048-0.612-17.943-1.078-26.894c-0.554-10.622-1.141-21.258-2.433-31.835
		c-0.37-3.031,0.413-5.963,1.578-8.767c0.705-1.697,1.385-3.408,1.671-5.223c0.306-1.939,1.061-4.287-1.099-5.432
		c-2.094-1.11-3.262,1.003-4.413,2.33c-1.177,1.358-2.398,2.302-4.306,1.76c-3.197-2.439-6.849-3.137-10.796-3.126
		c-11.153,0.03-22.307,0.128-33.459-0.046c-8.106-0.126-9.116-1.156-9.245-9.405c-0.169-10.819,0.017-21.641-0.084-32.46
		c-0.076-8.157-1.899-10.032-10.055-10.04c-55.6-0.049-111.2-0.055-166.8,0.005c-8.127,0.009-10.082,1.974-10.117,10.033
		c-0.091,21.141,0.01,42.283-0.064,63.424c-0.01,2.965,0.349,6.014-1.105,8.808c-4.59,2.101-5.545,1.438-7.395-5.009
		c-0.352,5.796-1.651,11.425-2.776,17.083c-1.155,5.813,0.046,11.577,0.06,17.354c0.041,16.247,1.416,32.532-0.77,48.746
		c-0.208,1.543,0.673,2.896,0.794,4.393c-1.054,5.067-0.734,10.219-0.997,15.339c1.04,13.589-0.554,27.124-0.813,40.682
		c-0.106,5.542,1.026,10.861,1.559,16.281c-1.027,10.106-0.304,20.246-0.531,30.37c-0.07,3.147,0.213,6.321-0.705,9.405
		C124.836,346.8,124.289,347.591,123.509,348.203z"/>
	<path fill="#898989" d="M123.578,346.451c-0.005-13.33-0.01-26.66-0.015-39.99c1.565-8.611,0.806-17.363,1.586-26.019
		c0.282-3.127-0.484-7.479,4.142-7.72c4.982-0.259,4.687,4.628,4.603,7.471c-0.16,5.414,0.561,10.31,3.634,14.787
		c0.879,9.126,0.239,18.284,0.44,27.429c0.044,1.994-0.088,4.006,0.485,5.95c0.498,1.691,1.37,3.13,3.338,3.211
		c2.233,0.092,3.265-1.451,3.755-3.335c0.764-2.936,0.436-5.96,0.467-8.948c0.114-10.851,0.437-11.224,11.237-11.269
		c8.487-0.035,16.977-0.183,25.46,0.089c5.929,0.19,6.971,1.209,7.132,7.132c0.294,10.814,0.068,21.633,0.12,32.45
		c0.004,0.832-0.053,1.67,0.028,2.495c0.268,2.721-0.37,6.485,3.332,6.818c3.562,0.32,3.528-3.327,3.858-5.87
		c0.413-3.179,2.096-4.745,5.223-4.911c0.498-0.026,0.995-0.076,1.494-0.106c9.75-0.578,10.943,0.527,11.04,10.34
		c0.061,6.157-0.006,12.315,0.037,18.472c0.012,1.665,0.02,3.341,0.629,4.925c0.57,1.484,1.501,2.643,3.224,2.714
		c1.979,0.081,3.005-1.18,3.593-2.875c0.668-1.925,0.568-3.94,0.577-5.933c0.046-10.817-0.114-21.635,0.081-32.451
		c0.129-7.153,1.064-8.099,8.14-8.235c9.151-0.177,18.307-0.197,27.457,0.012c6.88,0.157,8.008,1.35,8.202,8.36
		c0.207,7.486,0.033,14.977,0.099,22.465c0.033,3.747,1.071,6.9,4.745,8.617c2.176,1.802,1.99,3.818-0.047,5.356
		c-3.411,2.576-5.913,5.962-8.761,9.045c-1.948,0.074-3.909-0.122-5.838,0.07c-2.906,0.288-4.512-1.262-5.712-3.575
		c-0.052-9.824-0.236-19.649-0.092-29.47c0.057-3.907-0.901-5.728-5.27-5.618c-7.589,0.191-7.593-0.053-7.589,7.656
		c0.007,12.824-0.105,25.65,0.087,38.472c0.058,3.856-1.128,5.358-5.098,5.277c-9.656-0.197-19.321-0.182-28.977-0.006
		c-3.739,0.068-5.014-1.358-4.877-4.999c0.206-5.488-0.007-10.991,0.07-16.486c0.038-2.737-1.111-3.913-3.867-3.873
		c-5.495,0.079-10.998-0.154-16.486,0.058c-3.664,0.142-5.008-1.157-4.965-4.881c0.179-15.32,0.134-30.643,0.171-45.965
		c-3.589-2.055-7.469-0.966-11.224-0.945c-2.33,0.013-2.27,1.936-2.265,3.667c0.017,6.159-0.064,12.319,0.043,18.476
		c0.041,2.32-0.678,3.245-3.113,3.223c-10.319-0.094-20.64-0.042-30.961-0.036C125.582,347.974,124.257,347.947,123.578,346.451z"/>
	<path fill="#8B8B8B" d="M251.364,383.424c3.438,3.474,7.786,3.201,12.13,2.944c1.323-2.642,3.85-2.22,6.111-2.327
		c11.478-0.541,16.208-5.31,16.422-16.636c0.146-7.715,0.445-8.069,8.224-9.447c1.161-0.206,2.327-0.392,3.167-1.284
		c0.715-0.758,1.213-1.705,0.405-2.655c-0.63-0.741-1.673-0.653-2.255-0.096c-2.759,2.642-6.455,4.166-8.688,7.444
		c-1.257,1.845-2.833,3.446-4.494,4.959c-2.643,2.406-5.177,2.847-7.652-0.22c-1.155-4.778-0.678-9.607-0.531-14.424
		c0.102-3.342,1.766-4.983,5.148-5.563c6.343-1.088,7.52-2.548,7.607-8.931c0.156-11.322-0.096-22.647,0.121-33.968
		c0.135-7.072,1.095-7.968,8.25-8.154c6.825-0.177,13.655,0.022,20.48-0.097c6.712-0.117,8.118-1.182,9.332-7.765
		c0.628-3.404,2.387-4.926,5.696-5.015c0.998-0.027,1.995-0.105,2.994-0.108c7.817-0.024,8.868,1.007,9.081,8.858
		c0.095,3.495-0.168,7.002,0.219,10.482c0.267,2.394,0.883,4.951,3.862,4.976c3.034,0.025,3.507-2.589,3.84-4.957
		c0.256-1.816,0.144-3.657,0.159-5.489c0.056-6.826-0.203-13.658,0.163-20.478c0.268-5.008,1.362-5.979,6.394-6.334
		c0.997-0.07,1.997-0.072,2.996-0.056c7.039,0.113,8.153,1.105,8.318,8.087c0.216,9.156,0.059,18.316,0.08,27.474
		c0.014,5.828-0.016,11.656,0.01,17.484c0.03,6.754,1.361,9.948,4.125,9.3c4.991-1.171,3.742-5.62,3.855-9.054
		c0.202-6.155,0.025-12.321,0.065-18.481c0.081-12.321-0.226-24.643,0.179-36.964c0.691-4.552,3.892-7.979,5.564-12.138
		c1.608-4.002,5.87-2.591,8.632,2.69c-0.795,27.945,0.539,55.889,0.067,83.834c-0.097,5.765-0.426,6.13-6.367,6.155
		c-8.164,0.034-16.327,0.038-24.491-0.007c-5.613-0.031-6.037-0.461-6.102-5.914c-0.05-4.165,0.009-8.33-0.017-12.495
		c-0.04-6.28-0.317-6.581-6.417-6.61c-6.497-0.031-12.995,0.003-19.493,0.008c-1.345-2.139-0.925-4.546-0.817-6.818
		c0.176-3.702-0.942-5.561-5.048-5.348c-5.144,0.268-10.32,0.232-15.469,0.009c-3.744-0.162-4.903,1.332-4.863,4.967
		c0.148,13.309,0.06,26.622,0.043,39.933c-0.008,6.156-0.025,6.156-5.916,6.214c-7.042,0.07-7.047,0.07-7.051,7.116
		c-0.003,4.825-0.084,9.653,0.051,14.475c0.08,2.868-0.831,4.321-3.94,4.294c-10.149-0.088-20.299-0.053-30.449-0.026
		C252.451,387.274,250.911,386.354,251.364,383.424z"/>
	<path fill="#868686" d="M167.633,425.412c-4.983,0-9.969-0.094-14.948,0.036c-2.886,0.075-4.236-0.852-4.201-3.964
		c0.118-10.297,0.105-20.597,0.016-30.895c-0.024-2.817,1.184-3.854,3.862-3.842c10.298,0.045,20.597,0.06,30.895-0.002
		c3.075-0.019,4.015,1.51,4.001,4.336c-0.053,10.132-0.055,20.265,0.044,30.396c0.03,3.052-1.306,4.072-4.221,3.996
		c-5.146-0.133-10.297-0.037-15.447-0.037C167.633,425.429,167.633,425.421,167.633,425.412z"/>
	<path fill="#868686" d="M282.589,438.399c-4.83,0.006-9.663-0.105-14.488,0.046c-3.118,0.098-4.557-0.922-4.513-4.262
		c0.135-10.158,0.11-20.319,0.042-30.477c-0.02-3.017,1.312-4.137,4.228-4.118c10.159,0.066,20.319,0.079,30.478-0.016
		c2.962-0.028,4.165,1.052,4.132,4.09c-0.109,10.325-0.09,20.652-0.007,30.977c0.022,2.812-1.155,3.838-3.883,3.785
		C293.249,438.319,287.918,438.393,282.589,438.399z"/>
	<path fill="#858585" d="M199.619,431.948c-0.001-4.995,0.107-9.994-0.041-14.985c-0.092-3.101,0.878-4.552,4.241-4.504
		c10.155,0.146,20.314,0.127,30.47,0.038c2.953-0.026,4.168,1.013,4.137,4.065c-0.102,10.156-0.073,20.314,0.036,30.47
		c0.031,2.861-0.81,4.324-3.935,4.295c-10.323-0.096-20.647-0.091-30.97-0.023c-3.129,0.02-4.008-1.57-3.961-4.37
		C199.681,441.939,199.62,436.943,199.619,431.948z"/>
	<path fill="#878787" d="M353.418,380.529c0.004,5.155-0.046,10.31,0.026,15.464c0.035,2.505-1.022,3.663-3.542,3.656
		c-10.309-0.03-20.618-0.039-30.927-0.001c-2.865,0.011-3.714-1.532-3.704-4.103c0.04-9.977,0.068-19.954-0.002-29.93
		c-0.021-2.95,1.144-4.155,4.144-4.125c9.976,0.099,19.954,0.101,29.93-0.003c2.979-0.031,4.197,1.057,4.11,4.079
		C353.308,370.549,353.413,375.54,353.418,380.529z"/>
	<path fill="#888888" d="M327.667,418.781c0.025-6.321,0.025-6.321,6.799-6.295c6.187,0.024,6.187,0.024,6.149,6.939
		c-0.034,6.069-0.034,6.069-7.049,6.03C327.64,425.422,327.64,425.422,327.667,418.781z"/>
	<path fill="#828282" d="M148.461,444.524c0.035,6.734,0.035,6.734-5.842,6.769c-7.001,0.043-7.001,0.043-7.014-6.153
		c-0.014-6.706-0.014-6.706,5.88-6.743C148.43,438.353,148.43,438.353,148.461,444.524z"/>
	<path fill="#8C8C8C" d="M321.837,348.441c-6.568-0.002-6.568-0.002-6.563-6.566c0.005-6.264,0.023-6.282,6.36-6.291
		c6.484-0.01,6.58,0.087,6.579,6.641C328.211,348.443,328.211,348.443,321.837,348.441z"/>
	<path fill="#8B8B8B" d="M129.124,374.38c-6.3,0.012-6.412-0.098-6.437-6.308c-0.026-6.551-0.026-6.551,6.048-6.574
		c6.873-0.026,6.873-0.026,6.893,6.237C135.649,374.367,135.649,374.367,129.124,374.38z"/>
	<path fill="#8A8A8A" d="M379.39,381.304c-0.043,5.914-0.2,6.042-7.284,5.97c-5.666-0.057-5.666-0.057-5.616-7.009
		c0.043-6.018,0.043-6.018,7.212-5.936C379.44,374.395,379.44,374.395,379.39,381.304z"/>
	<path fill="#878787" d="M379.313,444.513c0.029-6.172,0.029-6.172,7.038-6.127c5.949,0.038,5.949,0.038,5.925,6.741
		c-0.022,6.152-0.126,6.243-7.083,6.193C379.286,451.277,379.28,451.271,379.313,444.513z"/>
	<path fill="#919191" d="M123.578,346.451c4.503,1.84,9.221,0.849,13.841,0.977c5.823,0.162,11.66-0.113,17.481,0.086
		c4.03,0.137,5.834-1.322,5.628-5.493c-0.214-4.319-0.058-8.656-0.039-12.985c0.03-7.12,0.571-7.651,7.694-7.556
		c2.314,0.031,4.753-0.262,6.29,2.108c-13.006-1.391-13.003-1.391-13.002,11.324c0,3.321-0.089,6.642-0.021,9.961
		c0.052,2.533-1.079,3.589-3.586,3.564c-11.451-0.112-22.902-0.162-34.354-0.235C123.532,347.619,123.555,347.035,123.578,346.451z"
		/>
	<path fill="#FEFEFE" d="M379.491,266.467c-0.063,20.81-0.091,41.621-0.244,62.43c-0.016,2.14,1.253,5.272-1.614,6.176
		c-3.119,0.983-6.661,0.914-9.85-0.068c-1.94-0.597-1.257-2.865-1.262-4.432c-0.053-16.317-0.042-32.634-0.049-48.951
		c0-0.666-0.003-1.332-0.004-1.998c-0.017-8.19-2.171-9.758-10.505-8.092c-3.018,0.603-2.44,2.748-2.455,4.602
		c-0.074,9.49-0.033,18.981-0.064,28.471c-0.018,5.611-0.044,5.611-6.051,5.623c-6.505,0.013-6.709-0.13-6.757-5.573
		c-0.046-5.161-0.143-10.327,0.013-15.483c0.1-3.333-0.984-5.094-4.556-4.7c-0.822,0.091-1.663,0.003-2.496,0.007
		c-5.984,0.028-5.984,0.029-6.044,6.143c-0.067,6.84-0.067,6.849-6.818,6.857c-8.825,0.01-17.653,0.151-26.472-0.065
		c-3.738-0.092-4.901,1.208-4.856,4.893c0.168,13.484-0.079,26.975,0.139,40.458c0.068,4.205-0.935,6.39-5.518,5.698
		c-1.139-0.172-2.334,0.066-3.491-0.027c-2.995-0.242-4.214,1.049-4.092,4.07c0.188,4.654,0.143,9.318,0.197,13.977
		c2.127,2.291,2.687,4.918,0.919,7.532c-1.3,1.921-3.234,1.985-5.087,0.468c-8.231-0.531-8.228-0.531-8.232-8.747
		c-0.004-8.328-0.117-16.657,0.023-24.983c0.062-3.702-0.995-5.443-5.106-5.34c-9.654,0.241-19.322,0.224-28.977,0.004
		c-3.86-0.088-4.794,1.45-4.755,5.009c0.147,13.489-0.091,26.984,0.131,40.471c0.07,4.243-1.013,5.966-5.56,5.814
		c-7.496-0.252-7.497,0.011-7.495-7.292c0.002-8.661-0.196-17.327,0.06-25.98c0.119-4.037-1.386-5.465-5.204-5.009
		c-0.985,0.118-2.008,0.117-2.994,0.002c-3.663-0.428-5.351,1.063-4.863,4.806c0.043,0.327,0.005,0.665,0.002,0.999
		c-0.075,6.987-2.977,9.023-9.895,7.135c-2.89-0.789-2.139-3.053-2.151-4.869c-0.085-13.324-0.072-26.649-0.076-39.973
		c-0.002-6.17-0.032-6.261-5.986-6.284c-9.327-0.035-18.656,0.101-27.98-0.058c-3.604-0.061-5.154,1.095-4.983,4.877
		c0.233,5.152-0.122,10.331,0.1,15.484c0.154,3.576-0.896,5.04-4.745,5.018c-8.128-0.046-8.11,0.152-8.141-8.117
		c-0.041-10.657-0.117-21.315-0.178-31.972c-1.425-1.654-1.209-3.834-1.295-5.676c-0.695-14.879-1.912-29.765-0.798-44.661
		c0.168-2.248-1.089-4.022-0.866-6.112c0.514-4.253,0.551-8.542,0.849-12.814c-0.705-22.807-0.252-45.618-0.252-68.428
		c0-2.362,0.24-4.69,2.345-6.294c0.049-25.814,0.098-51.628,0.147-77.442c0.014-7.499,0.014-7.52,7.404-7.521
		c59.295-0.006,118.59-0.006,177.884,0.001c6.666,0.001,6.679,0.026,6.689,6.585c0.019,13.158,0.152,26.318-0.042,39.473
		c-0.064,4.321,1.369,5.887,5.756,5.821c13.488-0.204,26.983,0.05,40.471-0.146c3.947-0.058,6.057,1.013,5.745,5.215
		c3.156,2.255,2.358,5.686,2.376,8.722c0.131,22.143,0.057,44.287,0.065,66.43c0.006,15.983-0.083,31.967,0.041,47.949
		C382.036,253.346,381.216,259.949,379.491,266.467z"/>
	<path fill="#929292" d="M379.491,266.467c-0.056-19.098-0.165-38.196-0.157-57.294c0.013-28.566,0.108-57.132,0.168-85.698
		c1.734-2.826,3.109-5.9,5.684-8.143c1.307-1.139,2.725-2.071,4.509-1.383c1.722,0.663,1.664,2.318,1.719,3.814
		c0.179,4.857,0.002,9.637-2.371,14.092c-1.622,3.045-1.768,6.332-1.284,9.724c1.643,11.52,1.308,23.217,2.793,34.73
		c1.911,14.81-1.059,29.557-0.003,44.295c0.881,12.295,0.982,24.575,0.823,36.876c-5.787-3.841-5.913-3.788-8.672,2.402
		C381.707,262.11,380.565,264.273,379.491,266.467z"/>
	<path fill="#919191" d="M135.449,151.49c0,24.994,0,49.989,0.001,74.983c-2.351,1.589-4.496,3.421-6.378,5.544
		c-1.255,1.416-2.457,2.857-4.586,1.457c0.002-10.441,0.104-20.883-0.023-31.322c-0.109-8.945,0.484-17.893-0.793-26.84
		c-0.675-4.729-0.433-9.621,0.829-14.343c1.853-6.931,1.905-14.115,3.014-21.15c0.222-1.408-0.014-3.445,2.065-3.34
		c1.978,0.1,1.687,2.104,1.888,3.527c0.348,2.461,0.733,4.919,1.002,7.389C132.683,149.372,133.339,150.936,135.449,151.49z"/>
	<path fill="#919191" d="M135.458,238.493c0.003,18.994,0.006,37.987,0.009,56.981c-3.273-2.873-2.775-6.84-2.932-10.55
		c-0.127-2.992-0.117-5.968-1.389-8.758c-0.339-0.743-0.667-1.604-1.677-1.578c-0.987,0.026-1.319,0.872-1.649,1.622
		c-1.089,2.477-1.051,5.137-1.392,7.762c-0.975,7.493,0.13,15.258-2.864,22.488c0.017-19.347,0.033-38.695,0.05-58.042
		c2.919-2.664,6.042-5.117,8.122-8.598C132.535,238.481,133.729,237.56,135.458,238.493z"/>
	<path fill="#FEFEFE" d="M367.214,104.718c-7.038,0-14.977,0.012-22.917-0.009c-1.788-0.005-3.498-0.435-3.516-2.637
		c-0.068-8.083-0.027-16.166-0.027-24.07C349.761,87.097,358.584,96.005,367.214,104.718z"/>
	<path fill="#898989" d="M135.458,238.493c-1.258,1.893-2.583,3.746-3.758,5.689c-1.858,3.072-4.404,4.709-8.087,4.236
		c0.246-4.984-0.975-10.054,0.872-14.945c1.512-1.664,2.964-3.388,4.551-4.976c1.755-1.756,3.668-3.28,6.413-2.024
		C135.453,230.48,135.455,234.486,135.458,238.493z"/>
	<path fill="#828282" d="M272.473,374.479c6.221-0.149,3.202-5.112,4.168-7.999c2.604-0.055,4.125-1.885,5.824-3.483
		c4.718-4.438,8.773-9.579,14.139-13.326c1.061-0.741,2.045-2.071,3.489-1.432c1.691,0.749,1.273,2.529,1.347,3.975
		c0.067,1.327-0.029,2.661,0.002,3.991c0.069,2.913-1.333,4.298-4.24,4.233c-1.33-0.03-2.665,0.091-3.991,0.022
		c-3.399-0.175-4.925,1.42-4.736,4.783c0.056,0.995-0.001,1.996-0.004,2.994c-0.032,11.93-6.39,18.193-18.49,18.198
		c-2.162,0.001-4.324-0.044-6.487-0.068c-1.312-2.295-0.495-4.156,1.309-5.681C267.314,378.564,269.912,376.544,272.473,374.479z"/>
	<path fill="#FCFCFC" d="M167.661,412.516c-6.222-0.018-6.222-0.018-6.194-6.859c0.025-6.025,0.025-6.025,6.614-5.992
		c6.255,0.032,6.316,0.098,6.275,6.961C174.32,412.536,174.32,412.536,167.661,412.516z"/>
	<path fill="#FDFDFD" d="M282.736,425.468c-6.21-0.017-6.21-0.017-6.188-6.919c0.019-6.121,0.019-6.121,7.054-6.083
		c5.895,0.032,5.895,0.032,5.885,6.689C289.478,425.487,289.478,425.487,282.736,425.468z"/>
	<path fill="#FDFDFD" d="M219.409,425.44c6.124,0.016,6.124,0.016,6.112,6.476c-0.013,6.488-0.013,6.488-6.668,6.473
		c-6.385-0.015-6.385-0.015-6.367-6.783C212.502,425.422,212.502,425.422,219.409,425.44z"/>
	<path fill="#FEFEFE" d="M340.573,380.549c0.003,6.035-0.158,6.2-6.044,6.2c-6.113,0-6.35-0.244-6.321-6.499
		c0.027-5.775,0.134-5.873,6.363-5.861C340.528,374.399,340.57,374.443,340.573,380.549z"/>
	<path fill="#919191" d="M253.709,258.593c-8.778,1.368-17.615,0.546-26.419,0.549c-4.161,0.001-7.24,1.118-10.093,4.2
		c-5.202,5.621-10.859,10.818-16.153,16.358c-2.142,2.241-3.616,2.693-5.988,0.182c-7.289-7.718-6.77-5.493-0.069-12.404
		c4.523-4.665,9.027-9.366,13.828-13.735c2.866-2.608,3.822-5.467,3.724-9.229c-0.214-8.159-0.087-16.327-0.07-24.491
		c0.07-34.527,23.615-63.567,57.572-69.946c14.185-2.665,28.666-3.75,43.012-5.556c3.79-0.477,7.628-0.728,11.354-1.511
		c3.363-0.708,4.329,0.659,4.01,3.61c-0.608,5.617-1.159,11.246-1.99,16.832c-2.128,14.295-2.608,28.845-6.039,42.926
		c-6.502,26.684-30.731,48.275-57.917,51.992c-0.649,0.089-1.327-0.032-1.992-0.055c-1.857-2.474,0.264-3.416,1.721-4.754
		c3.373-3.098,7.53-5.741,7.2-11.236c0.587-1.585,2.051-2.125,3.392-2.747c22.475-10.425,33.423-28.499,35.17-52.759
		c0.478-6.632,1.693-13.197,2.121-19.835c0.31-4.804-1.077-6.424-5.604-5.788c-10.87,1.527-21.881,2.201-32.619,4.452
		c-27.547,5.775-46.235,31.378-43.889,59.616c0.094,1.127-0.202,2.555,1.133,3.062c1.286,0.488,2.11-0.66,2.949-1.433
		c2.732-2.515,3.954-5.641,3.959-9.354c0.008-6.159-0.141-12.322,0.094-18.477c0.217-5.698,1.243-6.67,6.807-6.952
		c1.33-0.068,2.664-0.065,3.994,0.015c5.229,0.313,6.195,1.254,6.953,6.513c0.197,1.369-0.432,3.407,1.625,3.681
		c1.624,0.216,2.508-1.416,3.421-2.579c2.348-2.992,2.072-6.557,2.118-10.048c0.132-9.944,4.135-12.856,13.964-10.312
		c2.523,0.653,3.392,2.29,3.775,4.635c1.163,7.121,1.191,7.219,7.989,8.15c3.17,0.434,4.821,1.935,4.997,5.103
		c0.037,0.664,0.096,1.328,0.125,1.993c0.407,9.589-0.491,10.671-10.165,10.626c-4.924-0.023-9.238,0.889-12.492,4.887
		c-1.564,1.922-1.168,2.978,1.296,3.219c1.324,0.13,2.658,0.134,3.98,0.322c1.989,0.282,3.547,1.192,3.95,3.245
		c0.712,3.624,0.766,7.31-0.017,10.916c-0.617,2.843-3.067,3.23-5.482,3.336c-6.489,0.287-12.983,0.078-19.474,0.148
		c-3.103,0.034-5.949,0.713-8.252,2.927c-0.822,0.79-2,1.564-1.587,2.879c0.436,1.388,1.859,1.182,2.982,1.215
		c2.995,0.089,5.995-0.041,8.988,0.083c1.965,0.081,4.035-0.193,5.734,1.21c1.457,2.054,0.469,3.333-1.415,4.262
		c-0.731,0.36-1.564,0.488-2.325,0.794C251.661,251.715,251.022,253.24,253.709,258.593z"/>
	<path fill="#989898" d="M206.49,92.483c-17.487,0-34.973,0.019-52.46-0.011c-5.547-0.01-5.547-0.07-5.533-6.662
		c0.013-6.211,0.016-6.289,5.399-6.293c34.973-0.024,69.946-0.024,104.919-0.001c5.305,0.004,5.417,0.21,5.413,6.35
		c-0.003,6.292-0.214,6.595-5.779,6.605C241.13,92.503,223.81,92.483,206.49,92.483z"/>
	<path fill="#979797" d="M192.987,118.326c-12.988,0-25.976,0.027-38.964-0.013c-5.486-0.017-5.513-0.113-5.528-6.216
		c-0.016-6.612,0.04-6.774,5.503-6.781c26.309-0.035,52.619-0.035,78.928-0.001c5.481,0.007,5.555,0.187,5.543,6.753
		c-0.011,6.109-0.058,6.229-5.518,6.245C219.629,118.353,206.308,118.326,192.987,118.326z"/>
	<path fill="#959595" d="M180.813,130.513c8.48,0,16.96-0.015,25.439,0.005c6.221,0.015,6.222,0.035,6.228,6.455
		c0.001,0.831-0.072,1.668-0.003,2.493c0.254,3.06-1.245,4.051-4.159,4.042c-18.622-0.059-37.245-0.057-55.867,0.024
		c-3.091,0.014-3.916-1.358-4.018-4.223c-0.315-8.792-0.411-8.797,8.437-8.81c7.981-0.012,15.962-0.002,23.943-0.002
		C180.813,130.503,180.813,130.508,180.813,130.513z"/>
	<path fill="#888888" d="M253.709,258.593c-2.265-0.546-5.551,0.907-6.519-2.154c-0.897-2.839,2.324-4.011,3.741-5.913
		c2.638-3.542,6.957-3.459,10.559-4.921c2.25-4.049,4.779-4.694,8.763-2.236c2.929,0.849,3.359,2.463,1.211,4.558
		c-3.607,3.518-7.318,6.93-10.986,10.387C258.222,258.407,255.966,258.5,253.709,258.593z"/>
	<path fill="#FEFEFE" d="M270.254,243.37c-2.921,0.745-5.842,1.491-8.763,2.236c-8.406,0-16.812,0-25.859,0
		c3.353-4.503,7.133-7.691,10.646-11.119c1.325-1.294,3.112-1.001,4.755-1.009c6.827-0.031,13.662-0.223,20.478,0.05
		c4.077,0.163,5.426-1.497,5.02-5.267c-0.106-0.988-0.111-2.007,0.002-2.994c0.432-3.779-1.324-5.057-4.944-4.817
		c-3.248,0.216-6.521,0.046-10.91,0.046c4.094-5.051,7.76-8.864,11.88-12.068c2.748-2.138,6.482-0.54,9.737-0.977
		c2.317-0.311,5.608,1.343,6.704-1.575c1.148-3.054,0.726-6.572,0.067-9.858c-0.234-1.165-1.382-1.325-2.387-1.393
		c-1.161-0.078-2.329-0.071-3.494-0.083c-6.613-0.067-6.538-0.067-6.723-6.503c-0.058-2.02,1.072-4.89-1.499-5.796
		c-3.118-1.099-6.565-0.882-9.824,0.013c-1.057,0.29-1.403,1.353-1.459,2.403c-0.062,1.163-0.286,2.374-0.061,3.487
		c2.06,10.177-3.989,16.018-11.65,21.616c-1.107-3.592-0.573-7.048-0.547-10.4c0.026-3.338-1.126-5.065-4.639-4.782
		c-0.992,0.08-2.01,0.109-2.994-0.014c-4.165-0.524-5.582,1.306-5.418,5.406c0.253,6.317-0.115,12.659,0.124,18.977
		c0.138,3.638-0.985,6.305-3.639,8.787c-2.761,2.581-5.058,5.658-8.249,8.079c-1.487-13.342-2.087-26.182,3.344-38.385
		c9.859-22.149,27.306-33.562,51.14-35.95c9.588-0.961,19.158-2.146,28.706-3.447c3.039-0.414,4.098,0.65,3.688,3.435
		c-2.175,14.784-2.113,29.977-6.53,44.328c-5.175,16.814-16.594,28.531-32.62,35.747
		C272.978,242.155,271.615,242.761,270.254,243.37z"/>
</g>
</svg>
