<?xml version="1.0" encoding="utf-8"?>
<!-- Generator: Adobe Illustrator 17.0.0, SVG Export Plug-In . SVG Version: 6.00 Build 0)  -->
<!DOCTYPE svg PUBLIC "-//W3C//DTD SVG 1.1//EN" "http://www.w3.org/Graphics/SVG/1.1/DTD/svg11.dtd">
<svg version="1.1" id="Capa_1" xmlns="http://www.w3.org/2000/svg" xmlns:xlink="http://www.w3.org/1999/xlink" x="0px" y="0px"
	 width="409px" height="409px" viewBox="0 0 409 409" enable-background="new 0 0 409 409" xml:space="preserve">
<g>
	<path fill="#FEFEFE" d="M205.98,410.959c-66.973,0-133.946-0.029-200.919,0.087c-3.287,0.006-4.167-0.472-4.164-4.022
		C1.019,273.078,1.021,139.132,0.89,5.186C0.886,1.41,1.874,0.914,5.31,0.917c133.779,0.098,267.558,0.098,401.337,0
		c3.434-0.003,4.425,0.491,4.421,4.269c-0.132,133.946-0.129,267.891-0.008,401.837c0.003,3.549-0.875,4.029-4.163,4.023
		C339.926,410.93,272.953,410.959,205.98,410.959z"/>
	<path fill="#8C8C8C" d="M212.065,127.221c-0.186,5.927-1.978,11.446-4.4,16.775c-3.149,6.929-8.014,12.965-10.264,20.41
		c-0.912,3.015-3.486,5.342-6.393,6.758c-3.355,1.635-4.246,4.138-4.062,7.673c0.259,4.98,0.192,9.986,0.06,14.975
		c-0.271,10.236,3.965,17.548,13.423,21.832c17.652,7.994,31.701,20.011,40.957,37.256c7.916,14.748,11.072,30.487,9.735,47.15
		c-4.173,1.373-4.698-1.788-5.363-4.484c-0.586-2.379,0.086-4.932-0.978-7.341c-0.044,5.19-0.902,10.293-1.52,15.412
		c-0.358,2.969,0.322,6.958-4.249,7.839c-3.018-1.338-2.373-4.151-2.417-6.511c-0.164-8.654-0.468-17.329-2.15-25.804
		c-4.499-22.678-17.845-38.507-38.461-48.538c-4.012-1.952-7.287-0.858-10.693,1.43c-9.233,6.202-19.554,9.379-30.597,9.246
		c-11.195-0.134-21.711-3.289-30.89-9.933c-3.28-2.375-6.202-2.326-9.731-0.693c-10.668,4.936-19.306,12.285-26.519,21.453
		c-1.306,1.66-2.27,3.808-4.872,3.862c-2.327-0.948-4.053-0.884-5.782,1.587c-2.446,3.497-5.791,6.296-8.936,9.205
		c-1.409,1.304-2.871,3.015-5.08,1.195c6.03-21.324,19.357-36.836,38.255-47.855c3.591-2.094,7.4-3.811,11.058-5.793
		c4.386-2.377,7.713-5.772,9.489-10.515c0.828-2.21,0.746-3.554-2.306-4.04c-14.261-2.272-22.033-11.604-22.195-26.167
		c-0.039-3.495-0.174-6.988-0.265-10.482c-2.167-3.918,0.926-5.808,3.194-7.84c2.316-2.075,4.812-1.721,7.24,0.1
		c1.58,1.186,3.497,1.967,4.405,3.899c1.124,4.244,0.545,8.594,0.719,12.902c0.381,9.396,4.487,12.776,13.719,11.678
		c9.915-1.179,19.61-3.674,29.547-4.693c5.654-0.58,6.624,0.064,7.97,5.56c0.521,2.128,0.647,4.254,0.54,6.431
		c-0.141,2.861-1.449,4.573-4.313,5.293c-5.008,1.259-10.138,1.823-15.194,2.8c-4.082,0.788-6.366,2.858-7.694,6.767
		c-3.683,10.846-2.776,12.486,8.333,15.665c8.396,2.403,16.454,1.62,24.37-1.641c5.52-2.273,6.473-4.541,4.471-10.094
		c-1.823-5.059-2.762-10.243-2.719-15.633c0.073-9.148-0.11-18.298,0.084-27.444c0.128-6.055,0.692-6.603,6.549-7.854
		c3.453-0.737,5.917-2.32,5.335-6.417c-0.712-8.13,0.407-9.969,8.019-13.23c2.848-1.401,2.905-5.111,5.519-6.72
		c1.921-0.704,3.465-1.672,4.216-3.818c0.783-2.236,2.715-3.705,4.428-5.251c1.505-1.358,3.256-2.647,5.328-1.584
		C213.262,123.168,212.596,125.288,212.065,127.221z"/>
	<path fill="#999999" d="M14.03,174.033c-2.233-0.045-5.238,1.228-6.3-1.413c-1.227-3.053-1.074-6.605,0.006-9.798
		c0.64-1.892,2.771-1.577,4.39-1.547c8.672,0.163,7.959-0.248,7.966-8.456c0.034-41.825,0.045-83.651,0.066-125.476
		c0.004-7.173,0.009-7.182,7.091-7.184c38.326-0.008,76.652-0.005,114.978-0.02c6.577-0.002,6.838-0.041,6.59-6.648
		c-0.177-4.71,1.29-6.616,6.208-6.358c6.359,0.334,6.614,0.284,6.73,6.318c0.128,6.645,0.128,6.691,6.709,6.694
		c38.159,0.013,76.319-0.001,114.478,0.004c6.876,0.001,6.89,0.02,6.897,6.885c0.016,16.33,0.016,32.661,0.025,48.991
		c0.005,7.953,0.008,7.955,8.104,8.763c0.994,0.099,1.992,0.157,2.989,0.234c0.442,0.86,0.253,1.716-0.411,2.261
		c-3.333,2.736-7.038,1.062-10.484,0.484c-2.636-0.442-3.312-3-3.402-5.486c-0.314-8.654-0.019-17.313-0.193-25.966
		c-0.037-1.835,0.927-4.851-1.505-5.119c-2.572-0.284-3.717,2.672-4.047,4.929c-0.747,5.102-1.223,10.32,0.538,15.31
		c1.765,5.002,0.552,9.495-1.681,13.921c-0.794,1.574-2.108,2.718-3.905,2.737c-4.447,0.046-8.868,1.483-13.347,0.151
		c-2.984-0.887-5.619-0.005-7.808,2.104c-8.154,7.853-16.097,15.919-24.05,23.975c-2.262,2.292-3,4.793-0.874,7.563
		c0.968,1.261,1.308,2.66,1.337,4.19c-4.631,0.207-6.37-3.777-8.335-6.589c-1.87-2.675,1.708-4.232,3.299-5.858
		c8.384-8.568,17.017-16.893,25.336-25.521c2.788-2.892,5.761-3.895,9.691-3.978c5.064-0.107,11.435,2.365,14.87-1.294
		c3.171-3.378,0.969-9.571,1.053-14.513c0.172-10.153-0.043-20.313,0.101-30.467c0.051-3.594-1.181-5.044-4.897-5.035
		c-35.131,0.087-70.262,0.114-105.392-0.011c-4.493-0.016-5.193,2.126-5.16,5.852c0.059,6.569-4.903,9.566-10.986,6.925
		c-2.299-0.998-1.736-2.988-1.793-4.714c-0.265-8.005-0.237-8.01-8.355-8.011c-33.632-0.002-67.265-0.006-100.897,0.005
		c-6.752,0.002-6.789,0.032-6.788,6.555c0.006,38.627,0.023,77.255,0.07,115.882c0.003,2.404-0.672,5.144,2.279,6.57
		c-4.504,2.208-5.036-0.652-5.155-4.03c-1.126-13.967-0.372-27.967-0.514-41.956c-0.132-12.995-0.005-25.993-0.051-38.99
		c-0.007-1.946,0.414-4.006-1.072-6.06c-1.975,1.036-1.646,2.96-1.92,4.601c-4.133,24.778-2.952,49.771-3.04,74.713
		c-0.01,2.832,0.074,5.667-0.18,8.493c-0.243,2.693-1.431,4.626-4.04,5.783C12.74,167.313,12.767,167.375,14.03,174.033z"/>
	<path fill="#949494" d="M212.065,127.221c-0.226-4.51-2.234-3.987-4.951-1.808c-3.48,2.792-5.201,7.259-9.18,9.561
		c-2.982-1.765-1.636-4.456-1.24-6.745c2.385-13.771-0.835-26.161-9.368-37.056c-8.139-10.391-19.12-16.128-32.235-16.574
		c-15.957-0.543-31.944-0.189-47.918-0.108c-6.478,0.033-8.246,2.245-7.365,8.707c2.939,21.561,22.749,30.748,41.153,19.07
		c3.369-2.138,6.666-4.345,10.458-5.763c17.811-6.66,37.616,6.593,38.005,25.496c0.115,5.586-0.9,11.418,3.744,15.982
		c0.731,0.718,0.495,1.879,0.083,2.847c-1.186,0.609-2.358,1.246-3.56,1.823c-4.48,2.151-4.636,5.567-2.832,9.569
		c-4.187,0.684-8.14-0.848-12.162-1.474c-2.815-0.438-2.966-3.26-3.059-5.621c-0.267-6.813-0.05-13.63-0.147-20.446
		c-0.064-4.457-1.535-8.125-5.634-10.391c-4.364-2.413-8.338-1.218-12.177,1.285c-6.143,4.004-12.351,7.792-19.771,9.109
		c-5.305,0.942-10.579,1.086-15.859,0.179c-3.822-0.657-6.038,0.53-6.722,4.555c-0.786,4.623-2.453,9.016-4.872,13.013
		c-2.481,4.099-1.852,7.343,1.437,10.697c1.697,1.731,5.16,3.538,1.897,6.869c-6.396-5.581-8.934-4.965-12.873,3.125
		c-4.08-3.918-8.042-7.968-12.279-11.707c-2.826-2.493-1.498-4.049,0.517-6.006c8.468-8.224,12.608-18.192,12.025-30.086
		c-0.12-2.444-0.694-4.402-2.369-6.304c-9.895-11.237-11.71-24.73-10.04-38.897c0.842-7.144,5.45-10.982,12.618-11.019
		c20.325-0.105,40.669-0.493,60.972,0.2c25.09,0.856,49.457,23.758,53.449,49.115C212.799,114.681,213.673,120.932,212.065,127.221z
		"/>
	<path fill="#888888" d="M62.883,267.978c5.144-4.84,10.252-9.719,15.466-14.482c0.875-0.799,2.005-2.101,3.412-1.237
		c0.947,0.581,0.296,1.814,0.272,2.763c0.045,0.262,0.09,0.525,0.141,0.787c0.835,2.283,0.164,4.331-0.973,6.314
		c-6.945,14.291-7.397,29.534-6.59,44.951c0.207,3.963,2.492,5.993,6.393,6.297c0.664,0.052,1.329,0.079,1.995,0.101
		c9.729,0.323,11.46-1.321,11.515-10.911c0.04-6.992-0.168-13.987,0.121-20.974c0.235-5.67,1.308-6.664,6.831-6.971
		c0.997-0.055,1.997-0.058,2.996-0.032c6.654,0.169,7.743,1.191,7.927,7.953c0.204,7.489-0.051,14.984,0.12,22.473
		c0.147,6.411,2.025,8.387,8.474,8.424c22.807,0.131,45.615,0.139,68.422-0.006c6.101-0.039,7.899-2.009,8.052-8.284
		c0.19-7.822-0.133-15.651,0.163-23.471c0.223-5.881,1.292-6.823,7.229-7.076c1.165-0.05,2.331-0.052,3.495,0.009
		c5.603,0.291,6.73,1.28,6.975,6.824c0.324,7.319,0.071,14.648,0.141,21.972c0.082,8.59,1.589,9.899,10.332,10.146
		c4.617,0.131,8.878-0.868,13.062-2.586c2.852-7.905,2.925-16.158,3.174-24.408c0.069-2.289-1.191-6.074,1.815-6.403
		c3.306-0.362,3.052,3.701,3.577,6.074c0.564,2.55,0.45,5.252,0.62,7.888c0.157,2.433,0.995,4.508,3.08,5.939
		c0.178,7.481,0.158,14.974,0.605,22.438c0.285,4.764-1.357,6.339-6.197,6.314c-33.936-0.171-67.873-0.089-101.81-0.089
		c-26.118,0-52.237-0.119-78.353,0.103c-5.007,0.042-6.746-1.356-6.5-6.474c0.709-14.767-0.939-29.607,1.272-44.337
		C60.656,274.561,61.239,271.121,62.883,267.978z"/>
	<path fill="#949494" d="M231.125,126.074c-8.797-6.927-8.797-6.927-1.122-14.601c7.775-7.774,15.614-15.487,23.293-23.355
		c2.608-2.673,5.5-3.785,8.997-2.661c2.473,0.795,4.907,0.656,7.402,0.569c8.717-0.303,11.275-4.903,9.348-13.381
		c-1.962-8.634-3.481-17.846,4.119-25.206c1.292-1.251,2.538-3.165,4.55-2.368c1.885,0.747,1.209,2.907,1.219,4.486
		c0.058,9.495,0.017,18.992,0.035,28.487c0.015,8.029,4.102,10.397,11.99,6.976c10.326-0.034,20.653-0.025,30.979-0.11
		c22.481-0.185,44.962-0.441,67.444-0.595c2.041-0.014,4.862-0.912,5.789,1.631c1.139,3.125,1.177,6.66-0.055,9.785
		c-0.777,1.97-3.207,1.347-4.977,1.352c-13.328,0.04-26.657,0.025-39.985,0.026c-21.325,0.001-42.652,0.105-63.975-0.081
		c-4.586-0.04-6.51,1.057-6.43,6.087c0.277,17.489,0.236,34.987,0.049,52.478c-0.047,4.385,1.438,5.837,5.77,5.775
		c6.758-0.096,9.48,4.31,7.116,10.713c-0.956,2.588-3.169,2.012-5.059,2.083c-7.734,0.292-7.74,0.262-7.737,8.104
		c0.018,46.649,0.056,93.299,0.004,139.948c-0.002,2.122,1.282,5.213-1.701,6.131c-3.148,0.968-6.657,0.975-9.84-0.123
		c-1.934-0.667-1.306-2.865-1.315-4.448c-0.051-8.996-0.022-17.993-0.019-26.99c0.016-38.652,0.037-77.304,0.046-115.957
		c0.002-6.534-0.023-6.476-6.677-6.67c-2.042-0.06-4.909,0.928-5.773-1.625c-1.058-3.124-1.229-6.721,0.135-9.776
		c1.026-2.299,3.891-1.616,5.92-1.407c5.095,0.526,6.585-1.54,6.51-6.553c-0.26-17.323-0.204-34.654-0.001-51.978
		c0.051-4.334-1.363-5.514-5.684-5.876c-7.808-0.654-13.517,1.726-18.754,7.676C246.046,112.221,238.374,118.961,231.125,126.074z"
		/>
	<path fill="#8D8D8D" d="M31.953,157.015c0.104,2.28-0.118,4.78,3.265,4.857c0.999-0.046,1.997-0.123,2.995-0.133
		c7.537-0.072,9.224,2.143,7.586,9.701c-0.331,1.528-0.997,2.449-2.537,2.568c-1.492,0.115-3.013,0.281-4.489,0.122
		c-4.539-0.488-6.033,1.338-5.998,5.958c0.203,26.493,0.121,52.988,0.135,79.482c0.011,20.995-0.108,41.992,0.128,62.985
		c0.053,4.742-1.245,6.546-6.151,6.278c-6.542-0.358-6.767-0.215-6.767-6.179c0.001-47.323,0.04-94.646-0.003-141.969
		c-0.002-2.561,1.277-6.028-3.113-6.675c-4.184-3.46-4.365-5.492,0.095-8.245c3.179-1.962,5.399-4.615,7.764-7.305
		C26.764,156.299,28.907,154.099,31.953,157.015z"/>
	<path fill="#949494" d="M31.953,157.015c-6.656,2.294-10.599,8.029-15.572,12.43c-1.468,1.299-0.002,3.08,0.624,4.565
		c-0.992,0.008-1.984,0.015-2.976,0.023c-0.756-0.339-1.485-0.772-2.273-1.001c-3.307-0.959-3.716-3.582-3.468-6.348
		c0.263-2.935,2.438-3.541,5.021-3.708c7.673-0.496,7.687-0.55,7.694-8.089c0.014-13.987,0.437-27.991-0.111-41.957
		c-0.591-15.069,2.839-29.676,3.997-44.531c0.175-2.242,0.429-5.155,3.68-4.957c3.425,0.209,3.4,3.104,3.4,5.654
		C31.973,98.403,31.961,127.709,31.953,157.015z"/>
	<path fill="#949494" d="M347.79,110.123c9.157,0.005,18.319,0.192,27.469-0.065c5.538-0.155,4.469,3.531,4.587,6.728
		c0.122,3.314,0.312,6.214-4.654,6.158c-18.145-0.203-36.295-0.214-54.44,0.004c-5.224,0.063-4.919-3.004-4.934-6.483
		c-0.016-3.535-0.168-6.601,5.004-6.43C329.802,110.332,338.8,110.118,347.79,110.123z"/>
	<path fill="#929292" d="M348.19,148.832c-9.156,0-18.318-0.203-27.465,0.079c-5.254,0.162-4.864-3.052-4.921-6.515
		c-0.06-3.613-0.035-6.429,5.059-6.366c18.142,0.225,36.29,0.213,54.433,0.016c5.569-0.061,4.416,3.575,4.55,6.743
		c0.141,3.339,0.258,6.277-4.69,6.122C366.175,148.63,357.18,148.831,348.19,148.832z"/>
	<path fill="#8F8F8F" d="M348.496,187.117c8.805,0.007,17.62,0.254,26.412-0.087c5.2-0.201,5.068,2.814,4.964,6.342
		c-0.096,3.271,0.756,6.653-4.692,6.585c-18.106-0.228-36.219-0.226-54.325,0.004c-5.073,0.065-5.087-2.699-5.072-6.323
		c0.016-3.75-0.135-6.851,5.305-6.63C330.21,187.38,339.358,187.111,348.496,187.117z"/>
	<path fill="#858585" d="M348.502,392.838c8.808-0.002,17.619,0.114,26.424-0.059c3.553-0.07,5.038,0.957,5.04,4.779
		c0.005,8.198,0.195,8.201-8.017,8.203c-16.786,0.005-33.575-0.18-50.356,0.119c-5.217,0.093-5.963-2.152-5.936-6.553
		c0.027-4.342,0.651-6.818,5.925-6.592C330.541,393.118,339.527,392.841,348.502,392.838z"/>
	<path fill="#929292" d="M347.954,174.178c-8.996-0.001-17.998-0.198-26.986,0.077c-4.975,0.152-5.188-2.608-5.216-6.333
		c-0.029-3.826,0.453-6.333,5.308-6.279c17.824,0.195,35.653,0.241,53.475-0.012c5.338-0.076,5.291,2.815,5.403,6.645
		c0.119,4.075-0.817,6.153-5.498,5.992C365.62,173.962,356.783,174.179,347.954,174.178z"/>
	<path fill="#868686" d="M97.179,374.489c0,1.994,0.002,3.988,0,5.982c-0.011,8.748-0.481,9.08-9.411,8.348
		c-2.71-0.222-3.825-1.227-3.784-3.972c0.104-6.977,0.102-13.957,0.008-20.934c-0.037-2.789,1.18-3.94,3.869-3.856
		c1.826,0.057,3.656,0.059,5.482,0.006c2.76-0.08,3.882,1.272,3.823,3.959c-0.077,3.487-0.019,6.978-0.019,10.467
		C97.158,374.489,97.169,374.489,97.179,374.489z"/>
	<path fill="#828282" d="M110.095,373.977c0.004-2.162,0.005-4.323,0.004-6.485c-0.004-6.709,5.147-9.945,11.268-7.17
		c1.595,0.723,1.587,1.996,1.592,3.299c0.028,7.15-0.039,14.3,0.028,21.449c0.023,2.494-0.959,3.724-3.503,3.659
		c-1.661-0.042-3.333-0.09-4.986,0.039c-3.592,0.282-4.637-1.512-4.449-4.818C110.238,380.636,110.091,377.302,110.095,373.977z"/>
	<path fill="#848484" d="M199.921,374.388c0,2.33,0.002,4.66,0,6.99c-0.006,6.694-5.195,9.908-11.303,7.094
		c-1.589-0.732-1.585-2-1.591-3.304c-0.033-7.156,0.025-14.312-0.043-21.467c-0.024-2.528,1.064-3.68,3.564-3.634
		c1.996,0.037,3.993,0.014,5.989-0.006c2.266-0.023,3.351,1.065,3.332,3.345c-0.031,3.661-0.008,7.322-0.008,10.983
		C199.88,374.388,199.901,374.388,199.921,374.388z"/>
	<path fill="#868686" d="M213.041,373.989c0.001-2.164-0.002-4.328,0.002-6.492c0.01-6.765,5.072-9.944,11.261-7.167
		c1.592,0.715,1.62,1.975,1.626,3.288c0.034,7.158-0.021,14.316,0.051,21.473c0.025,2.51-1.017,3.708-3.534,3.661
		c-1.664-0.031-3.334-0.069-4.992,0.037c-3.12,0.198-4.626-0.994-4.455-4.315C213.179,380.988,213.04,377.485,213.041,373.989z"/>
	<path fill="#878787" d="M366.607,379.9c-1.994,0-3.989,0.006-5.983-0.001c-6.591-0.024-6.27-0.046-6.678-6.55
		c-0.318-5.076,1.36-6.825,6.428-6.416c5.119,0.414,10.3,0.198,15.448,0.066c2.992-0.077,4.298,1.089,4.082,4.093
		c-0.119,1.653-0.1,3.327-0.005,4.983c0.159,2.76-1.059,3.93-3.819,3.834c-3.154-0.109-6.315-0.025-9.472-0.025
		C366.607,379.888,366.607,379.894,366.607,379.9z"/>
	<path fill="#808080" d="M328.917,367.063c1.498,0,2.996-0.001,4.494,0c7.524,0.007,9.644,2.991,7.646,10.46
		c-0.508,1.9-1.682,2.297-3.282,2.301c-6.158,0.013-12.317-0.042-18.475,0.019c-2.614,0.026-3.549-1.286-3.486-3.702
		c0.048-1.83,0.053-3.662,0.012-5.492c-0.055-2.488,1.06-3.655,3.603-3.589c3.16,0.082,6.324,0.02,9.487,0.02
		C328.917,367.075,328.917,367.069,328.917,367.063z"/>
	<path fill="#878787" d="M244.996,366.952c6.753,0,6.753,0,6.746,6.354c-0.008,6.675-0.008,6.675-6.448,6.676
		c-7.014,0.001-7.014,0.001-7.007-6.619C238.294,366.952,238.294,366.952,244.996,366.952z"/>
	<path fill="#888888" d="M169.109,366.953c4.496-1.081,5.894,1.371,5.649,6.285c-0.336,6.73-0.091,6.745-7.034,6.737
		c-6.544-0.008-6.544-0.008-6.539-6.575C161.19,366.931,161.19,366.931,169.109,366.953z"/>
	<path fill="#989898" d="M400.101,110.091c4.536-1.023,5.79,1.439,5.826,6.34c0.035,4.873-1.201,6.89-6.41,6.562
		c-6.611-0.415-6.672-0.131-6.646-6.678C392.894,110.185,392.988,110.095,400.101,110.091z"/>
	<path fill="#949494" d="M399.17,199.739c-5.319,1.194-6.642-1.382-6.389-6.262c0.332-6.397,0.121-6.061,6.934-6.504
		c5.526-0.359,6.082,2.238,6.207,6.797C406.065,199.028,404.092,200.779,399.17,199.739z"/>
	<path fill="#898989" d="M379.899,346.69c0.012,7.334-0.007,7.021-6.571,7.424c-5.072,0.312-6.718-1.388-6.406-6.436
		c0.406-6.555,0.107-6.299,6.679-6.656C378.592,340.751,380.931,342.248,379.899,346.69z"/>
	<path fill="#7E7E7E" d="M38.359,380c-4.671,1.181-5.737-1.532-5.481-6.348c0.356-6.676,0.125-6.329,6.939-6.808
		c5.256-0.37,6.569,1.562,6.28,6.471C45.705,379.984,45.997,380.001,38.359,380z"/>
	<path fill="#848484" d="M72.05,373.457c0,6.542,0,6.542-6.53,6.545c-6.613,0.002-6.613,0.002-6.616-6.493
		c-0.003-6.548-0.003-6.548,6.581-6.55C72.05,366.958,72.05,366.958,72.05,373.457z"/>
	<path fill="#858585" d="M148.97,373.709c-0.014,6.28-0.014,6.279-6.873,6.257c-6.141-0.02-5.72-0.052-6.241-6.991
		c-0.424-5.653,2.198-6.284,6.739-6.084C148.976,367.171,148.985,366.968,148.97,373.709z"/>
	<path fill="#858585" d="M270.699,366.956c6.29,0.023,6.29,0.023,6.271,6.84c-0.018,6.202-0.048,5.793-6.929,6.297
		c-5.585,0.409-6.34-2.112-6.125-6.715C264.218,366.942,264.002,366.932,270.699,366.956z"/>
	<path fill="#979797" d="M399.362,136.242c5.068-1.1,6.783,1.05,6.495,6.088c-0.363,6.342-0.314,6.213-6.853,6.635
		c-5.349,0.345-6.214-2.007-6.283-6.676C392.646,137.197,394.361,135.197,399.362,136.242z"/>
	<path fill="#8A8A8A" d="M322.317,354.017c-6.453,0.002-6.517-0.059-6.538-6.255c-0.023-6.626,0.028-6.677,6.63-6.653
		c6.207,0.022,6.314,0.133,6.319,6.543C328.732,353.983,328.701,354.015,322.317,354.017z"/>
	<path fill="#858585" d="M347.684,353.84c-5.097,1.097-6.932-0.923-6.638-6.073c0.374-6.562,0.172-6.295,6.766-6.738
		c5.366-0.36,6.293,1.919,6.349,6.668C354.22,352.707,352.846,355.019,347.684,353.84z"/>
	<path fill="#919191" d="M405.746,168.129c-0.018,5.881-0.247,6.088-6.71,6.048c-5.954-0.037-5.917-0.341-6.259-6.629
		c-0.284-5.208,2.236-6.062,6.587-5.891C405.51,161.897,405.764,161.969,405.746,168.129z"/>
	<path fill="#FEFEFE" d="M238.854,310.962c0.124,3.577-1.489,5.013-5.154,4.847c-5.32-0.24-10.666-0.22-15.988-0.008
		c-3.776,0.15-4.877-1.408-4.805-5.025c0.187-9.492-0.242-19.004,0.166-28.482c0.234-5.427-2.682-5.404-6.512-5.322
		c-3.621,0.077-6.898-0.485-6.659,5.158c0.408,9.645-0.014,19.322,0.142,28.982c0.056,3.465-1.191,4.689-4.631,4.678
		c-26.822-0.083-53.644-0.099-80.466,0.01c-4.061,0.016-5.063-1.713-4.993-5.436c0.177-9.492-0.226-19.001,0.124-28.483
		c0.214-5.819-3.484-4.752-6.877-4.905c-3.656-0.164-6.416-0.019-6.23,5.081c0.352,9.65,0.011,19.323,0.159,28.983
		c0.052,3.38-1.052,4.868-4.575,4.754c-5.492-0.178-10.995-0.119-16.491-0.032c-2.918,0.046-4.15-1.073-4.185-4.11
		c-0.197-17.497-0.994-35.057,7.215-51.366c0.861-1.837,1.678-3.698,2.959-5.3c0,0-0.02,0.035-0.02,0.035
		c8.878-12.46,20.04-22.11,34.138-28.347c2.69-1.19,4.406-1.013,6.682,0.726c19.597,14.975,43.933,15.21,63.91,0.491
		c2.967-2.186,5.057-2.281,8.375-0.701c23.076,10.988,37.871,28.422,42.342,53.861C239.214,290.914,238.486,300.985,238.854,310.962
		z"/>
	<path fill="#FEFEFE" d="M109.792,159.999c-1.016-4.213-4.923-6.058-7.464-9.014c-1.418-1.649-2.471-2.894-0.879-5.119
		c4.635-6.476,7.213-13.813,8.206-21.669c0.35-2.768,1.18-3.767,4.119-2.92c13.764,3.964,26.238,0.983,37.652-7.328
		c4.518-3.29,9.308-5.218,14.856-2.608c4.95,2.329,7.744,6.153,7.786,11.728c0.055,7.144,0.123,14.289,0.004,21.431
		c-0.053,3.183,1.153,4.706,4.374,4.401c3.378-0.321,6.22,0.669,8.415,3.321c0.329,6.853-1.25,9.072-7.873,9.212
		c-4.185,0.088-4.952,1.824-4.881,5.452c0.171,8.815,0.132,17.638-0.006,26.455c-0.109,6.965,1.009,13.623,4.59,19.647
		c1.695,2.851,0.846,4.414-1.626,6.122c-12.532,8.661-31.875,8.56-44.266-0.216c-2.31-1.636-3.157-3.084-1.46-5.686
		c2.016-3.091,3.379-6.558,3.734-10.231c0.401-4.144,2.899-5.468,6.537-5.973c5.428-0.753,10.815-1.8,16.246-2.533
		c3.321-0.448,4.416-2.01,4.093-5.36c-0.772-7.999-0.686-8.166-8.491-7.01c-9.364,1.386-18.696,3.002-28.03,4.584
		c-9.269,1.571-15.193-3.257-15.432-12.718C109.877,169.312,109.856,164.655,109.792,159.999z"/>
	<path fill="#FEFEFE" d="M193.251,140.831c-7.485-3.295-6.183-9.943-6.221-16.135c-0.09-14.581-8.058-24.377-22.145-27.132
		c-7.739-1.513-14.438,1.289-20.58,5.641c-7.661,5.429-15.825,8.438-25.315,6.022c-17.205-4.38-23.073-18.932-21.771-34.558
		c0.181-2.166,1.543-2.759,3.412-2.752c19.477,0.064,39.091-1.297,58.4,0.541c27.774,2.644,45.602,30.004,39.775,58.12
		c-0.303,1.463-0.582,2.93-0.872,4.396C196.264,136.84,196.707,140.394,193.251,140.831z"/>
	<path fill="#8C8C8C" d="M82.053,254.986c-0.606,1.978-1.514,3.788-2.96,5.299C79.323,258.097,80.134,256.232,82.053,254.986z"/>
	<path fill="#8C8C8C" d="M288.962,256.694c0.004,21.662,0.021,43.325-0.007,64.987c-0.007,5.694-0.906,6.385-6.284,6.296
		c-3.447-0.057-4.76-1.587-4.706-4.899c0.09-5.497,0.013-10.997,0.013-16.496c0.001-33.993,0.146-67.987-0.11-101.979
		c-0.054-7.179,3.312-13.548,3.498-20.566c0.031-1.169,0.808-2.265,2.15-2.441c1.319-0.173,2.141,0.729,2.838,1.71
		c1.896,2.665,2.665,5.576,2.651,8.901C288.914,213.702,288.958,235.198,288.962,256.694z"/>
	<path fill="#828282" d="M31.981,312.874c0.631,4.719-0.018,9.873-6.173,12.701c-3.127,1.437-4.617,0.89-4.796-2.758
		c-0.322-6.574-0.396-13.002,5.37-17.71c1.269-1.036,2.447-2.741,4.206-2.145c1.991,0.675,1.26,2.8,1.37,4.366
		C32.062,308.812,31.981,310.309,31.981,312.874z"/>
</g>
</svg>
