<?xml version="1.0" standalone="no"?>
<!DOCTYPE svg PUBLIC "-//W3C//DTD SVG 20010904//EN"
 "http://www.w3.org/TR/2001/REC-SVG-20010904/DTD/svg10.dtd">
<svg version="1.0" xmlns="http://www.w3.org/2000/svg"
 width="409.000000pt" height="409.000000pt" viewBox="0 0 409.000000 409.000000"
 preserveAspectRatio="xMidYMid meet">

<g transform="translate(0.000000,409.000000) scale(0.100000,-0.100000)"
fill="#000000" stroke="none">
<path d="M3600 3389 c0 -5 5 -7 10 -4 6 3 10 8 10 11 0 2 -4 4 -10 4 -5 0 -10
-5 -10 -11z"/>
<path d="M1070 2945 c0 -11 -12 -15 -50 -15 -35 0 -50 -4 -50 -13 0 -30 -63
-137 -109 -185 -54 -57 -146 -107 -206 -112 -90 -8 -205 -1 -205 13 0 6 -3 8
-6 4 -12 -12 -106 44 -150 89 -46 48 -97 132 -108 177 -6 24 -11 27 -51 27
-54 0 -56 -9 -24 -97 42 -113 122 -207 225 -268 25 -15 52 -28 62 -31 9 -2 42
-11 72 -20 70 -20 183 -13 265 16 33 12 65 26 70 30 6 5 17 5 24 0 11 -6 0
-51 -57 -226 -39 -121 -109 -339 -156 -485 l-86 -265 -58 4 c-79 6 -131 -11
-187 -60 -61 -53 -84 -105 -85 -184 0 -58 -2 -62 -44 -106 -62 -65 -89 -142
-84 -234 3 -39 12 -85 21 -104 21 -41 21 -49 0 -91 -9 -19 -19 -61 -21 -95 -5
-74 24 -149 74 -193 l33 -30 -64 -202 c-36 -111 -65 -206 -65 -211 0 -4 808
-8 1795 -8 l1795 0 2 641 3 641 53 20 c71 27 144 100 171 173 23 60 28 156 11
201 -10 24 -6 31 34 71 68 67 101 142 101 228 -1 84 -24 143 -84 208 -26 28
-41 54 -41 70 0 95 -101 227 -201 263 l-54 19 -3 163 -2 162 -50 0 -50 0 0
-279 c0 -300 1 -292 -52 -298 -68 -7 -157 -76 -188 -145 -17 -38 -26 -46 -81
-67 -74 -28 -140 -90 -172 -159 -33 -72 -31 -199 5 -268 39 -74 114 -138 189
-160 52 -16 63 -24 79 -55 31 -59 109 -117 193 -143 16 -5 17 -42 17 -586 l0
-580 -704 0 -705 0 -3 353 c-3 316 -5 355 -21 385 -10 18 -93 117 -185 220
-92 103 -187 210 -211 239 l-43 52 66 283 c36 156 66 291 66 301 0 23 16 22
53 -5 22 -16 50 -23 92 -26 54 -3 64 -1 101 26 72 52 74 64 74 369 0 149 -3
331 -7 406 l-6 137 -44 0 -43 0 0 -75 c0 -105 2 -104 -190 -25 -25 10 -92 37
-149 60 l-104 41 -237 -3 c-131 -2 -235 -1 -230 2 4 3 2 11 -6 18 -12 10 -14
10 -14 -3z m371 -74 c30 -10 77 -28 104 -39 258 -103 334 -134 360 -147 17 -8
42 -19 58 -24 l27 -11 0 -255 c0 -242 -1 -256 -20 -275 -41 -41 -81 -20 -110
57 -15 41 -20 71 -17 107 6 65 -14 117 -63 159 -20 17 -50 57 -65 87 -41 81
-117 150 -201 181 -87 33 -157 32 -205 -2 -83 -58 -99 -118 -64 -249 9 -36 19
-76 21 -90 3 -14 12 -53 20 -88 7 -35 14 -79 14 -97 0 -38 -70 -223 -101 -266
-30 -42 -95 -69 -167 -69 l-62 0 0 -61 0 -62 73 6 c81 6 122 21 184 66 60 44
84 84 162 279 38 94 79 185 91 202 26 37 89 74 153 89 40 9 51 9 71 -4 13 -9
26 -22 29 -28 4 -12 -54 -269 -173 -761 -76 -311 -91 -335 -347 -529 -98 -74
-188 -145 -200 -158 -44 -48 -53 -93 -79 -377 -14 -152 -27 -287 -30 -300 l-4
-22 -344 0 -344 0 28 91 c16 50 31 93 33 95 2 3 26 -6 53 -20 71 -35 123 -41
189 -21 92 26 163 105 181 200 4 25 22 57 44 83 21 23 45 58 54 77 21 45 37
128 30 163 -4 22 2 35 39 74 83 86 109 217 66 333 -40 107 -162 195 -269 195
-31 0 -40 4 -40 17 0 15 29 108 192 617 39 121 71 224 72 230 2 12 65 213 74
236 3 8 6 17 7 20 1 3 9 30 18 60 33 104 121 195 225 232 65 23 166 22 233 -1z
m81 -278 c51 -35 88 -79 88 -105 0 -12 -3 -18 -7 -15 -3 4 -12 2 -20 -4 -7 -6
-13 -9 -13 -5 0 11 -98 -43 -133 -74 -19 -16 -39 -30 -44 -30 -9 0 -32 64 -38
105 -2 11 -7 40 -13 64 -11 46 -3 85 20 94 32 13 123 -3 160 -30z m2197 -152
c42 -42 68 -118 57 -168 -6 -25 -1 -32 40 -63 62 -46 84 -89 84 -163 0 -99
-41 -157 -137 -193 -26 -10 -49 -19 -51 -20 -2 -1 8 -19 22 -41 99 -152 16
-328 -155 -327 -101 1 -163 55 -203 177 -4 13 -17 17 -61 17 -62 0 -97 15
-136 57 -41 43 -52 73 -53 133 0 91 49 164 130 190 44 15 52 8 35 -33 -17 -40
-25 -109 -17 -142 15 -59 113 -134 177 -135 40 0 122 46 147 84 35 51 45 100
31 144 -29 93 -111 149 -201 139 -46 -6 -48 -5 -48 19 0 34 24 78 56 103 32
25 107 28 159 7 22 -10 37 -11 41 -5 3 6 3 66 -1 135 l-7 124 26 0 c17 0 39
-13 65 -39z m-211 -478 c17 -24 15 -73 -5 -95 -24 -27 -87 -24 -107 4 -17 24
-21 65 -8 84 24 36 95 40 120 7z m-3029 -492 c14 -9 9 -42 -16 -107 -4 -11 14
-14 99 -14 129 0 186 -17 228 -68 84 -102 49 -251 -72 -313 -30 -15 -38 -25
-33 -37 45 -116 23 -199 -69 -264 -44 -30 -45 -32 -39 -77 4 -37 0 -53 -19
-81 -64 -94 -190 -85 -231 17 -11 29 -25 43 -57 57 -57 25 -82 67 -77 129 4
41 11 56 45 89 l40 41 -39 49 c-85 109 -60 243 58 305 51 27 64 45 43 58 -5 3
-14 24 -20 45 -20 75 18 149 86 170 39 11 56 11 73 1z m1320 -390 l181 -205 0
-343 0 -343 -475 0 -475 0 0 28 c0 15 11 146 25 291 17 188 29 270 40 287 8
13 86 77 173 142 182 137 258 212 302 294 18 33 35 58 39 56 5 -2 90 -95 190
-207z"/>
<path d="M2380 2715 l0 -215 50 0 50 0 0 215 0 215 -50 0 -50 0 0 -215z"/>
<path d="M2760 2715 l0 -215 50 0 50 0 0 215 0 215 -50 0 -50 0 0 -215z"/>
<path d="M3145 2724 c-4 -129 -3 -210 3 -216 5 -5 29 -8 53 -6 l44 3 3 80 c2
44 0 140 -3 213 l-7 132 -43 0 -42 0 -8 -206z"/>
<path d="M2248 1966 c-86 -31 -125 -84 -135 -182 l-6 -54 62 0 61 0 0 40 c0
46 34 90 70 90 12 0 32 -11 45 -25 l25 -24 0 -221 c0 -271 9 -304 102 -351 78
-40 180 -15 235 58 28 36 28 38 33 216 5 173 6 179 29 198 31 25 63 24 89 -4
22 -23 22 -24 22 -502 0 -469 0 -480 21 -523 15 -29 37 -54 68 -74 41 -26 53
-29 108 -26 51 3 69 9 100 35 78 63 78 60 81 411 l3 312 -65 0 -66 0 0 -304
c0 -304 0 -305 -22 -320 -32 -22 -61 -20 -86 7 -22 23 -22 25 -22 488 0 308
-4 477 -11 504 -15 53 -73 110 -128 125 -86 23 -167 -11 -211 -90 -23 -42 -25
-56 -28 -213 -3 -157 -5 -168 -25 -182 -30 -21 -63 -19 -87 5 -19 19 -20 33
-20 234 0 219 -5 255 -42 309 -39 56 -136 86 -200 63z"/>
</g>
</svg>
