<?xml version="1.0" standalone="no"?>
<!DOCTYPE svg PUBLIC "-//W3C//DTD SVG 20010904//EN"
 "http://www.w3.org/TR/2001/REC-SVG-20010904/DTD/svg10.dtd">
<svg version="1.0" xmlns="http://www.w3.org/2000/svg"
 width="512.000000pt" height="512.000000pt" viewBox="0 0 512.000000 512.000000"
 preserveAspectRatio="xMidYMid meet">
<metadata>
Created by potrace 1.16, written by Peter Selinger 2001-2019
</metadata>
<g transform="translate(0.000000,512.000000) scale(0.100000,-0.100000)"
fill="#000000" stroke="none">
<path d="M2186 3633 c-13 -42 -26 -154 -26 -219 l0 -71 -47 -33 c-48 -34 -196
-155 -226 -184 -14 -15 -16 -14 -20 1 -14 48 -19 132 -18 268 2 151 4 188 15
215 5 13 -11 15 -119 12 -115 -3 -136 -7 -119 -25 4 -4 8 -23 9 -44 3 -43 46
-346 71 -499 l16 -101 -50 -64 c-71 -92 -143 -205 -198 -313 l-48 -94 -171 -5
c-193 -5 -292 -26 -452 -95 -193 -83 -397 -253 -511 -425 l-52 -79 0 -118 0
-118 237 79 c131 43 270 86 308 93 76 16 315 32 315 22 0 -3 -37 -80 -82 -171
l-83 -165 283 -282 282 -283 165 83 c91 45 168 82 171 82 10 0 -7 -239 -22
-315 -7 -38 -50 -177 -93 -307 l-79 -238 118 0 118 0 79 52 c173 116 339 314
425 509 68 154 90 259 95 454 l5 171 94 48 c108 55 221 127 313 198 57 45 67
50 100 44 20 -3 79 -12 131 -21 52 -8 111 -15 131 -15 l35 0 80 -517 79 -518
804 -3 803 -2 -6 77 c-3 43 -5 81 -6 86 0 4 -36 7 -80 7 l-80 0 0 235 0 235
-80 0 -80 0 0 -235 0 -235 -80 0 -80 0 0 155 0 155 -80 0 -80 0 0 -155 0 -155
-80 0 -80 0 0 315 0 315 -80 0 -80 0 0 -320 0 -320 -80 0 -80 0 0 240 0 240
-80 0 -80 0 0 -240 0 -240 -83 0 -83 0 -63 413 c-35 226 -65 424 -68 438 -5
26 -4 26 89 38 404 52 749 222 1022 505 218 226 367 509 437 826 23 108 36
373 24 513 l-7 86 -87 3 -87 3 8 -60 c13 -100 10 -354 -6 -440 -57 -319 -184
-575 -395 -798 -274 -287 -615 -451 -994 -475 -116 -8 -326 3 -339 16 -5 5 24
47 64 94 40 47 91 111 113 142 l40 56 71 0 c204 0 459 87 643 217 86 61 225
201 284 284 58 82 128 221 161 320 44 130 58 245 53 408 -3 81 -8 157 -10 171
-3 14 -6 33 -6 42 -1 14 -15 17 -91 20 -85 3 -105 -3 -83 -25 3 -4 7 -17 9
-29 1 -13 5 -36 8 -53 4 -16 6 -87 7 -156 1 -500 -352 -922 -849 -1015 -46 -8
-86 -13 -89 -11 -2 3 12 38 33 78 20 41 51 114 69 164 l32 90 80 40 c163 82
268 185 338 330 55 113 75 200 75 326 0 101 -11 169 -35 224 -8 16 -12 32 -10
35 2 3 -33 4 -77 2 -112 -5 -136 11 -28 18 l85 6 -87 2 c-49 1 -88 1 -88 -1 0
-2 9 -23 21 -47 47 -98 64 -252 39 -363 -15 -68 -63 -164 -110 -220 -48 -58
-140 -134 -140 -115 0 7 7 58 15 113 19 130 19 335 1 397 -20 65 -53 115 -116
175 l-35 33 -407 0 c-254 0 -408 4 -408 10 0 5 39 11 88 13 l87 3 -88 2 -87 2
-17 -34 c-13 -28 -25 -37 -62 -47 -25 -6 -100 -36 -165 -65 -66 -30 -122 -52
-124 -49 -4 4 10 90 24 150 5 19 1 20 -83 17 -60 -2 -85 0 -78 7 6 5 46 12 90
14 l80 3 -87 2 c-75 2 -87 0 -92 -15z m1199 -141 c46 -23 86 -63 109 -109 17
-33 23 -216 10 -295 -6 -33 -10 -38 -34 -38 -48 0 -153 38 -207 75 -108 73
-182 182 -208 305 -15 72 -18 68 82 78 120 12 204 7 248 -16z m-465 -202 c60
-153 169 -274 304 -340 80 -39 178 -70 223 -70 28 0 28 -1 -28 -174 -138 -423
-440 -799 -827 -1027 -47 -28 -170 -93 -275 -146 l-190 -95 -345 345 -344 344
110 219 c154 305 231 421 397 593 217 225 493 398 775 484 165 51 153 53 167
-18 6 -33 21 -85 33 -115z m-1580 -975 c0 -3 -35 -75 -77 -160 l-78 -155 -171
0 c-193 0 -273 -12 -438 -64 -58 -19 -106 -31 -106 -27 0 3 25 34 55 68 118
131 328 259 501 303 89 23 314 48 314 35z m410 -1065 l-210 -105 -197 197
-198 198 105 210 105 210 302 -302 303 -303 -210 -105z m564 13 c-18 -254 -87
-443 -228 -619 -55 -68 -163 -174 -179 -174 -3 0 10 48 29 106 52 165 64 245
64 438 l0 171 153 77 c83 42 155 77 159 77 4 1 5 -34 2 -76z"/>
<path d="M2320 3021 c-90 -29 -160 -70 -223 -130 -122 -115 -177 -242 -177
-408 0 -114 15 -176 67 -275 66 -127 205 -235 349 -273 75 -19 213 -19 288 0
191 50 351 210 401 401 19 75 19 213 0 288 -49 189 -202 343 -394 400 -75 22
-239 21 -311 -3z m323 -184 c74 -34 160 -119 195 -194 24 -52 27 -70 27 -163
0 -93 -3 -111 -27 -163 -35 -74 -121 -160 -195 -195 -52 -24 -70 -27 -163 -27
-93 0 -111 3 -163 27 -72 34 -160 121 -192 190 -98 214 7 461 228 540 78 28
213 21 290 -15z"/>
<path d="M2375 2701 c-87 -40 -135 -120 -135 -223 1 -142 97 -238 240 -238
144 0 240 96 240 240 0 104 -53 187 -142 224 -52 22 -153 20 -203 -3z m155
-171 c11 -11 20 -33 20 -50 0 -17 -9 -39 -20 -50 -11 -11 -33 -20 -50 -20 -17
0 -39 9 -50 20 -11 11 -20 33 -20 50 0 17 9 39 20 50 11 11 33 20 50 20 17 0
39 -9 50 -20z"/>
<path d="M575 1180 l-240 -240 63 -62 62 -63 242 242 243 243 -60 60 c-33 33
-62 60 -65 60 -3 0 -113 -108 -245 -240z"/>
<path d="M695 820 l-360 -360 63 -62 62 -63 362 362 363 363 -60 60 c-33 33
-62 60 -65 60 -3 0 -167 -162 -365 -360z"/>
<path d="M1055 700 l-240 -240 63 -62 62 -63 242 242 243 243 -60 60 c-33 33
-62 60 -65 60 -3 0 -113 -108 -245 -240z"/>
<path d="M175 780 l-80 -80 63 -62 62 -63 82 82 83 83 -60 60 c-33 33 -62 60
-65 60 -3 0 -41 -36 -85 -80z"/>
<path d="M175 300 l-80 -80 63 -62 62 -63 82 82 83 83 -60 60 c-33 33 -62 60
-65 60 -3 0 -41 -36 -85 -80z"/>
<path d="M655 300 l-80 -80 63 -62 62 -63 82 82 83 83 -60 60 c-33 33 -62 60
-65 60 -3 0 -41 -36 -85 -80z"/>
</g>
</svg>
