<?xml version="1.0" standalone="no"?>
<!DOCTYPE svg PUBLIC "-//W3C//DTD SVG 20010904//EN"
 "http://www.w3.org/TR/2001/REC-SVG-20010904/DTD/svg10.dtd">
<svg version="1.0" xmlns="http://www.w3.org/2000/svg"
 width="409.000000pt" height="409.000000pt" viewBox="0 0 409.000000 409.000000"
 preserveAspectRatio="xMidYMid meet">

<g transform="translate(0.000000,409.000000) scale(0.100000,-0.100000)"
fill="#000000" stroke="none">
<path d="M3310 3360 c0 -5 16 -10 35 -10 19 0 35 5 35 10 0 6 -16 10 -35 10
-19 0 -35 -4 -35 -10z"/>
<path d="M3286 3335 c-3 -9 -6 -47 -6 -83 l1 -67 49 55 c59 65 66 100 21 100
-16 0 -36 3 -44 6 -8 3 -17 -2 -21 -11z"/>
<path d="M997 3212 c-15 -15 -27 -38 -27 -50 0 -20 5 -22 51 -22 48 0 54 3 95
47 24 25 44 48 44 50 0 1 -31 3 -68 3 -62 0 -71 -3 -95 -28z"/>
<path d="M2348 3080 c-58 -10 -62 -12 -139 -84 -47 -44 -57 -58 -39 -52 14 4
58 9 98 12 l73 5 54 57 c45 47 51 58 37 64 -20 8 -24 8 -84 -2z"/>
<path d="M768 2994 l-47 -44 -7 -935 -7 -935 186 0 187 0 0 130 0 130 70 0 70
0 0 -255 0 -254 128 -3 127 -3 3 -127 3 -128 187 0 187 0 -3 255 -3 255 71 0
70 0 0 -190 0 -190 190 0 190 0 0 131 0 131 60 -4 60 -3 0 258 0 257 135 0
135 0 0 -65 0 -65 131 0 130 0 -3 -130 -3 -130 189 0 189 0 -6 898 c-4 493 -7
898 -7 900 0 1 -22 2 -50 2 l-50 0 -2 -137 c-2 -76 -3 -212 -3 -303 0 -91 -1
-405 -3 -697 l-2 -533 -65 0 -65 0 -2 318 -3 317 -60 0 -60 0 -3 -192 -2 -193
-65 0 -65 0 0 130 0 130 -60 0 -60 0 0 -65 0 -65 -195 0 -195 0 0 -255 0 -255
-65 0 -65 0 0 -130 0 -130 -65 0 -65 0 0 195 0 195 -190 0 -190 0 0 -260 0
-260 -65 0 -65 0 0 195 0 196 -62 -3 -63 -3 -3 -62 -3 -63 -64 0 -65 0 0 255
0 255 -190 0 -190 0 0 -125 0 -125 -65 0 -65 0 -1 518 c-1 284 -4 696 -8 914
l-6 397 -47 -45z"/>
<path d="M2588 2993 c6 -2 18 -2 25 0 6 3 1 5 -13 5 -14 0 -19 -2 -12 -5z"/>
<path d="M1867 2903 c-3 -5 25 -7 61 -5 116 5 130 9 35 10 -50 1 -94 -1 -96
-5z"/>
<path d="M2653 2903 c15 -2 37 -2 50 0 12 2 0 4 -28 4 -27 0 -38 -2 -22 -4z"/>
<path d="M3303 2903 c15 -2 39 -2 55 0 15 2 2 4 -28 4 -30 0 -43 -2 -27 -4z"/>
<path d="M1814 2850 c-15 -16 -31 -27 -36 -24 -5 3 -7 2 -6 -3 5 -13 -28 -53
-37 -45 -5 4 -5 2 -1 -5 4 -7 -2 -21 -14 -33 -11 -11 -18 -20 -15 -20 8 0 -36
-84 -48 -91 -5 -4 -9 -18 -9 -33 0 -14 -5 -26 -10 -26 -5 0 -6 -4 -3 -10 3 -5
3 -16 -2 -22 -18 -30 -31 -165 -32 -343 l-1 -130 -117 -117 -117 -118 44 -45
44 -45 121 119 120 120 220 3 c207 4 225 6 296 30 111 39 194 92 280 177 72
72 144 176 133 193 -3 4 -1 8 4 8 12 0 34 59 26 71 -3 5 0 9 6 9 7 0 10 6 7
14 -3 8 -3 17 1 20 14 15 41 215 35 262 -3 20 -1 34 4 31 5 -3 7 10 5 29 -3
21 0 34 7 34 7 0 9 5 6 10 -3 6 -28 10 -55 10 l-48 0 -7 -60 c-4 -33 -11 -58
-15 -55 -4 3 -6 -3 -3 -14 2 -10 -7 -76 -22 -147 -19 -93 -37 -149 -63 -199
-62 -118 -190 -227 -330 -278 -72 -26 -352 -39 -352 -16 0 7 26 39 57 71 l57
58 148 0 148 0 0 55 0 55 -80 0 c-56 0 -80 4 -80 12 0 7 26 38 57 70 l57 58
83 0 83 0 0 55 0 54 -62 3 -63 3 -3 63 -3 62 -49 0 -50 0 0 -73 0 -73 -66 -68
c-83 -85 -94 -83 -94 19 l0 76 -52 -3 -53 -3 -1 -144 -2 -143 -58 -59 c-32
-32 -64 -59 -71 -59 -23 0 -15 219 12 335 25 110 102 225 210 313 l40 32 -78
0 c-73 0 -78 -2 -103 -30z"/>
<path d="M2630 1140 l0 -60 60 0 60 0 0 60 0 60 -60 0 -60 0 0 -60z"/>
<path d="M710 890 l0 -60 60 0 60 0 0 60 0 60 -60 0 -60 0 0 -60z"/>
<path d="M2630 760 l0 -190 190 0 190 0 0 190 0 190 -190 0 -190 0 0 -190z
m258 -2 l3 -68 -71 0 -70 0 0 63 c0 35 3 67 7 71 4 4 34 6 68 4 l60 -3 3 -67z"/>
<path d="M3140 760 l0 -60 60 0 60 0 0 60 0 60 -60 0 -60 0 0 -60z"/>
<path d="M960 500 l0 -190 190 0 190 0 0 190 0 190 -190 0 -190 0 0 -190z
m260 5 l0 -65 -65 0 -65 0 0 65 0 65 65 0 65 0 0 -65z"/>
<path d="M2122 373 l3 -188 185 1 185 1 3 187 2 186 -190 0 -190 0 2 -187z
m248 2 l0 -65 -65 0 -65 0 0 65 0 65 65 0 65 0 0 -65z"/>
<path d="M1480 250 l0 -190 192 0 191 0 -6 178 c-4 97 -7 183 -7 190 0 9 -44
12 -185 12 l-185 0 0 -190z m250 -5 l0 -65 -65 0 -65 0 0 65 0 65 65 0 65 0 0
-65z"/>
<path d="M2760 375 l0 -65 60 0 60 0 0 65 0 65 -60 0 -60 0 0 -65z"/>
<path d="M840 120 l0 -60 60 0 60 0 0 60 0 60 -60 0 -60 0 0 -60z"/>
<path d="M3270 120 l0 -60 60 0 60 0 0 60 0 60 -60 0 -60 0 0 -60z"/>
</g>
</svg>
