<?xml version="1.0" encoding="utf-8"?>
<!-- Generator: Adobe Illustrator 17.0.0, SVG Export Plug-In . SVG Version: 6.00 Build 0)  -->
<!DOCTYPE svg PUBLIC "-//W3C//DTD SVG 1.1//EN" "http://www.w3.org/Graphics/SVG/1.1/DTD/svg11.dtd">
<svg version="1.1" id="Capa_1" xmlns="http://www.w3.org/2000/svg" xmlns:xlink="http://www.w3.org/1999/xlink" x="0px" y="0px"
	 width="512px" height="512px" viewBox="0 0 512 512" enable-background="new 0 0 512 512" xml:space="preserve">
<g>
	<path display="none" fill="#FEFEFE" d="M513.435,513.5c-171.138,0-341.972,0-512.87,0c0-170.957,0-341.913,0-512.935
		c170.892,0,341.848,0,512.87,0C513.435,171.457,513.435,342.413,513.435,513.5z M235.667,361.51
		c1.028,27.476-11.783,51.735-18.751,77.426c12.744,1.699,23.595,0.468,33.879-7.615c22.563-17.731,37.867-39.819,44.777-67.686
		c0.644-2.399,1.673-4.768,1.865-7.203c0.825-10.441,1.507-20.897,2.005-31.359c0.137-2.89,0.529-5.016,3.512-6.38
		c24.632-11.263,45.401-27.869,63.479-47.715c7.89-8.662,14.142-18.817,21.138-28.295c14.48-20.546,22.612-43.811,27.541-68.081
		c2.732-13.453,3.903-27.394,4.139-41.144c0.351-20.432-16.692-38.09-36.988-37.603c-16.716,0.401-33.794,1.65-49.956,5.608
		c-26.11,6.394-50.637,17.001-72.425,33.674c-16.726,12.8-31.468,27.318-43.771,44.188c-7.229,9.913-13.083,20.86-19.132,31.581
		c-1.909,3.384-3.859,4.896-7.742,4.663c-4.814-0.29-9.676-0.247-14.492,0.052c-18.178,1.129-35.55,5.208-51.377,14.644
		c-16.936,8.457-29.676,21.499-41.288,36.202c-7.696,9.744-6.838,20.21-6.232,31.795c28.425-7.983,55.099-22.457,86.185-18.095
		c-0.968,2.077-1.693,3.724-2.495,5.334c-4.01,8.049-7.967,16.126-12.106,24.108c-1.262,2.433-1.155,4.107,0.881,6.126
		c17.026,16.893,33.992,33.846,50.86,50.896c2.23,2.254,4.04,2.105,6.569,0.798c8.134-4.207,16.354-8.249,24.556-12.324
		c1.433-0.712,2.94-1.276,4.906-2.121C235.382,356.264,235.524,358.887,235.667,361.51z M97.303,428.74
		c1.571-1.442,2.82-2.507,3.978-3.664c20.241-20.229,40.471-40.47,60.704-60.708c7.285-7.287,7.118-7.129,0.047-14.588
		c-3.177-3.351-5.104-3.229-8.31,0.021c-20.101,20.368-40.406,40.535-60.642,60.769c-7.266,7.265-7.276,7.277,0.054,14.508
		C94.389,426.316,95.785,427.413,97.303,428.74z M96.591,379.728c15.884-15.695,31.673-31.296,47.487-46.921
		c-3.213-3.245-6.657-6.724-9.59-9.686c-15.909,15.742-31.687,31.354-47.424,46.926C90.277,373.311,93.714,376.804,96.591,379.728z
		 M144.393,427.856c16.017-15.978,31.727-31.649,48.792-48.672c-2.035-1.493-4.951-3.034-7.055-5.321
		c-2.992-3.252-4.994-3.586-8.325-0.159c-13.217,13.597-26.748,26.889-40.144,40.312c-1.14,1.142-2.143,2.421-3.448,3.907
		C137.934,421.555,141.353,424.89,144.393,427.856z M73.972,405.174c4.555-4.846,9.03-9.478,13.297-14.295
		c0.594-0.671,0.672-2.721,0.112-3.338c-2.948-3.248-6.177-6.241-8.748-8.77c-5.582,5.499-10.606,10.448-15.419,15.19
		C66.389,397.272,69.777,400.802,73.972,405.174z M61.816,441.327c4.21,4.175,7.688,7.623,11.854,11.755
		c4.637-4.79,9.229-9.304,13.543-14.069c2.997-3.31-0.826-4.952-2.507-6.175c-2.684-1.951-3.945-8.219-8.589-4.931
		C70.923,431.584,66.704,436.638,61.816,441.327z M126.368,427.096c-5.097,5.076-10.185,10.143-16.221,16.153
		c2.828,2.436,5.869,5.264,9.167,7.751c0.837,0.631,3,0.749,3.687,0.134c4.795-4.289,9.361-8.832,14.127-13.415
		C132.934,433.579,129.45,430.139,126.368,427.096z"/>
	<path fill="#8B8B8B" d="M387.571,242.683c-6.996,9.477-13.248,19.632-21.138,28.294c-18.078,19.847-38.848,36.452-63.479,47.715
		c-2.983,1.364-3.375,3.49-3.512,6.38c-0.497,10.462-1.18,20.918-2.005,31.359c-0.192,2.435-1.221,4.804-1.866,7.203
		c-1.702-0.709-3.359-1.851-5.116-2.035c-3.408-0.356-6.872-0.174-10.312-0.215c2.275-10.476,4.14-20.985,2.926-32.625
		c-8.757,4.354-16.749,8.693-25.053,12.319c-4.944,2.159-7.345,4.931-6.595,10.493c0.438,3.249-0.027,6.621-0.086,9.937
		c-5.223,0-10.445,0-15.668,0c-0.142-2.623-0.285-5.246-0.462-8.526c-1.966,0.844-3.473,1.408-4.906,2.121
		c-8.202,4.075-16.422,8.117-24.556,12.324c-2.528,1.308-4.339,1.456-6.569-0.798c-16.868-17.05-33.835-34.003-50.86-50.896
		c-2.035-2.019-2.142-3.693-0.881-6.126c4.139-7.982,8.096-16.059,12.106-24.108c0.802-1.609,1.526-3.257,2.495-5.334
		c-31.086-4.363-57.76,10.112-86.185,18.095c-0.606-11.585-1.465-22.051,6.232-31.795c11.613-14.703,24.353-27.744,41.289-36.201
		c2.288,0.742,4.553,2.029,6.868,2.124c6.946,0.286,13.914,0.006,20.866,0.193c1.477,0.04,2.926,1.118,4.387,1.719
		c-23.761,6.542-43.483,18.993-58.759,39.652c1.51-0.093,2.021-0.003,2.431-0.167c21.73-8.659,44.337-11.415,67.579-10.464
		c1.841,0.075,4.577-1.867,5.543-3.618c4.74-8.591,9.021-17.434,13.464-26.188c5.685-0.856,11.417-2.503,16.842,1.001
		c-2.06,4.353-3.965,8.789-6.236,13.029c-1.401,2.617-1.189,4.375,0.975,6.524c21.248,21.097,42.434,42.257,63.523,63.512
		c2.355,2.374,4.235,2.292,6.961,0.888c11.238-5.785,22.623-11.285,33.858-17.075c17.733-9.137,34.05-20.424,47.469-35.192
		c9.689-10.663,18.098-22.49,27.078-33.798c4.046,0,8.093,0,12.297,0C388.135,236.54,387.853,239.612,387.571,242.683z
		 M186.74,267.766c0.067-0.061-0.417,0.195-0.618,0.593c-6.519,12.938-13.108,25.843-19.354,38.912
		c-0.627,1.311,0.266,4.19,1.433,5.388c11.158,11.451,22.607,22.62,33.775,34.061c2.489,2.55,4.43,2.491,7.365,0.974
		c10.946-5.659,22.024-11.063,33.043-16.581c1.853-0.928,3.659-1.949,5.011-2.673C226.969,308.008,206.894,287.927,186.74,267.766z"
		/>
	<path fill="#909090" d="M155.49,234.301c-1.462-0.6-2.911-1.679-4.387-1.719c-6.953-0.186-13.92,0.094-20.866-0.193
		c-2.314-0.095-4.58-1.382-6.868-2.124c15.826-9.437,33.198-13.516,51.376-14.645c4.816-0.299,9.678-0.341,14.492-0.052
		c3.882,0.234,5.832-1.279,7.742-4.663c6.049-10.721,11.903-21.669,19.132-31.581c12.302-16.869,27.044-31.388,43.771-44.188
		c21.789-16.673,46.315-27.28,72.425-33.674c16.162-3.958,33.24-5.207,49.956-5.608c20.297-0.487,37.34,17.171,36.988,37.603
		c-0.237,13.749-1.407,27.691-4.139,41.144c-4.929,24.269-13.062,47.535-27.541,68.081c0.282-3.071,0.565-6.142,0.944-10.276
		c-4.204,0-8.251,0-12.296,0c9.012-16.034,16.655-32.64,21.182-50.555c1.6-6.332,1.595-6.36-4.62-7.388
		c-26.424-4.371-47.723-25.567-52.193-51.942c-1.113-6.566-1.138-6.656-7.611-4.877c-50.124,13.776-88.504,43.026-114.937,87.763
		c-5.582,9.448-10.322,19.393-15.45,29.109c-5.426-3.504-11.158-1.857-16.843-1.001c-1.383-0.669-2.821-2.006-4.139-1.897
		C172.888,232.34,164.193,233.371,155.49,234.301z M403.499,140.88c0-2.768,0.006-4.1-0.001-5.433
		c-0.079-14.235-9.653-23.98-23.83-23.895c-6.482,0.039-12.959,0.689-19.44,1.043c-3.173,0.173-4.796,1.294-4.378,4.981
		c2.374,20.912,20.257,38.795,41.445,41.473c3.615,0.457,4.876-0.876,5.099-4.163C402.744,149.74,403.202,144.6,403.499,140.88z"/>
	<path fill="#848484" d="M235.667,361.51c5.223,0,10.445,0,15.668,0c-0.431,19.129-3.133,37.849-10.146,56.104
		c5.33-3.757,10.12-7.76,14.435-12.222c12.056-12.468,19.523-27.566,24.519-44.007c3.441,0.041,6.905-0.142,10.312,0.215
		c1.757,0.184,3.414,1.326,5.116,2.035c-6.91,27.867-22.213,49.955-44.776,67.686c-10.285,8.082-21.135,9.314-33.879,7.615
		C223.884,413.245,236.695,388.986,235.667,361.51z"/>
	<path fill="#878787" d="M97.303,428.74c-1.519-1.327-2.915-2.424-4.17-3.662c-7.329-7.231-7.319-7.243-0.054-14.508
		c20.237-20.234,40.542-40.4,60.642-60.769c3.207-3.25,5.134-3.372,8.31-0.021c7.072,7.46,7.238,7.302-0.047,14.588
		c-20.233,20.238-40.463,40.479-60.704,60.708C100.124,426.233,98.874,427.298,97.303,428.74z"/>
	<path fill="#888888" d="M96.591,379.728c-2.877-2.924-6.314-6.417-9.527-9.681c15.737-15.572,31.515-31.184,47.424-46.926
		c2.933,2.962,6.377,6.441,9.59,9.686C128.264,348.432,112.475,364.033,96.591,379.728z"/>
	<path fill="#858585" d="M144.393,427.856c-3.04-2.966-6.459-6.301-10.181-9.932c1.305-1.486,2.308-2.765,3.448-3.907
		c13.396-13.423,26.927-26.715,40.144-40.312c3.332-3.428,5.333-3.094,8.325,0.159c2.104,2.287,5.021,3.828,7.055,5.321
		C176.12,396.207,160.41,411.878,144.393,427.856z"/>
	<path fill="#878787" d="M73.972,405.174c-4.195-4.372-7.582-7.903-10.758-11.213c4.813-4.742,9.837-9.691,15.419-15.19
		c2.571,2.53,5.8,5.522,8.748,8.77c0.56,0.616,0.482,2.667-0.112,3.338C83.002,395.697,78.526,400.329,73.972,405.174z"/>
	<path fill="#848484" d="M61.816,441.327c4.888-4.69,9.108-9.743,14.301-13.42c4.644-3.288,5.905,2.979,8.589,4.931
		c1.682,1.222,5.504,2.865,2.507,6.175c-4.314,4.765-8.906,9.279-13.543,14.069C69.503,448.95,66.026,445.502,61.816,441.327z"/>
	<path fill="#848484" d="M126.368,427.096c3.083,3.043,6.566,6.483,10.76,10.623c-4.766,4.583-9.332,9.126-14.127,13.415
		c-0.687,0.615-2.85,0.497-3.687-0.134c-3.298-2.487-6.339-5.315-9.167-7.751C116.182,437.238,121.27,432.171,126.368,427.096z"/>
	<path display="none" fill="#FEFEFE" d="M202.59,234.517c5.128-9.716,9.868-19.662,15.45-29.109
		c26.432-44.738,64.813-73.988,114.937-87.763c6.473-1.779,6.498-1.689,7.611,4.877c4.471,26.375,25.769,47.571,52.193,51.942
		c6.215,1.028,6.22,1.057,4.62,7.388c-4.527,17.914-12.17,34.521-21.182,50.555c-8.98,11.308-17.389,23.134-27.078,33.797
		c-13.419,14.768-29.736,26.055-47.469,35.192c-11.236,5.789-22.62,11.29-33.858,17.075c-2.727,1.404-4.606,1.485-6.961-0.888
		c-21.09-21.255-42.275-42.415-63.523-63.512c-2.164-2.149-2.376-3.908-0.975-6.524C198.625,243.306,200.53,238.87,202.59,234.517z
		 M355.474,215.484c-0.016-30.715-25.3-55.97-56.016-55.951c-30.768,0.019-55.945,25.229-55.934,56.006
		c0.011,30.753,25.235,55.956,55.992,55.947C330.244,271.477,355.49,246.211,355.474,215.484z"/>
	<path display="none" fill="#FEFEFE" d="M186.74,267.766c20.154,20.16,40.229,40.242,60.655,60.674
		c-1.351,0.723-3.158,1.745-5.011,2.673c-11.019,5.518-22.096,10.923-33.043,16.581c-2.935,1.517-4.876,1.577-7.365-0.974
		c-11.168-11.442-22.617-22.61-33.775-34.061c-1.167-1.197-2.06-4.076-1.433-5.388c6.247-13.069,12.836-25.974,19.354-38.912
		C186.323,267.961,186.807,267.705,186.74,267.766z"/>
	<path display="none" fill="#FEFEFE" d="M280.142,361.385c-4.996,16.44-12.463,31.539-24.519,44.007
		c-4.315,4.462-9.105,8.465-14.435,12.222c7.013-18.255,9.715-36.975,10.146-56.104c0.059-3.316,0.524-6.688,0.086-9.937
		c-0.75-5.563,1.651-8.335,6.595-10.493c8.304-3.626,16.296-7.965,25.053-12.319C284.282,340.401,282.417,350.909,280.142,361.385z"
		/>
	<path display="none" fill="#FEFEFE" d="M155.49,234.301c8.703-0.93,17.398-1.962,26.119-2.683c1.318-0.109,2.756,1.229,4.139,1.897
		c-4.443,8.754-8.724,17.598-13.464,26.188c-0.966,1.751-3.702,3.693-5.543,3.618c-23.242-0.951-45.849,1.805-67.579,10.464
		c-0.41,0.164-0.922,0.074-2.431,0.167C112.007,253.294,131.728,240.843,155.49,234.301z"/>
	<path display="none" fill="#FEFEFE" d="M403.499,140.88c-0.298,3.72-0.755,8.86-1.104,14.007c-0.223,3.287-1.484,4.62-5.099,4.163
		c-21.188-2.679-39.071-20.561-41.445-41.473c-0.419-3.688,1.205-4.808,4.378-4.981c6.48-0.354,12.958-1.004,19.44-1.043
		c14.177-0.085,23.751,9.66,23.83,23.895C403.506,136.78,403.499,138.112,403.499,140.88z"/>
	<path fill="#8C8C8C" d="M355.474,215.484c0.016,30.727-25.23,55.993-55.958,56.002c-30.757,0.009-55.98-25.195-55.992-55.947
		c-0.011-30.777,25.166-55.987,55.934-56.006C330.175,159.514,355.459,184.769,355.474,215.484z M299.588,175.503
		c-22.05-0.04-40.09,17.974-40.076,40.018c0.013,21.808,17.867,39.805,39.643,39.962c22.028,0.158,40.239-17.802,40.333-39.778
		C339.582,193.656,321.604,175.542,299.588,175.503z"/>
	<path display="none" fill="#FEFEFE" d="M299.588,175.503c22.016,0.04,39.994,18.153,39.9,40.201
		c-0.094,21.976-18.305,39.936-40.333,39.778c-21.776-0.156-39.63-18.153-39.643-39.962
		C259.498,193.476,277.538,175.463,299.588,175.503z M323.479,215.445c-0.031-13.058-10.858-23.889-23.914-23.922
		c-13.275-0.034-24.195,10.994-24.046,24.283c0.146,13.035,11.095,23.767,24.156,23.678
		C312.713,239.396,323.511,228.491,323.479,215.445z"/>
	<path fill="#8F8F8F" d="M323.479,215.445c0.031,13.046-10.766,23.95-23.803,24.039c-13.061,0.089-24.01-10.643-24.156-23.678
		c-0.149-13.289,10.771-24.317,24.046-24.283C312.621,191.556,323.448,202.387,323.479,215.445z M299.471,223.417
		c4.321,0.016,7.93-3.57,7.946-7.894c0.016-4.325-3.566-7.933-7.891-7.948c-4.326-0.015-7.928,3.564-7.944,7.893
		C291.565,219.794,295.145,223.401,299.471,223.417z"/>
	<path display="none" fill="#FDFDFD" d="M299.471,223.417c-4.326-0.016-7.906-3.623-7.89-7.949c0.016-4.329,3.619-7.908,7.944-7.893
		c4.325,0.015,7.907,3.623,7.891,7.948C307.401,219.847,303.792,223.432,299.471,223.417z"/>
</g>
</svg>
